<svg xmlns="http://www.w3.org/2000/svg" xmlns:xlink="http://www.w3.org/1999/xlink" width="300" zoomAndPan="magnify" viewBox="0 0 224.87999 225" height="300" preserveAspectRatio="xMidYMid meet" version="1.0"><defs><clipPath id="152d081aa1"><path d="M 150 136 L 224.761719 136 L 224.761719 184.800781 L 150 184.800781 Z M 150 136 " clip-rule="nonzero"/></clipPath><clipPath id="6b41242678"><path d="M 0 85 L 157 85 L 157 184.800781 L 0 184.800781 Z M 0 85 " clip-rule="nonzero"/></clipPath><clipPath id="bc4d3af91b"><path d="M 1 81 L 224.761719 81 L 224.761719 176 L 1 176 Z M 1 81 " clip-rule="nonzero"/></clipPath><clipPath id="ba99d4b97b"><path d="M 8 40.128906 L 216 40.128906 L 216 161 L 8 161 Z M 8 40.128906 " clip-rule="nonzero"/></clipPath><clipPath id="5e1ef0f2ec"><path d="M 0 40.128906 L 224.761719 40.128906 L 224.761719 184.800781 L 0 184.800781 Z M 0 40.128906 " clip-rule="nonzero"/></clipPath></defs><g clip-path="url(#152d081aa1)"><path fill="#1c0140" d="M 224.105469 136.5625 L 224.105469 144.824219 L 156.148438 184.042969 L 150.582031 174.628906 Z M 224.105469 136.5625 " fill-opacity="1" fill-rule="nonzero"/></g><g clip-path="url(#6b41242678)"><path fill="#5284ff" d="M 156.148438 175.78125 L 156.148438 184.042969 L 0.789062 94.382812 L 0.789062 86.125 L 1.507812 85.710938 L 154.386719 170.917969 Z M 156.148438 175.78125 " fill-opacity="1" fill-rule="nonzero"/></g><g clip-path="url(#bc4d3af91b)"><path fill="#9fcdff" d="M 224.105469 136.5625 L 156.148438 175.78125 L 1.507812 86.539062 C 1.1875 86.355469 1.1875 85.894531 1.507812 85.710938 L 8.519531 81.664062 L 216.191406 131.996094 Z M 224.105469 136.5625 " fill-opacity="1" fill-rule="nonzero"/></g><path fill="#1c0140" d="M 76.039062 45.21875 L 76.039062 49.636719 L 85.378906 50.613281 L 85.378906 55.117188 L 94.722656 56.003906 L 94.722656 60.957031 L 104.0625 61.398438 L 104.0625 66.007812 L 113.40625 66.792969 L 113.40625 70.324219 L 122.746094 72.1875 L 122.746094 76.007812 L 132.089844 77.582031 L 132.089844 81.671875 L 141.429688 82.976562 L 141.429688 87.101562 L 150.773438 88.363281 L 150.773438 92.480469 L 160.113281 93.757812 L 160.113281 98.367188 L 169.457031 99.152344 L 169.457031 103.535156 L 178.800781 104.542969 L 178.800781 108.574219 L 188.140625 109.929688 L 188.140625 113.746094 L 197.484375 115.324219 L 197.484375 118.738281 L 206.824219 120.71875 L 206.824219 125.007812 L 216.167969 125.960938 L 216.167969 134.886719 L 156.128906 169.742188 L 152.390625 165.25 L 148.648438 165.425781 L 146.785156 164.347656 L 143.953125 158.910156 L 139.308594 160.03125 L 137.445312 158.957031 L 134.316406 152.636719 L 129.964844 154.636719 L 128.101562 153.5625 L 126.105469 148.460938 L 120.625 149.246094 L 118.761719 148.167969 L 115.75 141.957031 L 111.28125 143.851562 L 109.417969 142.773438 L 107 136.9375 L 101.933594 138.457031 L 100.074219 137.378906 L 94.996094 129.472656 L 45.875 106.101562 L 44.011719 105.027344 L 41.121094 99.429688 L 33.414062 98.960938 L 31.550781 97.832031 L 27.910156 92.449219 L 20.953125 91.722656 L 19.09375 90.644531 L 15.042969 77.582031 Z M 76.039062 45.21875 " fill-opacity="1" fill-rule="nonzero"/><path fill="#5284ff" d="M 60.953125 60.332031 L 59.132812 60.179688 L 59.132812 57.128906 L 65.605469 59.851562 L 66.609375 61.445312 L 66.609375 65.621094 L 60.953125 64.945312 Z M 65.714844 54.832031 L 67.578125 55.113281 L 67.578125 50.097656 L 62.574219 45.777344 L 60.101562 45.777344 L 60.101562 50.25 L 65.714844 51.167969 Z M 75.0625 60.648438 L 76.925781 59.851562 L 76.925781 55.488281 L 72.019531 51.171875 L 69.445312 51.171875 L 69.445312 56.285156 L 75.0625 56.566406 Z M 78.789062 61.378906 C 78.738281 61.535156 84.40625 61.960938 84.40625 61.960938 L 84.40625 65.625 L 86.269531 65.449219 L 86.269531 60.882812 L 80.402344 56.285156 L 78.789062 56.566406 C 78.789062 56.566406 78.839844 61.21875 78.789062 61.378906 Z M 93.746094 67.351562 L 93.746094 71.089844 L 95.609375 70.488281 L 95.609375 66.277344 L 90.585938 61.960938 L 88.132812 61.960938 L 88.132812 66.421875 Z M 103.09375 76.589844 L 104.957031 76.199219 L 104.957031 71.667969 L 99.703125 67.632812 L 97.476562 67.351562 L 97.476562 72.191406 L 103.09375 72.742188 Z M 112.449219 81.929688 L 114.304688 81.382812 L 114.304688 77.0625 L 109.304688 72.460938 L 106.824219 72.742188 L 106.824219 76.792969 L 112.441406 78.136719 Z M 121.777344 83.527344 L 121.777344 87.09375 L 123.640625 85.984375 L 123.640625 82.449219 L 118.003906 77.851562 L 116.160156 78.132812 L 116.160156 82.765625 Z M 131.125 92.242188 L 132.988281 92.167969 L 132.988281 87.84375 L 128.273438 83.808594 L 125.507812 83.527344 L 125.507812 87.203125 L 131.125 88.921875 Z M 140.464844 97.5625 L 142.328125 97.117188 L 142.328125 93.234375 L 138.027344 89.199219 C 137.992188 89.105469 134.851562 88.917969 134.851562 88.917969 L 134.851562 93.515625 L 140.464844 94.308594 Z M 149.808594 99.703125 L 149.808594 103.527344 L 151.671875 102.953125 C 151.671875 102.953125 151.660156 98.804688 151.671875 98.625 L 145.558594 94.027344 L 144.191406 94.308594 L 144.191406 97.917969 Z M 159.15625 109.140625 L 161.015625 108.347656 C 161.015625 108.347656 161.039062 104.164062 161.015625 104.019531 L 156 99.226562 L 153.539062 99.703125 L 153.539062 104.472656 L 159.15625 105.09375 Z M 168.496094 115.042969 L 170.359375 114.808594 L 170.359375 109.414062 L 165.105469 105.097656 L 162.878906 105.097656 L 162.878906 109.144531 L 168.496094 110.492188 Z M 177.839844 115.878906 C 177.839844 115.878906 177.9375 119.640625 177.839844 119.75 C 177.738281 119.855469 179.703125 120.992188 179.703125 120.992188 L 179.703125 114.804688 L 174.921875 109.933594 L 172.222656 110.488281 L 172.222656 114.804688 Z M 185.929688 115.328125 L 181.566406 115.878906 L 181.566406 120.199219 L 189.042969 125.316406 C 189.042969 125.316406 189.046875 120.386719 189.042969 120.199219 Z M 207.414062 128.515625 C 207.449219 128.410156 200.257812 126.667969 200.257812 126.667969 L 200.257812 130.984375 L 205.875 132.0625 L 205.875 138.890625 L 207.738281 139.96875 L 207.738281 130.984375 Z M 189.9375 132.617188 L 189.9375 136.9375 L 195.554688 138.011719 L 195.554688 144.84375 L 197.414062 145.917969 L 197.414062 136.9375 L 193.8125 133.484375 Z M 174.75 122.34375 L 171.25 121.835938 L 171.25 124.832031 L 173.070312 125.039062 L 173.070312 128.722656 L 186.207031 132.617188 L 186.207031 136.285156 L 188.070312 135.972656 C 188.070312 135.972656 188.160156 131.679688 188.070312 131.542969 Z M 163.730469 124.011719 L 169.386719 125.460938 C 169.386719 125.460938 169.480469 120.890625 169.386719 120.753906 L 166.894531 117.195312 C 166.925781 117.101562 161.90625 116.4375 161.90625 116.4375 L 161.90625 119.464844 L 163.730469 119.640625 Z M 154.386719 118.339844 L 160.042969 119.027344 L 160.042969 115.363281 L 157.394531 112.023438 L 152.5625 111.046875 L 152.5625 113.539062 L 154.386719 114.25 Z M 145.046875 108.863281 L 145.046875 113.066406 L 150.703125 113.742188 L 150.703125 109.976562 L 146.0625 105.242188 C 146.160156 105.179688 143.222656 105.660156 143.222656 105.660156 L 143.222656 108.464844 Z M 135.699219 108.351562 L 141.355469 108.964844 L 141.355469 104.582031 L 136.339844 99.980469 L 133.875 100.265625 L 133.875 103.097656 L 135.699219 103.46875 Z M 126.355469 102.957031 L 132.011719 104.03125 L 132.011719 99.1875 L 130.121094 94.417969 L 124.535156 94.875 L 124.535156 97.5625 L 126.355469 98.078125 Z M 117.015625 92.6875 L 117.015625 96.875 L 122.757812 97.125 L 122.757812 94.144531 L 122.605469 90.5625 L 115.195312 89.484375 L 115.195312 92.246094 Z M 107.667969 87.292969 L 107.667969 91.378906 L 113.324219 91.542969 L 113.324219 88.40625 L 110.550781 84.273438 L 105.84375 84.085938 L 105.84375 86.777344 Z M 98.324219 85.390625 L 103.980469 85.992188 L 103.980469 83.015625 L 101.710938 78.414062 L 96.503906 78.699219 L 96.503906 81.277344 L 98.324219 81.902344 Z M 88.984375 80.597656 L 94.640625 81.117188 L 94.640625 77.621094 L 92 73.023438 L 87.160156 73.304688 L 87.160156 75.652344 L 88.984375 76.507812 Z M 79.636719 71.113281 L 79.636719 74.824219 L 85.292969 75.480469 L 85.292969 72.226562 L 81.554688 67.910156 L 77.816406 67.910156 L 77.816406 70.714844 Z M 70.296875 69.757812 L 75.953125 70.316406 L 75.953125 66.832031 L 73.421875 62.515625 L 68.472656 62.515625 L 68.472656 65.011719 L 70.296875 65.722656 Z M 57.261719 56.050781 L 54.546875 52.996094 C 54.546875 52.996094 49.90625 51.679688 49.785156 51.734375 L 49.785156 58.765625 L 57.261719 59.851562 Z M 52.5 65.210938 L 44.929688 58.082031 L 39.46875 57.6875 L 39.46875 60.894531 L 52.496094 68.769531 L 52.496094 65.210938 Z M 61.84375 70.601562 L 56.425781 65.625 L 54.363281 66.289062 L 54.363281 68.972656 L 56.257812 69.535156 L 56.257812 73.480469 L 61.84375 74.191406 Z M 63.8125 74.167969 L 65.605469 74.921875 L 65.605469 77.734375 L 71.1875 79.027344 L 71.1875 75.988281 L 68.476562 72.464844 L 63.710938 71.671875 Z M 80.53125 81.386719 L 79.121094 78.414062 L 73.050781 77.070312 L 73.050781 79.339844 L 74.945312 80.3125 L 74.945312 83.851562 L 80.53125 84.496094 Z M 89.871094 86.78125 L 84.703125 82.179688 L 82.394531 82.464844 L 82.394531 84.832031 L 84.289062 85.707031 L 84.289062 89.292969 L 89.871094 90.230469 Z M 99.214844 92.167969 L 95.277344 87.171875 L 91.734375 87.851562 C 91.734375 87.851562 91.75 90.539062 91.734375 90.582031 C 91.722656 90.621094 93.628906 91.097656 93.628906 91.097656 L 93.628906 94.488281 L 99.214844 96.472656 Z M 108.5625 97.5625 L 103.492188 93.394531 L 101.082031 93.246094 L 101.082031 95.976562 L 102.976562 96.492188 L 102.976562 100.804688 L 108.5625 100.804688 Z M 117.902344 102.957031 L 113.867188 98.640625 L 110.425781 98.640625 L 110.425781 100.9375 L 112.320312 101.882812 L 112.320312 105.773438 L 117.902344 107.558594 Z M 119.765625 106.960938 L 121.660156 107.273438 C 121.660156 107.273438 121.65625 111.242188 121.660156 111.308594 C 121.664062 111.375 127.246094 111.601562 127.246094 111.601562 L 127.246094 108.347656 L 124.023438 104.996094 L 119.765625 104.03125 Z M 136.59375 113.742188 L 134 109.722656 L 129.113281 109.421875 L 129.113281 112.378906 L 131.007812 112.667969 L 131.007812 116.328125 L 136.59375 117.3125 Z M 138.453125 117.546875 L 140.347656 118.0625 C 140.347656 118.0625 140.402344 121.683594 140.347656 121.75 C 140.296875 121.816406 145.933594 122.664062 145.933594 122.664062 L 145.933594 119.132812 L 142.8125 116.308594 L 138.453125 114.816406 Z M 155.277344 124.523438 L 153.34375 121.367188 L 147.796875 120.207031 L 147.796875 122.773438 L 149.691406 123.449219 L 149.777344 126.394531 L 155.277344 127.839844 Z M 157.144531 125.601562 L 157.144531 128.175781 L 159.039062 128.84375 L 159.039062 131.789062 L 164.621094 133.167969 L 164.621094 129.917969 C 164.648438 130.007812 162.808594 127.195312 162.808594 127.195312 Z M 166.46875 130.980469 L 166.46875 133.523438 C 166.46875 133.523438 166.15625 135.0625 166.269531 135.0625 C 166.382812 135.0625 175.894531 138.570312 175.894531 138.570312 L 175.894531 141.246094 L 177.757812 141.246094 L 177.757812 137.492188 L 176.761719 136.109375 Z M 179.621094 142.144531 L 185.238281 143.96875 L 185.238281 150.796875 L 187.101562 151.875 L 187.101562 142.890625 L 179.621094 138.574219 Z M 152.441406 134.800781 L 152.441406 138.335938 L 156.226562 139.132812 L 156.226562 142.015625 L 158.074219 140.773438 L 159.15625 142.910156 C 159.15625 142.910156 165.578125 144.460938 165.570312 144.523438 L 165.570312 147.699219 L 167.433594 146.160156 L 167.433594 143.445312 L 166.949219 141.558594 Z M 143.105469 133.460938 L 150.585938 136.921875 L 150.585938 133.71875 L 150.023438 132.707031 L 143.105469 129.402344 Z M 141.238281 128.328125 L 140.449219 126.851562 L 133.757812 124.011719 L 133.757812 128.089844 L 141.238281 130.675781 Z M 124.417969 118.621094 L 124.417969 123.140625 L 131.894531 125.148438 L 131.894531 122.9375 L 130.683594 121.53125 Z M 122.554688 117.546875 L 122.082031 116.046875 L 115.074219 113.234375 L 115.074219 117.253906 L 122.554688 119.882812 Z M 113.207031 112.152344 L 112.867188 111.21875 L 105.730469 107.835938 L 105.730469 112.363281 L 113.207031 114.507812 Z M 103.867188 106.761719 L 103.523438 105.691406 L 96.382812 102.445312 L 96.382812 106.351562 L 103.859375 109.105469 L 103.859375 106.761719 Z M 94.523438 101.367188 C 94.5 101.292969 94.363281 100.394531 94.363281 100.394531 L 87.042969 97.050781 L 87.042969 101.917969 L 94.523438 103.640625 C 94.523438 103.640625 94.546875 101.445312 94.523438 101.367188 Z M 85.175781 95.976562 L 77.699219 91.65625 L 77.699219 95.835938 L 85.175781 98.40625 Z M 75.835938 90.585938 L 68.355469 86.269531 L 68.355469 90.730469 L 75.835938 92.96875 Z M 66.492188 87.613281 L 66.492188 85.195312 L 59.015625 80.878906 L 59.015625 83.488281 L 59.488281 84.25 Z M 49.667969 75.484375 L 49.667969 79.359375 L 57.148438 82.183594 L 57.148438 79.808594 Z M 47.804688 74.410156 L 29.152344 63.644531 L 29.152344 70.320312 L 47.804688 76.707031 Z M 8.925781 75.320312 L 8.519531 75.554688 L 8.519531 84.535156 L 19.113281 90.648438 L 19.113281 81.664062 L 18.617188 78.890625 Z M 20.972656 91.726562 L 31.5625 97.835938 L 31.5625 88.851562 L 20.972656 82.742188 Z M 33.429688 98.964844 L 44.027344 105.03125 L 44.027344 96.046875 L 33.429688 89.929688 Z M 45.890625 106.101562 L 100.089844 137.378906 L 100.089844 128.394531 L 45.890625 97.117188 Z M 101.953125 138.457031 L 109.433594 142.773438 L 109.433594 133.789062 L 101.953125 129.472656 Z M 111.296875 143.851562 L 118.773438 148.167969 L 118.773438 139.183594 L 111.296875 134.867188 Z M 120.636719 149.238281 L 128.117188 153.558594 L 128.117188 144.574219 L 120.636719 140.257812 Z M 129.984375 154.632812 L 137.460938 158.949219 L 137.460938 149.96875 L 129.984375 145.648438 Z M 139.324219 160.027344 L 146.804688 164.34375 L 146.804688 155.359375 L 139.324219 151.042969 Z M 148.667969 165.417969 L 156.148438 169.734375 L 156.148438 160.75 L 148.667969 156.433594 Z M 39.742188 81.664062 L 18.835938 69.597656 L 18.835938 71.6875 L 39.742188 83.8125 Z M 41.609375 85.191406 L 41.882812 85.046875 L 49.089844 89.207031 L 49.089844 87.058594 L 41.609375 82.742188 Z M 54.34375 92.242188 L 58.433594 94.601562 L 58.433594 92.453125 L 50.957031 88.136719 L 50.960938 90.289062 L 52.480469 91.167969 L 52.480469 93.316406 Z M 67.777344 97.839844 L 60.292969 93.527344 L 60.292969 95.679688 L 67.773438 99.996094 L 67.773438 97.839844 Z M 77.117188 103.234375 L 69.640625 98.917969 L 69.640625 101.066406 L 77.117188 105.386719 Z M 86.28125 110.675781 L 86.28125 108.527344 L 78.980469 104.3125 L 78.980469 106.460938 Z M 95.808594 114.019531 L 88.328125 109.703125 L 88.328125 111.851562 C 88.328125 111.851562 95.6875 116.097656 95.808594 116.167969 C 95.929688 116.238281 95.808594 114.019531 95.808594 114.019531 Z M 105.148438 119.414062 L 97.671875 115.09375 L 97.671875 117.246094 L 105.148438 121.5625 Z M 114.492188 124.804688 L 107.011719 120.488281 L 107.011719 122.640625 L 108.382812 123.441406 L 108.382812 125.761719 L 110.40625 124.59375 L 114.496094 126.957031 L 114.496094 124.804688 Z M 190.910156 121.273438 L 190.910156 125.601562 L 196.527344 126.664062 L 196.527344 129.917969 L 198.390625 130.183594 L 198.390625 125.585938 L 196.191406 121.628906 Z M 123.832031 130.195312 L 116.355469 125.878906 L 116.355469 128.027344 L 117.882812 128.90625 L 117.882812 131.0625 L 119.742188 129.984375 C 119.742188 129.984375 123.730469 132.285156 123.832031 132.34375 C 123.9375 132.40625 123.832031 130.195312 123.832031 130.195312 Z M 133.179688 135.589844 L 125.699219 131.273438 L 125.699219 133.421875 L 127.226562 134.324219 L 127.226562 136.457031 L 129.089844 135.378906 L 133.179688 137.738281 Z M 135.050781 138.820312 L 136.574219 139.699219 C 136.574219 139.699219 136.574219 140.839844 136.574219 141.847656 L 138.4375 140.773438 L 145.914062 145.089844 L 145.914062 147.238281 L 147.777344 146.238281 L 147.777344 144.011719 L 135.050781 136.667969 Z M 149.722656 147.242188 L 155.257812 150.484375 L 155.257812 152.632812 L 157.121094 151.554688 L 157.121094 149.40625 L 149.71875 145.042969 L 149.71875 147.242188 Z M 158.984375 152.632812 L 164.601562 155.871094 L 164.601562 162.703125 L 166.460938 163.777344 L 166.460938 154.796875 L 158.984375 150.476562 Z M 169.304688 144.527344 L 169.304688 147.121094 L 174.921875 149.921875 L 174.960938 156.730469 L 176.824219 157.804688 C 176.785156 157.699219 176.785156 148.847656 176.785156 148.847656 Z M 169.304688 144.527344 " fill-opacity="1" fill-rule="nonzero"/><g clip-path="url(#ba99d4b97b)"><path fill="#9fcdff" d="M 67.585938 50.097656 L 60.105469 45.777344 L 68.558594 40.902344 L 76.039062 45.21875 Z M 76.925781 55.488281 L 85.378906 50.613281 L 77.898438 46.296875 L 69.445312 51.171875 Z M 86.269531 60.882812 L 94.722656 56.003906 L 87.242188 51.6875 L 78.789062 56.566406 Z M 95.613281 66.273438 L 104.066406 61.394531 L 96.589844 57.078125 L 88.136719 61.957031 Z M 104.957031 71.667969 L 113.410156 66.789062 L 105.929688 62.472656 L 97.476562 67.351562 Z M 114.296875 77.0625 L 122.75 72.183594 L 115.273438 67.867188 L 106.820312 72.742188 Z M 123.640625 82.449219 L 132.09375 77.570312 L 124.613281 73.253906 L 116.160156 78.132812 Z M 132.988281 87.84375 L 141.441406 82.964844 L 133.960938 78.648438 L 125.507812 83.527344 Z M 142.328125 93.238281 L 150.78125 88.359375 L 143.304688 84.042969 L 134.851562 88.921875 Z M 151.671875 98.625 L 160.125 93.75 L 152.644531 89.433594 L 144.191406 94.308594 Z M 161.015625 104.019531 L 169.46875 99.144531 L 161.992188 94.824219 L 153.539062 99.703125 Z M 170.359375 109.414062 L 178.8125 104.535156 L 171.332031 100.21875 L 162.878906 105.097656 Z M 179.703125 114.804688 L 188.15625 109.925781 L 180.675781 105.609375 L 172.222656 110.488281 Z M 189.046875 120.199219 L 197.5 115.320312 L 190.023438 111.003906 L 181.570312 115.878906 Z M 198.390625 125.585938 L 206.84375 120.710938 L 199.363281 116.390625 L 190.910156 121.273438 Z M 215.863281 125.917969 L 208.707031 121.789062 L 200.253906 126.667969 L 207.730469 130.984375 L 215.863281 126.285156 C 216.003906 126.207031 216.003906 126 215.863281 125.917969 Z M 65.714844 51.171875 L 58.238281 46.855469 L 49.785156 51.734375 L 57.261719 56.050781 Z M 59.132812 57.128906 L 66.609375 61.445312 L 75.0625 56.566406 L 67.585938 52.25 Z M 68.472656 62.523438 L 75.953125 66.839844 L 84.40625 61.960938 L 76.925781 57.644531 Z M 77.816406 67.910156 L 85.292969 72.226562 L 93.746094 67.351562 L 86.269531 63.03125 Z M 87.160156 73.304688 L 94.640625 77.621094 L 103.09375 72.742188 L 95.613281 68.425781 Z M 96.503906 78.699219 L 103.980469 83.015625 L 112.433594 78.136719 L 104.957031 73.820312 Z M 105.84375 84.085938 L 113.324219 88.40625 L 121.777344 83.527344 L 114.296875 79.210938 Z M 115.191406 89.480469 L 122.671875 93.796875 L 131.125 88.921875 L 123.644531 84.605469 Z M 124.535156 94.875 L 132.011719 99.191406 L 140.464844 94.316406 L 132.988281 89.996094 Z M 133.875 100.265625 L 141.355469 104.582031 L 149.808594 99.703125 L 142.328125 95.386719 Z M 143.21875 105.660156 L 150.695312 109.976562 L 159.148438 105.097656 L 151.671875 100.78125 Z M 152.5625 111.046875 L 160.042969 115.363281 L 168.496094 110.488281 L 161.015625 106.171875 Z M 196.527344 126.664062 L 179.707031 116.953125 L 171.253906 121.832031 L 188.074219 131.542969 Z M 170.359375 111.5625 L 161.90625 116.441406 L 169.386719 120.757812 L 177.839844 115.878906 Z M 189.9375 132.617188 L 197.414062 136.9375 L 205.867188 132.058594 L 198.390625 127.742188 Z M 60.953125 60.332031 L 47.925781 52.8125 L 39.46875 57.6875 L 52.496094 65.210938 Z M 61.84375 70.601562 L 70.296875 65.726562 L 62.816406 61.410156 L 54.363281 66.285156 Z M 63.707031 71.675781 L 71.183594 75.992188 L 79.636719 71.113281 L 72.160156 66.796875 Z M 73.050781 77.070312 L 80.53125 81.386719 L 88.984375 76.507812 L 81.503906 72.191406 Z M 82.394531 82.464844 L 89.871094 86.78125 L 98.324219 81.902344 L 90.847656 77.585938 Z M 91.734375 87.851562 L 99.214844 92.167969 L 107.667969 87.292969 L 100.1875 82.976562 Z M 101.082031 93.246094 L 108.5625 97.5625 L 117.015625 92.6875 L 109.535156 88.367188 Z M 110.425781 98.640625 L 117.902344 102.957031 L 126.355469 98.078125 L 118.878906 93.761719 Z M 119.765625 104.03125 L 127.246094 108.347656 L 135.699219 103.46875 L 128.21875 99.152344 Z M 129.113281 109.421875 L 136.59375 113.742188 L 145.046875 108.863281 L 137.566406 104.546875 Z M 138.453125 114.816406 L 145.933594 119.132812 L 154.386719 114.257812 L 146.90625 109.941406 Z M 163.730469 119.644531 L 156.25 115.328125 L 147.796875 120.207031 L 155.277344 124.523438 Z M 173.074219 125.039062 L 165.597656 120.722656 L 157.144531 125.601562 L 164.621094 129.917969 Z M 186.210938 132.617188 L 174.921875 126.101562 L 166.46875 130.980469 L 177.753906 137.496094 Z M 179.621094 138.574219 L 187.101562 142.890625 L 195.554688 138.011719 L 188.074219 133.695312 Z M 175.890625 138.574219 L 160.890625 129.917969 L 152.441406 134.800781 L 167.4375 143.453125 Z M 169.304688 144.527344 L 176.785156 148.84375 L 185.238281 143.96875 L 177.757812 139.652344 Z M 48.195312 76.785156 L 27.289062 64.71875 L 18.835938 69.597656 L 39.742188 81.664062 Z M 49.089844 87.058594 L 57.542969 82.179688 L 50.0625 77.863281 L 41.609375 82.742188 Z M 66.882812 87.574219 L 59.40625 83.257812 L 50.953125 88.136719 L 58.429688 92.453125 Z M 76.230469 92.964844 L 68.75 88.648438 L 60.296875 93.523438 L 67.777344 97.839844 Z M 85.570312 98.359375 L 78.09375 94.039062 L 69.640625 98.917969 L 77.117188 103.234375 Z M 94.914062 103.75 L 87.433594 99.433594 L 78.980469 104.3125 L 86.460938 108.628906 Z M 104.257812 109.140625 L 96.777344 104.824219 L 88.324219 109.703125 L 95.804688 114.019531 Z M 113.601562 114.535156 L 106.125 110.21875 L 97.671875 115.09375 L 105.148438 119.414062 Z M 122.945312 119.929688 L 115.464844 115.613281 L 107.011719 120.488281 L 114.492188 124.804688 Z M 132.285156 125.316406 L 124.808594 121 L 116.355469 125.878906 L 123.832031 130.195312 Z M 141.632812 130.710938 L 134.152344 126.394531 L 125.699219 131.273438 L 133.179688 135.589844 Z M 156.230469 139.132812 L 143.503906 131.789062 L 135.050781 136.667969 L 147.777344 144.011719 Z M 165.574219 144.527344 L 158.09375 140.210938 L 149.640625 145.089844 L 157.121094 149.40625 Z M 158.984375 150.484375 L 166.460938 154.800781 L 174.914062 149.921875 L 167.4375 145.605469 Z M 54.34375 92.242188 L 45.890625 97.117188 L 100.089844 128.394531 L 108.542969 123.519531 Z M 110.40625 124.59375 L 101.953125 129.472656 L 109.433594 133.789062 L 117.886719 128.914062 Z M 119.75 129.988281 L 111.296875 134.867188 L 118.773438 139.183594 L 127.226562 134.304688 Z M 129.089844 135.382812 L 120.636719 140.261719 L 128.117188 144.578125 L 136.570312 139.699219 Z M 138.433594 140.773438 L 129.980469 145.648438 L 137.457031 149.96875 L 145.910156 145.089844 Z M 147.777344 146.167969 L 139.324219 151.042969 L 146.804688 155.359375 L 155.257812 150.484375 Z M 148.667969 156.4375 L 156.148438 160.753906 L 164.601562 155.875 L 157.121094 151.558594 Z M 56.257812 69.53125 L 37.605469 58.765625 L 29.152344 63.644531 L 47.804688 74.410156 Z M 57.148438 79.800781 L 65.601562 74.925781 L 58.121094 70.609375 L 49.667969 75.484375 Z M 66.492188 85.191406 L 74.945312 80.3125 L 67.46875 75.996094 L 59.015625 80.875 Z M 84.289062 85.707031 L 76.808594 81.390625 L 68.355469 86.269531 L 75.835938 90.585938 Z M 93.628906 91.097656 L 86.152344 86.78125 L 77.699219 91.65625 L 85.175781 95.976562 Z M 102.976562 96.492188 L 95.496094 92.175781 L 87.042969 97.050781 L 94.523438 101.367188 Z M 112.320312 101.882812 L 104.839844 97.566406 L 96.386719 102.445312 L 103.867188 106.761719 Z M 121.660156 107.273438 L 114.183594 102.957031 L 105.730469 107.835938 L 113.207031 112.152344 Z M 131.007812 112.667969 L 123.527344 108.351562 L 115.074219 113.230469 L 122.554688 117.546875 Z M 140.347656 118.0625 L 132.871094 113.746094 L 124.417969 118.621094 L 131.894531 122.9375 Z M 149.691406 123.449219 L 142.210938 119.132812 L 133.757812 124.011719 L 141.238281 128.328125 Z M 159.039062 128.84375 L 151.558594 124.527344 L 143.105469 129.40625 L 150.585938 133.722656 Z M 16.96875 70.675781 L 8.925781 75.320312 C 8.746094 75.421875 8.746094 75.683594 8.925781 75.785156 L 19.109375 81.664062 L 27.5625 76.785156 Z M 29.421875 77.863281 L 20.972656 82.742188 L 31.5625 88.851562 L 40.015625 83.976562 Z M 41.882812 85.050781 L 33.429688 89.929688 L 44.027344 96.046875 L 52.484375 91.167969 Z M 41.882812 85.050781 " fill-opacity="1" fill-rule="nonzero"/></g><g clip-path="url(#5e1ef0f2ec)"><path fill="#1c0140" d="M 223.933594 135.691406 L 216.859375 131.609375 L 216.859375 125.71875 L 216.203125 125.335938 L 208.710938 121.011719 L 207.515625 121.699219 L 207.515625 120.324219 L 206.628906 119.8125 L 199.367188 115.621094 L 198.175781 116.3125 L 198.175781 114.933594 L 197.339844 114.449219 L 190.027344 110.230469 L 188.832031 110.921875 L 188.832031 109.542969 L 188.007812 109.070312 L 180.683594 104.84375 L 179.492188 105.53125 L 179.492188 104.15625 L 178.460938 103.5625 L 171.34375 99.453125 L 170.148438 100.144531 L 170.148438 98.765625 L 169.253906 98.25 L 161.996094 94.0625 L 160.800781 94.753906 L 160.800781 93.375 L 159.8125 92.808594 L 152.652344 88.675781 L 151.460938 89.363281 L 151.460938 87.988281 L 150.546875 87.460938 L 143.3125 83.285156 L 142.117188 83.976562 L 142.117188 82.578125 L 141.191406 82.046875 L 133.96875 77.878906 L 132.777344 78.566406 L 132.777344 77.023438 L 132.238281 76.917969 C 132.214844 76.914062 132.183594 76.902344 132.15625 76.894531 C 132.085938 76.8125 132.003906 76.738281 131.90625 76.683594 L 124.628906 72.484375 L 123.433594 73.175781 L 123.433594 71.796875 L 122.402344 71.199219 L 115.285156 67.09375 L 114.109375 67.773438 C 114.101562 67.265625 114.09375 66.777344 114.09375 66.777344 L 114.082031 66.398438 L 113.238281 65.914062 L 105.941406 61.699219 L 104.746094 62.390625 L 104.746094 61.398438 L 104.335938 61.398438 C 104.335938 61.019531 104.128906 60.660156 103.796875 60.464844 L 96.597656 56.3125 L 95.398438 57.003906 C 95.402344 56.71875 95.402344 56.390625 95.402344 56.003906 L 95.402344 55.621094 L 94.550781 55.128906 L 87.25 50.917969 L 86.058594 51.609375 L 86.058594 50.226562 L 85.109375 49.679688 L 77.910156 45.523438 L 76.714844 46.214844 L 76.714844 44.835938 L 75.820312 44.320312 L 68.558594 40.128906 L 60.386719 44.847656 L 59.4375 45.394531 L 59.4375 46.769531 L 58.242188 46.078125 L 49.824219 50.933594 L 49.117188 51.347656 L 49.117188 52.726562 L 47.921875 52.035156 L 39.53125 56.882812 L 38.792969 57.300781 L 38.792969 58.679688 L 37.601562 57.988281 L 29.273438 62.800781 L 28.484375 63.257812 L 28.484375 64.636719 L 27.289062 63.945312 L 18.816406 68.835938 L 18.164062 69.210938 L 18.164062 70.589844 L 16.96875 69.898438 L 8.585938 74.734375 L 7.847656 75.164062 L 7.847656 81.277344 L 1.171875 85.128906 L 0.121094 85.738281 L 0.121094 94.773438 L 155.816406 184.621094 L 156.152344 184.816406 L 224.441406 145.402344 L 224.777344 145.210938 L 224.777344 136.175781 Z M 9.1875 76.710938 L 18.441406 82.050781 L 18.441406 89.484375 L 9.1875 84.144531 Z M 19.777344 82.828125 L 20.304688 83.128906 L 20.304688 90.5625 L 19.777344 90.261719 Z M 21.640625 83.898438 L 30.894531 89.238281 L 30.894531 96.675781 L 21.640625 91.335938 Z M 197.722656 125.976562 L 197.722656 127.355469 L 197.195312 127.65625 L 197.195312 126.277344 L 196.171875 125.6875 L 191.578125 123.039062 L 191.578125 122.433594 Z M 207.0625 131.972656 L 206.539062 131.671875 L 206.390625 131.585938 L 200.921875 128.433594 L 200.921875 127.828125 L 207.0625 131.371094 Z M 187.101562 142.117188 L 180.957031 138.574219 L 188.074219 134.46875 L 194.210938 138.007812 Z M 176.785156 148.070312 L 170.640625 144.523438 L 177.757812 140.417969 L 183.898438 143.960938 Z M 166.460938 154.023438 L 160.320312 150.476562 L 167.433594 146.371094 L 173.574219 149.917969 Z M 156.148438 159.976562 L 150.003906 156.433594 L 157.117188 152.328125 L 163.257812 155.871094 Z M 147.472656 156.351562 L 147.472656 155.746094 L 154.585938 151.640625 L 154.585938 152.246094 Z M 138.132812 150.957031 C 138.132812 150.714844 138.132812 150.515625 138.132812 150.351562 L 145.242188 146.246094 L 145.242188 146.851562 Z M 128.785156 145.570312 L 128.785156 144.964844 L 135.902344 140.859375 L 135.902344 141.464844 Z M 119.441406 140.175781 L 119.441406 139.570312 L 126.558594 135.464844 L 126.558594 136.070312 Z M 110.101562 134.78125 L 110.101562 134.175781 L 117.214844 130.070312 L 117.214844 130.675781 Z M 100.757812 129.390625 L 100.757812 128.785156 L 107.875 124.679688 L 107.875 125.285156 Z M 44.699219 97.039062 L 44.699219 96.433594 L 51.808594 92.328125 L 51.808594 92.933594 Z M 40.941406 84.21875 L 40.941406 84.824219 L 40.6875 84.96875 L 40.6875 84.363281 Z M 48.417969 87.445312 L 48.417969 88.050781 L 42.277344 84.503906 L 42.277344 83.898438 Z M 49 77.097656 C 49 77.320312 49 77.535156 49 77.707031 L 48.863281 77.78125 L 48.863281 77.171875 Z M 56.476562 80.1875 L 56.476562 80.792969 L 50.335938 77.25 C 50.335938 77.054688 50.335938 76.84375 50.335938 76.644531 Z M 56.128906 68.679688 L 55.035156 68.050781 L 55.035156 67.445312 L 61.179688 70.988281 L 61.179688 71.59375 L 58.125 69.835938 L 56.929688 70.527344 L 56.929688 69.148438 Z M 60.847656 59.496094 L 59.796875 58.890625 L 59.796875 58.285156 L 65.9375 61.832031 C 65.9375 62 65.9375 62.214844 65.9375 62.4375 L 62.816406 60.632812 L 61.621094 61.324219 L 61.621094 59.945312 Z M 76.925781 58.414062 L 83.066406 61.960938 L 75.957031 66.066406 L 69.816406 62.523438 Z M 86.269531 63.804688 L 92.410156 67.351562 L 85.296875 71.457031 L 79.15625 67.910156 Z M 95.613281 69.199219 L 101.753906 72.742188 L 94.644531 76.851562 L 88.503906 73.304688 Z M 102.421875 73.902344 L 102.421875 74.507812 L 95.304688 78.613281 L 95.304688 78.007812 Z M 104.957031 74.59375 L 111.097656 78.136719 L 103.980469 82.242188 L 97.839844 78.699219 Z M 114.296875 79.980469 L 120.441406 83.527344 L 113.328125 87.632812 L 107.1875 84.09375 Z M 123.640625 85.375 L 129.78125 88.921875 L 122.667969 93.027344 L 116.523438 89.480469 Z M 132.988281 90.769531 L 139.125 94.316406 L 132.011719 98.421875 L 125.871094 94.875 Z M 142.328125 96.160156 L 148.464844 99.703125 L 141.355469 103.808594 L 135.214844 100.265625 Z M 151.671875 101.550781 L 157.8125 105.097656 L 150.695312 109.203125 L 144.554688 105.660156 Z M 161.015625 106.945312 L 167.152344 110.492188 L 160.042969 114.597656 L 153.902344 111.050781 Z M 170.359375 112.335938 L 176.5 115.878906 L 169.386719 119.988281 L 163.242188 116.441406 Z M 177.167969 117.039062 L 177.167969 117.644531 L 170.09375 121.726562 L 170.070312 121.136719 Z M 187.40625 133.308594 L 186.878906 133.609375 L 186.878906 132.234375 L 185.699219 131.550781 L 174.925781 125.332031 L 173.75 126.007812 L 173.75 124.648438 L 172.527344 123.945312 L 171.921875 123.59375 L 171.921875 122.988281 L 187.40625 131.921875 Z M 176.59375 139.546875 L 176.550781 138.179688 L 175.515625 137.582031 L 167.1875 132.769531 L 167.171875 132.15625 L 177.089844 137.882812 L 177.089844 139.261719 Z M 165.234375 143.558594 L 158.09375 139.441406 L 156.929688 140.113281 L 156.886719 138.742188 L 155.96875 138.214844 L 153.113281 136.566406 L 153.113281 135.960938 L 166.761719 143.839844 L 166.761719 145.21875 L 166.238281 145.519531 L 166.238281 144.140625 Z M 154.9375 149.527344 L 150.28125 146.839844 C 150.273438 146.710938 150.273438 146.492188 150.28125 146.234375 L 156.453125 149.796875 L 156.453125 151.175781 L 155.925781 151.476562 L 155.925781 150.097656 Z M 145.597656 144.132812 L 138.433594 140 L 137.238281 140.691406 L 137.238281 139.3125 L 136.40625 138.832031 L 135.714844 138.433594 L 135.714844 137.828125 L 147.105469 144.402344 L 147.105469 145.78125 L 146.582031 146.082031 L 146.582031 144.703125 Z M 128.566406 134.304688 L 126.371094 133.035156 L 126.371094 132.429688 L 132.511719 135.976562 L 132.511719 136.582031 L 129.09375 134.605469 L 127.902344 135.296875 L 127.902344 134.691406 Z M 117.859375 128.121094 L 117.027344 127.640625 L 117.027344 127.035156 L 123.167969 130.582031 L 123.167969 131.1875 L 119.753906 129.210938 L 118.558594 129.902344 L 118.558594 128.527344 Z M 108.402344 122.671875 L 107.679688 122.253906 L 107.679688 121.648438 L 113.824219 125.191406 L 113.824219 125.796875 L 110.40625 123.824219 L 109.210938 124.515625 L 109.210938 123.136719 Z M 53.820312 91.167969 L 51.632812 89.90625 L 51.628906 89.300781 L 57.761719 92.84375 L 57.761719 93.449219 L 54.675781 91.671875 L 54.339844 91.476562 L 53.148438 92.167969 L 53.148438 91.5625 Z M 67.277344 62.601562 L 67.804688 62.902344 L 67.804688 63.507812 L 67.277344 63.207031 C 67.277344 63.03125 67.277344 62.820312 67.277344 62.601562 Z M 165.296875 130.886719 L 165.292969 130.304688 L 172.402344 126.199219 L 172.402344 126.785156 Z M 155.59375 140.273438 L 155.613281 140.871094 L 148.449219 145.003906 L 148.449219 144.398438 Z M 147.777344 143.242188 L 136.390625 136.667969 L 143.503906 132.558594 L 154.894531 139.132812 Z M 133.847656 136.589844 L 133.847656 135.980469 L 142.433594 131.027344 L 142.433594 131.636719 Z M 124.507812 131.1875 L 124.507812 130.582031 L 133.089844 125.628906 L 133.089844 126.234375 Z M 115.160156 125.796875 L 115.160156 125.191406 L 123.742188 120.238281 L 123.742188 120.84375 Z M 105.820312 120.402344 L 105.820312 119.796875 L 114.402344 114.84375 L 114.402344 115.449219 Z M 96.480469 115.011719 L 96.480469 114.40625 L 105.058594 109.453125 L 105.058594 110.0625 Z M 87.128906 109.621094 L 87.128906 109.015625 L 95.714844 104.0625 L 95.714844 104.667969 Z M 77.789062 104.226562 L 77.789062 103.621094 L 86.371094 98.667969 L 86.371094 99.273438 Z M 68.445312 98.832031 L 68.445312 98.226562 L 77.027344 93.273438 L 77.027344 93.878906 Z M 59.097656 93.445312 L 59.097656 92.839844 L 66.210938 88.730469 L 66.210938 89.339844 Z M 58.339844 82.492188 L 58.339844 83.097656 L 58.210938 83.171875 L 58.210938 82.566406 Z M 65.824219 85.578125 L 65.824219 86.183594 L 59.683594 82.636719 L 59.683594 82.03125 Z M 65.367188 74.011719 L 64.375 73.445312 L 64.375 72.839844 L 70.515625 76.382812 C 70.515625 76.558594 70.515625 76.769531 70.515625 76.988281 L 67.460938 75.230469 L 66.269531 75.921875 L 66.269531 74.542969 Z M 72.160156 67.574219 L 78.300781 71.121094 L 71.183594 75.222656 L 65.042969 71.675781 Z M 78.96875 72.277344 L 78.96875 72.882812 L 71.851562 76.988281 C 71.851562 76.808594 71.851562 76.605469 71.851562 76.382812 Z M 87.640625 76.507812 L 80.53125 80.613281 L 74.390625 77.070312 L 81.503906 72.964844 Z M 96.988281 81.898438 L 89.878906 86.003906 L 83.734375 82.457031 L 90.847656 78.351562 Z M 106.332031 87.292969 L 99.214844 91.398438 L 93.074219 87.851562 L 100.183594 83.746094 Z M 115.671875 92.6875 L 108.558594 96.792969 L 102.414062 93.246094 L 109.53125 89.140625 Z M 125.019531 98.074219 L 117.902344 102.179688 L 111.761719 98.636719 L 118.878906 94.53125 Z M 134.359375 103.46875 L 127.246094 107.574219 L 121.105469 104.03125 L 128.21875 99.921875 Z M 143.703125 108.863281 L 136.59375 112.96875 L 130.449219 109.421875 L 137.5625 105.316406 Z M 153.050781 114.25 L 145.933594 118.359375 L 139.792969 114.816406 L 146.902344 110.710938 Z M 162.390625 119.644531 L 155.28125 123.75 L 149.140625 120.207031 L 156.25 116.101562 Z M 171.734375 125.039062 L 164.621094 129.144531 L 158.480469 125.601562 L 165.597656 121.496094 Z M 155.949219 125.515625 L 155.949219 124.910156 L 163.058594 120.804688 L 163.058594 121.410156 Z M 143.773438 131.171875 L 143.773438 130.566406 L 149.914062 134.113281 L 149.914062 134.71875 Z M 71.851562 77.15625 L 72.378906 77.460938 L 72.378906 78.066406 L 71.84375 77.757812 C 71.847656 77.589844 71.851562 77.394531 71.851562 77.15625 Z M 154.605469 125.515625 L 151.554688 123.757812 L 150.386719 124.429688 L 150.347656 123.0625 L 149.425781 122.53125 L 148.460938 121.976562 L 148.460938 121.367188 L 154.601562 124.914062 L 154.601562 125.515625 Z M 141.910156 129.320312 L 141.910156 128.714844 L 149.058594 124.589844 L 149.078125 125.1875 Z M 132.566406 123.929688 L 132.566406 123.324219 L 139.6875 119.214844 L 139.695312 119.816406 Z M 123.222656 118.539062 L 123.222656 117.929688 L 130.332031 113.824219 L 130.332031 114.429688 Z M 113.882812 113.148438 L 113.882812 112.542969 L 120.996094 108.4375 L 120.996094 109.042969 Z M 104.535156 107.753906 L 104.535156 107.148438 L 111.644531 103.042969 L 111.644531 103.648438 Z M 95.195312 102.359375 C 95.195312 102.140625 95.195312 101.929688 95.195312 101.753906 L 102.308594 97.652344 L 102.308594 98.257812 Z M 85.851562 96.972656 L 85.851562 96.367188 L 92.964844 92.257812 L 92.964844 92.863281 Z M 76.503906 91.578125 L 76.503906 90.972656 L 83.613281 86.867188 L 83.613281 87.472656 Z M 76.808594 82.164062 L 82.949219 85.703125 L 75.839844 89.808594 L 69.699219 86.265625 Z M 86.152344 87.554688 L 92.292969 91.101562 L 85.183594 95.207031 L 79.039062 91.664062 Z M 95.496094 92.945312 L 101.640625 96.492188 L 94.523438 100.597656 L 88.382812 97.050781 Z M 104.839844 98.339844 L 108.011719 100.171875 C 108.082031 100.25 108.175781 100.304688 108.308594 100.339844 L 110.976562 101.878906 L 103.867188 105.984375 L 97.722656 102.445312 Z M 114.183594 103.734375 L 120.324219 107.277344 L 113.207031 111.382812 L 107.066406 107.839844 Z M 123.527344 109.121094 L 129.664062 112.667969 L 122.554688 116.773438 L 116.414062 113.230469 Z M 132.871094 114.515625 L 139.011719 118.0625 L 131.902344 122.167969 L 125.757812 118.621094 Z M 142.210938 119.910156 L 148.351562 123.457031 L 141.238281 127.5625 L 135.097656 124.015625 Z M 147.128906 121.199219 L 146.601562 120.898438 L 146.601562 120.292969 L 147.128906 120.59375 Z M 145.265625 120.121094 L 142.210938 118.363281 L 141.027344 119.042969 L 141.011719 117.671875 L 139.917969 117.039062 L 139.125 116.582031 L 139.125 115.976562 L 145.265625 119.519531 Z M 137.785156 115.808594 L 137.261719 115.507812 L 137.261719 114.902344 L 137.785156 115.203125 Z M 135.917969 114.730469 L 132.867188 112.972656 L 131.671875 113.664062 L 131.671875 112.285156 L 130.707031 111.730469 L 129.777344 111.191406 L 129.777344 110.582031 L 135.917969 114.125 Z M 128.4375 110.414062 L 127.914062 110.113281 L 127.914062 109.507812 L 128.4375 109.808594 Z M 126.578125 109.339844 L 123.523438 107.578125 L 122.328125 108.269531 L 122.328125 106.894531 L 121.222656 106.253906 L 120.433594 105.800781 L 120.433594 105.195312 L 126.578125 108.742188 Z M 119.097656 105.019531 L 118.496094 104.675781 L 118.523438 104.089844 L 119.097656 104.421875 Z M 117.191406 103.921875 L 114.183594 102.183594 L 112.988281 102.875 L 112.988281 101.5 L 112.019531 100.9375 L 111.078125 100.394531 L 111.085938 99.792969 L 117.214844 103.335938 Z M 109.746094 99.625 L 109.199219 99.308594 C 109.199219 99.148438 109.203125 98.941406 109.207031 98.707031 L 109.75 99.023438 Z M 107.871094 98.542969 L 104.839844 96.792969 L 103.644531 97.484375 L 103.644531 96.105469 L 102.710938 95.566406 L 101.75 95.015625 L 101.75 94.410156 L 107.882812 97.945312 C 107.878906 98.117188 107.875 98.328125 107.871094 98.542969 Z M 100.410156 94.238281 L 99.882812 93.9375 L 99.882812 93.332031 L 100.410156 93.632812 Z M 98.546875 92.558594 L 98.546875 93.164062 L 95.492188 91.40625 L 94.300781 92.097656 L 94.300781 90.71875 L 93.296875 90.140625 L 92.40625 89.625 L 92.40625 89.019531 Z M 91.066406 88.84375 L 90.542969 88.542969 L 90.542969 87.9375 L 91.066406 88.238281 Z M 89.203125 87.765625 L 86.152344 86.007812 L 84.957031 86.699219 L 84.957031 85.320312 L 84.175781 84.875 L 83.0625 84.230469 L 83.0625 83.625 L 89.203125 87.171875 Z M 81.726562 83.457031 L 81.199219 83.15625 L 81.199219 82.546875 L 81.726562 82.847656 Z M 79.863281 82.378906 L 76.808594 80.617188 L 75.613281 81.308594 L 75.613281 79.933594 L 74.675781 79.390625 L 73.722656 78.835938 L 73.722656 78.230469 L 79.863281 81.777344 Z M 74.273438 81.476562 L 74.273438 82.082031 L 67.160156 86.1875 L 67.160156 85.582031 Z M 67.160156 86.355469 L 67.6875 86.65625 L 67.6875 87.261719 L 67.160156 86.960938 Z M 67.6875 87.882812 L 67.6875 88.488281 L 67.558594 88.566406 L 67.558594 87.960938 Z M 69.023438 87.425781 L 75.167969 90.972656 L 75.167969 91.578125 L 69.023438 88.03125 Z M 76.503906 91.742188 L 77.027344 92.042969 L 77.027344 92.648438 L 76.503906 92.347656 Z M 78.371094 92.820312 L 84.511719 96.367188 L 84.511719 96.972656 L 78.371094 93.425781 Z M 85.851562 97.136719 L 86.375 97.4375 L 86.375 98.042969 L 85.851562 97.742188 Z M 87.714844 98.214844 L 93.855469 101.757812 C 93.855469 101.925781 93.855469 102.136719 93.855469 102.363281 L 87.714844 98.820312 Z M 95.195312 102.53125 L 95.71875 102.832031 L 95.71875 103.4375 L 95.191406 103.136719 C 95.191406 102.957031 95.191406 102.746094 95.195312 102.53125 Z M 97.054688 103.601562 L 103.195312 107.148438 L 103.195312 107.753906 L 97.054688 104.210938 Z M 104.535156 107.921875 L 105.058594 108.222656 L 105.058594 108.828125 L 104.535156 108.527344 Z M 106.398438 108.996094 L 112.539062 112.542969 L 112.539062 113.148438 L 106.398438 109.601562 Z M 113.882812 113.3125 L 114.40625 113.613281 L 114.40625 114.21875 L 113.882812 113.917969 Z M 115.742188 114.390625 L 121.886719 117.9375 L 121.886719 118.542969 L 115.742188 114.996094 Z M 123.222656 118.707031 L 123.75 119.007812 L 123.75 119.613281 L 123.222656 119.3125 Z M 125.085938 119.78125 L 131.226562 123.324219 L 131.226562 123.929688 L 125.085938 120.386719 Z M 132.566406 124.097656 L 133.089844 124.398438 L 133.089844 125.003906 L 132.566406 124.703125 Z M 134.429688 125.175781 L 140.570312 128.71875 L 140.570312 129.324219 L 134.429688 125.78125 Z M 141.910156 129.492188 L 142.4375 129.792969 L 142.4375 130.398438 L 141.910156 130.097656 Z M 150.585938 132.949219 L 144.445312 129.40625 L 151.558594 125.300781 L 157.695312 128.84375 Z M 155.949219 126.285156 L 155.949219 125.679688 L 156.46875 125.980469 L 156.464844 126.582031 Z M 146.601562 120.125 L 146.601562 119.519531 L 153.714844 115.414062 L 153.714844 116.019531 Z M 144.371094 110.019531 L 144.371094 110.625 L 137.261719 114.730469 L 137.261719 114.125 Z M 135.039062 104.625 L 135.042969 105.226562 L 127.917969 109.339844 L 127.917969 108.734375 Z M 118.527344 103.972656 L 118.554688 103.351562 L 125.683594 99.238281 L 125.683594 99.84375 Z M 116.339844 93.84375 L 116.339844 94.449219 L 109.207031 98.570312 C 109.210938 98.375 109.214844 98.164062 109.222656 97.957031 Z M 106.964844 88.472656 L 106.945312 89.085938 L 99.882812 93.160156 L 99.882812 92.554688 Z M 97.65625 83.058594 L 97.65625 83.664062 L 90.546875 87.773438 L 90.546875 87.167969 Z M 88.3125 77.667969 L 88.3125 78.273438 L 81.199219 82.378906 L 81.199219 81.773438 Z M 67.46875 76.769531 L 73.609375 80.3125 L 66.496094 84.417969 L 60.355469 80.875 Z M 59.40625 84.03125 L 65.546875 87.574219 L 58.433594 91.679688 L 52.292969 88.136719 Z M 68.746094 89.421875 L 74.886719 92.96875 L 67.777344 97.074219 L 61.636719 93.527344 Z M 78.09375 94.8125 L 84.234375 98.359375 L 77.117188 102.464844 L 70.976562 98.917969 Z M 87.433594 100.207031 L 93.578125 103.75 L 86.464844 107.855469 L 80.324219 104.3125 Z M 96.777344 105.601562 L 102.917969 109.144531 L 95.808594 113.25 L 89.667969 109.707031 Z M 106.125 110.988281 L 112.265625 114.535156 L 105.148438 118.640625 L 99.007812 115.09375 Z M 115.464844 116.382812 L 121.605469 119.929688 L 114.492188 124.035156 L 108.351562 120.488281 Z M 124.808594 121.777344 L 130.949219 125.320312 L 123.832031 129.429688 L 117.691406 125.882812 Z M 134.152344 127.167969 L 140.296875 130.710938 L 133.179688 134.816406 L 127.039062 131.273438 Z M 151.253906 135.492188 L 151.253906 134.886719 L 151.773438 135.183594 L 151.773438 135.792969 Z M 151.253906 134.714844 L 151.253906 134.109375 L 158.375 130 L 158.378906 130.59375 Z M 159.710938 129.824219 L 159.703125 128.453125 L 158.8125 127.941406 L 157.792969 127.355469 L 157.796875 126.753906 L 163.949219 130.304688 L 163.953125 130.910156 L 160.886719 129.140625 Z M 165.300781 131.683594 L 165.296875 131.078125 L 165.808594 131.375 L 165.820312 131.992188 Z M 170.125 122.5625 L 170.105469 121.941406 L 170.582031 122.222656 L 170.582031 122.828125 Z M 168.730469 121.152344 L 168.753906 121.773438 L 165.59375 119.949219 L 164.398438 120.640625 L 164.398438 119.265625 L 163.242188 118.59375 L 162.574219 118.210938 L 162.574219 117.605469 Z M 161.238281 117.433594 L 160.710938 117.132812 L 160.710938 116.527344 L 161.238281 116.828125 Z M 159.375 116.355469 L 156.253906 114.550781 L 155.058594 115.242188 L 155.058594 113.867188 L 153.90625 113.199219 L 153.238281 112.8125 C 153.238281 112.636719 153.238281 112.425781 153.238281 112.207031 L 159.378906 115.75 L 159.378906 116.355469 Z M 151.894531 111.4375 C 151.894531 111.613281 151.894531 111.824219 151.894531 112.042969 L 151.371094 111.742188 L 151.371094 111.136719 Z M 150.027344 110.96875 L 146.90625 109.164062 L 145.714844 109.855469 L 145.714844 108.476562 L 144.621094 107.847656 L 143.890625 107.425781 L 143.890625 106.820312 L 150.03125 110.367188 L 150.03125 110.96875 Z M 142.550781 106.648438 L 142.023438 106.351562 L 142.023438 105.742188 L 142.550781 106.042969 Z M 140.6875 105.574219 L 137.566406 103.769531 L 136.375 104.457031 L 136.367188 103.078125 L 135.277344 102.449219 L 134.542969 102.027344 L 134.542969 101.421875 L 140.6875 104.96875 Z M 133.207031 101.257812 L 132.683594 100.957031 L 132.683594 100.351562 L 133.207031 100.652344 Z M 131.34375 100.179688 L 128.222656 98.375 L 127.03125 99.066406 L 127.03125 97.6875 L 125.808594 96.984375 L 125.207031 96.640625 L 125.207031 96.03125 L 131.347656 99.578125 L 131.347656 100.179688 Z M 123.863281 95.867188 L 123.339844 95.566406 L 123.339844 94.960938 L 123.863281 95.261719 Z M 121.996094 94.789062 L 118.878906 92.984375 L 117.683594 93.675781 L 117.683594 92.300781 L 116.605469 91.679688 L 115.859375 91.25 L 115.859375 90.644531 L 122 94.1875 L 122 94.789062 Z M 114.519531 90.472656 L 113.992188 90.171875 L 113.992188 89.566406 L 114.519531 89.867188 Z M 112.65625 89.394531 L 109.535156 87.59375 L 108.308594 88.300781 L 108.355469 86.71875 L 107.328125 86.316406 L 106.535156 85.859375 L 106.53125 85.253906 L 112.660156 88.789062 L 112.660156 89.394531 Z M 105.179688 84.476562 L 105.183594 85.085938 L 104.652344 84.773438 L 104.652344 84.167969 Z M 103.3125 84.003906 L 100.195312 82.199219 L 99 82.890625 L 99 81.511719 L 98.109375 81 L 97.175781 80.460938 L 97.175781 79.855469 L 103.316406 83.402344 L 103.316406 84.003906 Z M 95.835938 79.691406 L 95.308594 79.390625 L 95.308594 78.785156 L 95.835938 79.085938 Z M 93.96875 78.613281 L 90.847656 76.808594 L 89.652344 77.5 L 89.652344 76.121094 L 88.679688 75.558594 L 87.832031 75.066406 L 87.832031 74.460938 L 93.972656 78.007812 L 93.972656 78.613281 Z M 86.488281 74.296875 L 85.960938 73.996094 L 85.960938 73.390625 L 86.488281 73.691406 Z M 84.625 73.21875 L 81.503906 71.414062 L 80.3125 72.105469 L 80.3125 71.15625 C 80.347656 70.5625 79.703125 70.296875 79.320312 70.15625 L 78.488281 69.675781 L 78.488281 69.070312 L 84.628906 72.613281 L 84.628906 73.21875 Z M 77.144531 68.296875 L 77.144531 68.902344 L 76.621094 68.601562 L 76.621094 67.996094 Z M 75.28125 67.824219 L 72.164062 66.023438 L 70.96875 66.710938 L 70.96875 65.335938 L 70.097656 64.832031 L 69.144531 64.285156 L 69.144531 63.679688 L 75.289062 67.222656 L 75.289062 67.824219 Z M 69.625 66.882812 L 69.625 67.488281 L 62.515625 71.59375 L 62.515625 70.988281 Z M 62.511719 72.367188 L 62.511719 71.761719 L 63.035156 72.0625 L 63.035156 72.667969 Z M 64.929688 76.082031 L 64.929688 76.6875 L 57.816406 80.792969 L 57.816406 80.1875 Z M 57.820312 80.960938 L 58.34375 81.261719 L 58.34375 81.867188 L 57.820312 81.566406 Z M 56.871094 83.339844 L 56.871094 83.945312 L 49.761719 88.050781 L 49.761719 87.445312 Z M 49.757812 88.21875 L 50.28125 88.527344 L 50.289062 89.132812 L 49.757812 88.828125 Z M 59.097656 93.609375 L 59.625 93.910156 L 59.625 94.515625 L 59.097656 94.214844 Z M 60.96875 94.6875 L 67.109375 98.230469 L 67.109375 98.835938 L 60.96875 95.292969 Z M 68.445312 99.003906 L 68.972656 99.304688 L 68.972656 99.910156 L 68.445312 99.609375 Z M 70.308594 100.082031 L 76.449219 103.625 L 76.449219 104.230469 L 70.308594 100.6875 Z M 77.789062 104.398438 L 78.3125 104.699219 L 78.3125 105.304688 L 77.789062 105.003906 Z M 79.652344 105.46875 L 85.792969 109.015625 L 85.792969 109.621094 L 79.652344 106.074219 Z M 87.128906 109.785156 L 87.65625 110.085938 L 87.65625 110.695312 L 87.128906 110.394531 Z M 88.996094 110.863281 L 95.144531 114.410156 L 95.144531 115.015625 L 88.996094 111.46875 Z M 96.480469 115.183594 L 96.996094 115.484375 L 96.996094 116.089844 L 96.480469 115.792969 Z M 98.339844 116.257812 L 104.480469 119.804688 L 104.480469 120.410156 L 98.339844 116.863281 Z M 105.820312 120.574219 L 106.34375 120.875 L 106.34375 121.480469 L 105.820312 121.179688 Z M 115.160156 125.964844 L 115.6875 126.265625 L 115.6875 126.871094 L 115.160156 126.570312 Z M 124.507812 131.359375 L 125.03125 131.660156 L 125.03125 132.265625 L 124.507812 131.964844 Z M 133.847656 136.746094 L 134.378906 137.050781 L 134.378906 137.65625 L 133.847656 137.351562 Z M 148.449219 145.175781 L 148.953125 145.46875 C 148.945312 145.691406 148.941406 145.886719 148.9375 146.0625 L 148.449219 145.78125 Z M 149.808594 146.566406 L 149.847656 146.441406 C 150.066406 146.515625 150.195312 146.683594 150.253906 146.820312 Z M 157.121094 148.632812 L 150.980469 145.089844 L 158.09375 140.984375 L 164.234375 144.527344 Z M 167.4375 142.679688 L 153.78125 134.800781 L 160.886719 130.6875 L 174.546875 138.574219 Z M 177.757812 136.726562 L 167.808594 130.984375 L 174.921875 126.878906 L 184.867188 132.617188 Z M 167.828125 111.648438 L 167.828125 112.253906 L 160.710938 116.359375 L 160.710938 115.753906 Z M 158.480469 106.253906 L 158.480469 106.859375 L 151.367188 110.96875 L 151.367188 110.363281 Z M 149.140625 100.863281 L 149.140625 101.46875 L 142.023438 105.574219 L 142.023438 104.96875 Z M 139.796875 95.472656 L 139.796875 96.078125 L 132.683594 100.183594 L 132.683594 99.578125 Z M 130.4375 90.085938 L 130.429688 90.699219 L 123.335938 94.789062 L 123.335938 94.183594 Z M 121.109375 84.6875 L 121.109375 85.292969 L 113.996094 89.402344 L 113.996094 88.796875 Z M 111.769531 79.289062 L 111.777344 79.890625 L 104.652344 84.003906 L 104.652344 83.398438 Z M 93.078125 68.511719 L 93.078125 69.117188 L 85.96875 73.222656 L 85.96875 72.617188 Z M 83.742188 63.113281 C 83.742188 63.332031 83.746094 63.550781 83.746094 63.714844 L 76.621094 67.824219 L 76.621094 67.21875 Z M 74.390625 57.722656 L 74.390625 58.332031 L 67.273438 62.4375 C 67.273438 62.214844 67.273438 62.003906 67.273438 61.832031 Z M 62.816406 62.179688 L 68.957031 65.726562 L 61.84375 69.832031 L 55.699219 66.285156 Z M 58.121094 71.378906 L 64.261719 74.925781 L 57.148438 79.03125 L 51.003906 75.484375 Z M 50.0625 78.636719 L 56.203125 82.179688 L 49.09375 86.285156 L 42.953125 82.742188 Z M 41.882812 85.824219 L 51.140625 91.167969 L 44.027344 95.273438 L 34.773438 89.929688 Z M 54.34375 93.019531 L 107.199219 123.523438 L 100.085938 127.628906 L 47.230469 97.117188 Z M 110.40625 125.371094 L 116.546875 128.917969 L 109.433594 133.019531 L 103.292969 129.472656 Z M 119.75 130.761719 L 125.890625 134.304688 L 118.773438 138.410156 L 112.632812 134.867188 Z M 129.089844 136.15625 L 135.230469 139.699219 L 128.117188 143.804688 L 121.976562 140.261719 Z M 138.433594 141.546875 L 144.574219 145.09375 L 137.457031 149.199219 L 131.316406 145.65625 Z M 147.777344 146.9375 L 153.921875 150.484375 L 146.808594 154.589844 L 140.667969 151.042969 Z M 157.789062 151.167969 L 157.789062 150.5625 L 158.316406 150.863281 L 158.316406 151.46875 Z M 157.789062 150.398438 L 157.789062 149.792969 L 164.90625 145.6875 L 164.90625 146.292969 Z M 168.109375 145.214844 L 168.109375 144.609375 L 168.636719 144.910156 L 168.636719 145.515625 Z M 168.109375 144.441406 L 168.109375 143.835938 L 175.261719 139.707031 L 175.285156 140.300781 Z M 178.425781 139.265625 L 178.425781 138.660156 L 178.953125 138.960938 L 178.953125 139.566406 Z M 178.425781 138.488281 L 178.425781 137.882812 L 185.542969 133.777344 L 185.542969 134.382812 Z M 188.742188 133.308594 L 188.742188 132.703125 L 189.269531 133.003906 L 189.269531 133.609375 Z M 188.742188 132.535156 L 188.742188 131.925781 L 195.855469 127.820312 L 195.855469 128.425781 Z M 198.390625 128.511719 L 204.53125 132.058594 L 197.421875 136.164062 L 191.277344 132.617188 Z M 199.585938 127.65625 L 199.058594 127.355469 L 199.058594 126.75 L 199.585938 127.050781 Z M 195.183594 126.664062 L 188.074219 130.769531 L 172.589844 121.835938 L 179.703125 117.730469 Z M 180.375 116.566406 L 180.375 115.964844 L 180.898438 116.265625 L 180.898438 116.871094 Z M 179.03125 116.566406 L 178.507812 116.867188 L 178.507812 115.492188 L 177.5 114.910156 L 172.890625 112.25 L 172.890625 111.644531 L 179.03125 115.191406 Z M 171.554688 111.480469 L 171.027344 111.179688 L 171.027344 110.570312 L 171.554688 110.871094 Z M 169.691406 111.179688 L 169.164062 111.480469 L 169.164062 110.101562 L 168.089844 109.476562 L 163.550781 106.859375 L 163.550781 106.253906 L 169.691406 109.800781 Z M 162.210938 106.089844 L 161.6875 105.789062 L 161.6875 105.183594 L 162.210938 105.484375 Z M 160.347656 105.785156 L 159.824219 106.085938 L 159.824219 104.707031 L 158.925781 104.191406 L 154.207031 101.46875 L 154.207031 100.863281 L 160.347656 104.40625 Z M 152.871094 100.695312 L 152.34375 100.394531 L 152.34375 99.789062 L 152.871094 100.089844 Z M 151.003906 100.394531 L 150.476562 100.695312 L 150.476562 99.316406 L 149.632812 98.828125 L 144.859375 96.074219 L 144.859375 95.46875 L 151.003906 99.011719 Z M 143.523438 95.300781 L 142.996094 95 L 142.996094 94.394531 L 143.523438 94.695312 Z M 141.660156 95 L 141.136719 95.300781 L 141.136719 93.925781 L 140.191406 93.382812 L 135.519531 90.683594 L 135.519531 90.078125 L 141.660156 93.625 Z M 134.179688 89.914062 L 133.65625 89.613281 L 133.65625 89.007812 L 134.179688 89.304688 Z M 132.316406 89.605469 L 131.78125 89.917969 L 131.796875 88.535156 L 130.863281 87.996094 L 126.179688 85.292969 L 126.179688 84.6875 L 132.324219 88.234375 L 132.324219 89.605469 Z M 124.839844 84.519531 L 124.3125 84.21875 L 124.3125 83.613281 L 124.839844 83.914062 Z M 122.972656 84.21875 L 122.445312 84.519531 L 122.445312 83.140625 L 121.703125 82.710938 L 116.820312 79.890625 L 116.824219 79.289062 L 122.972656 82.835938 Z M 115.488281 79.125 L 114.96875 78.824219 L 114.96875 78.21875 L 115.488281 78.519531 Z M 113.628906 78.824219 L 113.109375 79.125 L 113.101562 77.746094 L 112.308594 77.292969 L 107.484375 74.511719 L 107.484375 73.90625 L 113.625 77.449219 L 113.625 78.824219 Z M 106.152344 73.734375 L 105.609375 73.421875 C 105.597656 73.210938 105.589844 73 105.585938 72.800781 L 106.152344 73.128906 Z M 104.265625 73.445312 L 103.761719 73.734375 L 103.761719 72.359375 L 102.867188 71.839844 L 98.144531 69.113281 L 98.144531 68.507812 L 104.230469 72.015625 C 104.214844 72.371094 104.234375 72.832031 104.265625 73.445312 Z M 96.808594 67.734375 L 96.808594 68.339844 L 96.285156 68.039062 L 96.285156 67.433594 Z M 94.941406 68.039062 L 94.414062 68.339844 L 94.414062 66.964844 L 93.621094 66.507812 L 88.804688 63.722656 L 88.804688 63.117188 L 94.945312 66.664062 L 94.945312 68.039062 Z M 87.460938 62.949219 L 86.9375 62.648438 L 86.9375 62.042969 L 87.460938 62.34375 Z M 85.597656 62.648438 L 85.078125 62.949219 C 85.074219 62.476562 85.074219 62.019531 85.074219 61.960938 L 85.074219 61.574219 L 84.335938 61.148438 L 79.457031 58.335938 L 79.457031 57.730469 L 85.597656 61.273438 Z M 78.121094 57.558594 L 77.59375 57.257812 L 77.59375 56.652344 L 78.121094 56.953125 Z M 76.257812 57.253906 L 75.730469 57.554688 L 75.730469 56.175781 L 74.964844 55.738281 L 69.984375 52.859375 L 69.984375 52.253906 L 76.257812 55.871094 Z M 68.644531 52.089844 L 68.25 51.859375 L 68.25 51.257812 L 68.644531 51.488281 Z M 67.585938 53.023438 L 73.726562 56.566406 L 66.613281 60.671875 L 60.472656 57.128906 Z M 65.046875 52.335938 L 65.046875 52.941406 L 57.933594 57.046875 C 57.933594 56.828125 57.933594 56.617188 57.933594 56.441406 Z M 57.933594 57.820312 C 57.933594 57.648438 57.933594 57.433594 57.933594 57.214844 L 58.457031 57.511719 L 58.457031 58.121094 Z M 60.28125 61.488281 L 60.28125 62.09375 L 53.167969 66.199219 L 53.167969 65.59375 Z M 53.167969 66.367188 L 53.695312 66.671875 L 53.695312 67.277344 L 53.167969 66.972656 Z M 55.589844 70.6875 L 55.589844 71.292969 L 48.472656 75.398438 L 48.472656 74.792969 Z M 48.472656 75.566406 L 49 75.867188 C 49 76.039062 49 76.25 49 76.472656 L 48.472656 76.171875 Z M 47.527344 77.945312 L 47.527344 78.554688 L 40.414062 82.660156 L 40.414062 82.054688 Z M 40.410156 82.828125 L 40.9375 83.132812 L 40.9375 83.738281 L 40.410156 83.433594 Z M 39.347656 85.132812 L 39.347656 85.738281 L 32.234375 89.84375 L 32.234375 89.238281 Z M 31.5625 88.082031 L 22.3125 82.742188 L 29.421875 78.640625 L 38.679688 83.976562 Z M 32.234375 90.015625 L 32.765625 90.320312 L 32.835938 97.796875 L 32.234375 97.453125 Z M 34.179688 98.574219 L 34.109375 91.097656 L 43.355469 96.433594 L 43.355469 103.867188 Z M 44.699219 97.203125 L 45.222656 97.503906 C 45.222656 98.785156 45.222656 102.902344 45.222656 104.941406 L 44.699219 104.640625 Z M 46.5625 98.28125 L 99.417969 128.785156 L 99.417969 136.222656 L 46.5625 105.71875 C 46.5625 104.4375 46.5625 100.320312 46.5625 98.28125 Z M 100.757812 129.558594 L 101.285156 129.859375 L 101.285156 137.292969 L 100.757812 136.992188 Z M 102.621094 130.636719 L 108.761719 134.179688 L 108.761719 141.617188 L 102.621094 138.070312 Z M 110.101562 134.953125 L 110.625 135.253906 L 110.625 142.6875 L 110.101562 142.386719 Z M 111.964844 136.027344 L 118.105469 139.574219 L 118.105469 147.007812 L 111.964844 143.464844 Z M 119.441406 140.339844 L 119.96875 140.640625 L 119.96875 148.078125 L 119.441406 147.777344 Z M 121.304688 141.417969 L 127.449219 144.964844 L 127.449219 152.398438 L 121.304688 148.855469 Z M 128.785156 145.734375 L 129.308594 146.035156 L 129.308594 153.472656 L 128.785156 153.171875 Z M 130.652344 146.8125 L 136.792969 150.355469 C 136.792969 151.636719 136.792969 155.753906 136.792969 157.792969 L 130.652344 154.246094 Z M 138.132812 151.128906 L 138.652344 151.429688 C 138.648438 152.164062 138.640625 153.84375 138.632812 155.527344 C 138.628906 156.648438 138.628906 157.773438 138.628906 158.617188 C 138.628906 158.703125 138.628906 158.78125 138.628906 158.855469 L 138.128906 158.570312 C 138.132812 157.285156 138.132812 153.160156 138.132812 151.128906 Z M 139.976562 159.628906 C 139.957031 158.546875 139.972656 155.050781 139.984375 152.195312 L 146.132812 155.746094 L 146.132812 163.183594 Z M 147.472656 156.519531 L 148 156.820312 L 148 164.253906 L 147.472656 163.953125 Z M 149.335938 157.59375 L 155.476562 161.140625 L 155.476562 168.574219 L 149.335938 165.03125 Z M 156.816406 161.140625 L 163.929688 157.035156 L 163.929688 164.46875 L 156.816406 168.574219 Z M 164.277344 154.917969 L 159.652344 152.246094 L 159.652344 151.640625 L 165.792969 155.1875 L 165.792969 163.394531 L 165.269531 163.695312 L 165.269531 155.488281 Z M 167.136719 155.1875 L 174.246094 151.078125 L 174.246094 158.515625 L 167.136719 162.621094 Z M 174.785156 149.070312 C 174.785156 149.070312 174.78125 149.070312 174.785156 149.070312 L 169.972656 146.292969 L 169.972656 145.6875 L 176.113281 149.230469 L 176.113281 157.4375 L 175.589844 157.738281 L 175.589844 149.53125 Z M 177.453125 149.230469 L 184.5625 145.128906 C 184.5625 146.246094 184.5625 148.402344 184.566406 152.566406 L 177.457031 156.671875 L 177.457031 149.230469 Z M 185.90625 151.789062 C 185.902344 148.421875 185.902344 144.222656 185.90625 144.03125 L 185.945312 143.597656 L 184.953125 143.023438 L 180.289062 140.332031 L 180.289062 139.726562 L 186.429688 143.273438 L 186.429688 151.480469 Z M 187.769531 143.277344 L 194.882812 139.171875 L 194.882812 146.605469 L 187.769531 150.710938 Z M 194.976562 136.902344 L 190.609375 134.382812 L 190.609375 133.777344 L 196.75 137.320312 L 196.75 145.527344 L 196.226562 145.828125 L 196.226562 137.621094 Z M 198.085938 137.320312 L 205.199219 133.214844 L 205.199219 140.652344 L 198.085938 144.757812 Z M 206.539062 132.445312 L 207.0625 132.144531 L 207.0625 139.578125 L 206.539062 139.878906 Z M 208.40625 131.367188 L 215.515625 127.261719 L 215.515625 134.695312 L 208.40625 138.800781 Z M 214.847656 126.101562 L 207.730469 130.210938 L 201.589844 126.664062 L 208.703125 122.558594 Z M 199.058594 126.582031 L 199.058594 125.976562 L 206.175781 121.871094 L 206.175781 122.476562 Z M 205.503906 120.710938 L 198.390625 124.816406 L 192.25 121.269531 L 199.363281 117.164062 Z M 189.570312 121.273438 L 190.238281 121.660156 L 190.238281 122.265625 L 182.234375 117.648438 L 182.234375 117.042969 L 189.042969 120.972656 L 196.828125 116.480469 L 196.828125 117.089844 Z M 196.160156 115.320312 L 189.042969 119.425781 L 182.902344 115.878906 L 190.019531 111.773438 Z M 180.375 115.796875 L 180.375 115.191406 L 187.488281 111.082031 L 187.488281 111.691406 Z M 186.816406 109.925781 L 179.703125 114.03125 L 173.558594 110.488281 L 180.675781 106.382812 Z M 171.027344 110.40625 L 171.027344 109.800781 L 178.144531 105.695312 L 178.144531 106.300781 Z M 177.476562 104.53125 L 170.359375 108.636719 L 164.21875 105.09375 L 171.332031 100.988281 Z M 161.6875 105.011719 L 161.6875 104.40625 L 168.800781 100.300781 L 168.800781 100.90625 Z M 168.128906 99.144531 L 161.011719 103.25 L 154.871094 99.703125 L 161.988281 95.597656 Z M 152.34375 99.617188 L 152.34375 99.011719 L 159.460938 94.90625 L 159.460938 95.511719 Z M 158.785156 93.75 L 151.675781 97.855469 L 145.535156 94.308594 L 152.644531 90.203125 Z M 142.996094 94.230469 L 142.996094 93.625 L 150.109375 89.515625 L 150.109375 90.125 Z M 149.445312 88.355469 L 142.328125 92.460938 L 136.1875 88.917969 L 143.296875 84.808594 Z M 133.65625 88.835938 L 133.65625 88.230469 L 140.765625 84.125 L 140.765625 84.730469 Z M 140.097656 82.964844 L 132.988281 87.070312 L 126.847656 83.527344 L 133.957031 79.421875 Z M 124.3125 83.441406 L 124.3125 82.835938 L 131.429688 78.730469 L 131.429688 79.335938 Z M 130.757812 77.570312 L 123.640625 81.679688 L 117.5 78.132812 L 124.613281 74.027344 Z M 114.96875 78.050781 L 114.96875 77.445312 L 122.082031 73.339844 L 122.082031 73.945312 Z M 121.414062 72.179688 L 114.296875 76.285156 L 108.15625 72.738281 L 113.660156 69.5625 C 113.792969 69.53125 113.886719 69.480469 113.949219 69.394531 L 115.269531 68.632812 Z M 105.582031 72.683594 C 105.574219 72.449219 105.570312 72.238281 105.574219 72.085938 L 112.757812 67.9375 C 112.761719 68.171875 112.761719 68.378906 112.769531 68.539062 Z M 112.066406 66.789062 L 104.953125 70.894531 L 98.8125 67.351562 L 105.925781 63.242188 Z M 96.285156 67.265625 L 96.285156 66.660156 L 103.398438 62.554688 L 103.398438 63.160156 Z M 96.585938 57.855469 L 102.726562 61.398438 L 95.609375 65.503906 L 89.46875 61.960938 L 94.894531 58.828125 C 95.003906 58.792969 95.089844 58.757812 95.15625 58.675781 Z M 86.9375 61.875 L 86.9375 61.269531 L 94.023438 57.179688 C 94.015625 57.410156 94.011719 57.628906 94.003906 57.800781 Z M 93.382812 56.003906 L 86.273438 60.113281 L 80.132812 56.566406 L 87.242188 52.460938 Z M 77.59375 56.480469 L 77.59375 55.875 L 84.707031 51.769531 L 84.707031 52.375 Z M 84.035156 50.613281 L 76.925781 54.71875 L 70.785156 51.171875 L 77.898438 47.066406 Z M 68.253906 51.085938 L 68.253906 50.480469 L 75.367188 46.375 L 75.367188 46.980469 Z M 68.558594 41.675781 L 74.699219 45.222656 L 67.585938 49.328125 L 61.441406 45.785156 Z M 60.773438 46.941406 L 66.914062 50.488281 L 66.914062 51.863281 L 66.390625 52.164062 L 66.390625 50.785156 L 65.578125 50.320312 L 60.773438 47.546875 Z M 58.238281 47.628906 L 64.378906 51.171875 L 57.269531 55.277344 L 51.125 51.734375 Z M 50.457031 52.894531 L 56.597656 56.441406 L 56.597656 57.046875 L 50.457031 53.5 Z M 47.921875 53.582031 L 56.839844 58.730469 C 56.890625 58.769531 56.945312 58.804688 57.011719 58.828125 L 59.609375 60.328125 L 52.5 64.433594 L 40.808594 57.6875 Z M 40.136719 58.851562 L 51.828125 65.59375 L 51.828125 66.199219 L 40.136719 59.457031 Z M 37.605469 59.539062 L 54.921875 69.53125 L 47.808594 73.636719 L 30.488281 63.644531 Z M 29.820312 64.804688 L 47.136719 74.792969 L 47.136719 75.398438 L 29.820312 65.40625 Z M 27.289062 65.492188 L 46.859375 76.785156 L 39.746094 80.894531 L 20.171875 69.597656 Z M 19.503906 70.753906 L 39.074219 82.050781 L 39.074219 82.65625 L 29.421875 77.09375 L 19.777344 82.65625 L 19.777344 82.050781 L 28.902344 76.785156 L 19.503906 71.363281 Z M 16.96875 71.445312 L 26.21875 76.785156 L 19.109375 80.894531 L 9.859375 75.554688 Z M 7.847656 82.824219 L 7.847656 84.917969 L 138.808594 160.5 C 138.863281 160.546875 138.933594 160.585938 139.023438 160.625 L 155.808594 170.3125 L 156.148438 170.503906 L 216.523438 135.660156 L 216.859375 135.46875 L 216.859375 133.152344 L 222.765625 136.5625 L 156.152344 175.007812 L 2.132812 86.125 Z M 1.457031 87.28125 L 155.476562 176.167969 L 155.476562 182.882812 L 1.457031 93.996094 Z M 156.816406 182.882812 L 156.816406 176.167969 L 223.429688 137.726562 L 223.429688 144.4375 Z M 156.816406 182.882812 " fill-opacity="1" fill-rule="nonzero"/></g></svg>