<svg xmlns="http://www.w3.org/2000/svg" xmlns:xlink="http://www.w3.org/1999/xlink" width="320" zoomAndPan="magnify" viewBox="0 0 240 239.999995" height="320" preserveAspectRatio="xMidYMid meet" version="1.0"><defs><g/><clipPath id="05c6c395cf"><path d="M 162 189 L 234 189 L 234 197.71875 L 162 197.71875 Z M 162 189 " clip-rule="nonzero"/></clipPath><clipPath id="8bbdfb2e38"><path d="M 191 117 L 234.273438 117 L 234.273438 147 L 191 147 Z M 191 117 " clip-rule="nonzero"/></clipPath><clipPath id="5e101967cd"><path d="M 5.523438 169 L 52 169 L 52 192 L 5.523438 192 Z M 5.523438 169 " clip-rule="nonzero"/></clipPath></defs><rect x="-24" width="288" fill="#ffffff" y="-23.999999" height="287.999994" fill-opacity="1"/><rect x="-24" width="288" fill="#5271ff" y="-23.999999" height="287.999994" fill-opacity="1"/><g clip-path="url(#05c6c395cf)"><path fill="#030305" d="M 162.964844 189.203125 L 181.507812 197.699219 L 233.285156 197.699219 L 233.285156 189.203125 C 233.285156 189.203125 162.417969 189.789062 162.964844 189.203125 Z M 162.964844 189.203125 " fill-opacity="1" fill-rule="nonzero"/></g><path fill="#030305" d="M 117.609375 148.738281 C 117.941406 148.023438 125.648438 130.933594 120.917969 106.558594 C 118.488281 94.027344 112.109375 85.226562 103.425781 82.417969 C 95.882812 79.972656 87.445312 82.4375 80.261719 89.191406 C 71.367188 97.554688 57.953125 105.476562 47.003906 102.625 C 40.210938 100.859375 35.230469 95.125 32.1875 85.589844 L 30.128906 86.246094 C 33.40625 96.539062 38.902344 102.757812 46.457031 104.722656 C 58.261719 107.796875 72.421875 99.53125 81.742188 90.769531 C 88.328125 84.582031 95.988281 82.285156 102.761719 84.480469 C 110.675781 87.042969 116.519531 95.238281 118.796875 106.972656 C 123.386719 130.621094 115.722656 147.660156 115.648438 147.828125 Z M 117.609375 148.738281 " fill-opacity="1" fill-rule="nonzero"/><path fill="#4851a2" d="M 233.285156 125.65625 L 233.285156 190.660156 L 13.691406 190.660156 C 13.21875 190.660156 12.753906 190.617188 12.289062 190.523438 C 11.828125 190.429688 11.378906 190.296875 10.945312 190.113281 C 10.511719 189.933594 10.097656 189.710938 9.707031 189.449219 C 9.3125 189.1875 8.953125 188.890625 8.617188 188.558594 C 8.285156 188.222656 7.988281 187.859375 7.726562 187.46875 C 7.464844 187.074219 7.242188 186.660156 7.0625 186.226562 C 6.882812 185.789062 6.746094 185.339844 6.65625 184.878906 C 6.5625 184.414062 6.519531 183.949219 6.519531 183.476562 L 6.519531 125.65625 C 6.519531 121.925781 9.277344 118.894531 12.675781 118.894531 L 227.128906 118.894531 C 230.53125 118.894531 233.285156 121.921875 233.285156 125.65625 Z M 233.285156 125.65625 " fill-opacity="1" fill-rule="nonzero"/><path fill="#030305" d="M 15.574219 124.285156 L 21.660156 124.285156 C 21.921875 124.285156 22.144531 124.378906 22.328125 124.5625 C 22.511719 124.746094 22.601562 124.96875 22.601562 125.230469 L 22.601562 131.328125 C 22.601562 131.589844 22.511719 131.8125 22.328125 131.996094 C 22.144531 132.179688 21.921875 132.273438 21.660156 132.273438 L 15.574219 132.273438 C 15.316406 132.273438 15.09375 132.179688 14.910156 131.996094 C 14.726562 131.8125 14.632812 131.589844 14.632812 131.328125 L 14.632812 125.230469 C 14.632812 124.96875 14.726562 124.746094 14.910156 124.5625 C 15.09375 124.378906 15.316406 124.285156 15.574219 124.285156 Z M 15.574219 124.285156 " fill-opacity="1" fill-rule="nonzero"/><path fill="#030305" d="M 35.75 124.285156 L 41.835938 124.285156 C 42.097656 124.285156 42.316406 124.378906 42.503906 124.5625 C 42.6875 124.746094 42.777344 124.96875 42.777344 125.230469 L 42.777344 131.328125 C 42.777344 131.589844 42.6875 131.8125 42.503906 131.996094 C 42.316406 132.179688 42.097656 132.273438 41.835938 132.273438 L 35.75 132.273438 C 35.492188 132.273438 35.269531 132.179688 35.082031 131.996094 C 34.898438 131.8125 34.808594 131.589844 34.808594 131.328125 L 34.808594 125.230469 C 34.808594 124.96875 34.898438 124.746094 35.082031 124.5625 C 35.269531 124.378906 35.492188 124.285156 35.75 124.285156 Z M 35.75 124.285156 " fill-opacity="1" fill-rule="nonzero"/><path fill="#030305" d="M 45.214844 124.285156 L 51.300781 124.285156 C 51.558594 124.285156 51.78125 124.378906 51.96875 124.5625 C 52.152344 124.746094 52.242188 124.96875 52.242188 125.230469 L 52.242188 131.328125 C 52.242188 131.589844 52.152344 131.8125 51.96875 131.996094 C 51.78125 132.179688 51.558594 132.273438 51.300781 132.273438 L 45.214844 132.273438 C 44.957031 132.273438 44.734375 132.179688 44.550781 131.996094 C 44.363281 131.8125 44.273438 131.589844 44.273438 131.328125 L 44.273438 125.230469 C 44.273438 124.96875 44.363281 124.746094 44.550781 124.5625 C 44.734375 124.378906 44.957031 124.285156 45.214844 124.285156 Z M 45.214844 124.285156 " fill-opacity="1" fill-rule="nonzero"/><path fill="#030305" d="M 64.144531 124.285156 L 70.230469 124.285156 C 70.492188 124.285156 70.710938 124.378906 70.898438 124.5625 C 71.082031 124.746094 71.171875 124.96875 71.171875 125.230469 L 71.171875 131.328125 C 71.171875 131.589844 71.082031 131.8125 70.898438 131.996094 C 70.710938 132.179688 70.492188 132.273438 70.230469 132.273438 L 64.144531 132.273438 C 63.886719 132.273438 63.664062 132.179688 63.480469 131.996094 C 63.292969 131.8125 63.203125 131.589844 63.203125 131.328125 L 63.203125 125.230469 C 63.203125 124.96875 63.292969 124.746094 63.480469 124.5625 C 63.664062 124.378906 63.886719 124.285156 64.144531 124.285156 Z M 64.144531 124.285156 " fill-opacity="1" fill-rule="nonzero"/><path fill="#030305" d="M 54.679688 124.285156 L 60.765625 124.285156 C 61.027344 124.285156 61.25 124.378906 61.433594 124.5625 C 61.617188 124.746094 61.707031 124.96875 61.707031 125.230469 L 61.707031 131.328125 C 61.707031 131.589844 61.617188 131.8125 61.433594 131.996094 C 61.25 132.179688 61.027344 132.273438 60.765625 132.273438 L 54.679688 132.273438 C 54.421875 132.273438 54.199219 132.179688 54.015625 131.996094 C 53.828125 131.8125 53.738281 131.589844 53.738281 131.328125 L 53.738281 125.230469 C 53.738281 124.96875 53.828125 124.746094 54.015625 124.5625 C 54.199219 124.378906 54.421875 124.285156 54.679688 124.285156 Z M 54.679688 124.285156 " fill-opacity="1" fill-rule="nonzero"/><path fill="#030305" d="M 77.597656 124.285156 L 83.679688 124.285156 C 83.941406 124.285156 84.164062 124.378906 84.347656 124.5625 C 84.53125 124.746094 84.625 124.96875 84.625 125.230469 L 84.625 131.328125 C 84.625 131.589844 84.53125 131.8125 84.347656 131.996094 C 84.164062 132.179688 83.941406 132.273438 83.679688 132.273438 L 77.597656 132.273438 C 77.335938 132.273438 77.113281 132.179688 76.929688 131.996094 C 76.746094 131.8125 76.652344 131.589844 76.652344 131.328125 L 76.652344 125.230469 C 76.652344 124.96875 76.746094 124.746094 76.929688 124.5625 C 77.113281 124.378906 77.335938 124.285156 77.597656 124.285156 Z M 77.597656 124.285156 " fill-opacity="1" fill-rule="nonzero"/><path fill="#030305" d="M 87.0625 124.285156 L 93.144531 124.285156 C 93.40625 124.285156 93.628906 124.378906 93.8125 124.5625 C 93.996094 124.746094 94.089844 124.96875 94.089844 125.230469 L 94.089844 131.328125 C 94.089844 131.589844 93.996094 131.8125 93.8125 131.996094 C 93.628906 132.179688 93.40625 132.273438 93.144531 132.273438 L 87.0625 132.273438 C 86.800781 132.273438 86.578125 132.179688 86.394531 131.996094 C 86.210938 131.8125 86.117188 131.589844 86.117188 131.328125 L 86.117188 125.230469 C 86.117188 124.96875 86.210938 124.746094 86.394531 124.5625 C 86.578125 124.378906 86.800781 124.285156 87.0625 124.285156 Z M 87.0625 124.285156 " fill-opacity="1" fill-rule="nonzero"/><path fill="#030305" d="M 105.992188 124.285156 L 112.074219 124.285156 C 112.335938 124.285156 112.558594 124.378906 112.742188 124.5625 C 112.925781 124.746094 113.019531 124.96875 113.019531 125.230469 L 113.019531 131.328125 C 113.019531 131.589844 112.925781 131.8125 112.742188 131.996094 C 112.558594 132.179688 112.335938 132.273438 112.074219 132.273438 L 105.992188 132.273438 C 105.730469 132.273438 105.507812 132.179688 105.324219 131.996094 C 105.140625 131.8125 105.046875 131.589844 105.046875 131.328125 L 105.046875 125.230469 C 105.046875 124.96875 105.140625 124.746094 105.324219 124.5625 C 105.507812 124.378906 105.730469 124.285156 105.992188 124.285156 Z M 105.992188 124.285156 " fill-opacity="1" fill-rule="nonzero"/><path fill="#030305" d="M 96.527344 124.285156 L 102.609375 124.285156 C 102.871094 124.285156 103.09375 124.378906 103.277344 124.5625 C 103.460938 124.746094 103.554688 124.96875 103.554688 125.230469 L 103.554688 131.328125 C 103.554688 131.589844 103.460938 131.8125 103.277344 131.996094 C 103.09375 132.179688 102.871094 132.273438 102.609375 132.273438 L 96.527344 132.273438 C 96.265625 132.273438 96.042969 132.179688 95.859375 131.996094 C 95.675781 131.8125 95.582031 131.589844 95.582031 131.328125 L 95.582031 125.230469 C 95.582031 124.96875 95.675781 124.746094 95.859375 124.5625 C 96.042969 124.378906 96.265625 124.285156 96.527344 124.285156 Z M 96.527344 124.285156 " fill-opacity="1" fill-rule="nonzero"/><path fill="#030305" d="M 119.441406 124.285156 L 125.527344 124.285156 C 125.785156 124.285156 126.007812 124.378906 126.191406 124.5625 C 126.375 124.746094 126.46875 124.96875 126.46875 125.230469 L 126.46875 131.328125 C 126.46875 131.589844 126.375 131.8125 126.191406 131.996094 C 126.007812 132.179688 125.785156 132.273438 125.527344 132.273438 L 119.441406 132.273438 C 119.179688 132.273438 118.957031 132.179688 118.773438 131.996094 C 118.589844 131.8125 118.5 131.589844 118.5 131.328125 L 118.5 125.230469 C 118.5 124.96875 118.589844 124.746094 118.773438 124.5625 C 118.957031 124.378906 119.179688 124.285156 119.441406 124.285156 Z M 119.441406 124.285156 " fill-opacity="1" fill-rule="nonzero"/><path fill="#030305" d="M 128.90625 124.285156 L 134.992188 124.285156 C 135.25 124.285156 135.472656 124.378906 135.65625 124.5625 C 135.839844 124.746094 135.933594 124.96875 135.933594 125.230469 L 135.933594 131.328125 C 135.933594 131.589844 135.839844 131.8125 135.65625 131.996094 C 135.472656 132.179688 135.25 132.273438 134.992188 132.273438 L 128.90625 132.273438 C 128.644531 132.273438 128.421875 132.179688 128.238281 131.996094 C 128.054688 131.8125 127.964844 131.589844 127.964844 131.328125 L 127.964844 125.230469 C 127.964844 124.96875 128.054688 124.746094 128.238281 124.5625 C 128.421875 124.378906 128.644531 124.285156 128.90625 124.285156 Z M 128.90625 124.285156 " fill-opacity="1" fill-rule="nonzero"/><path fill="#030305" d="M 147.835938 124.285156 L 153.921875 124.285156 C 154.179688 124.285156 154.402344 124.378906 154.585938 124.5625 C 154.773438 124.746094 154.863281 124.96875 154.863281 125.230469 L 154.863281 131.328125 C 154.863281 131.589844 154.773438 131.8125 154.585938 131.996094 C 154.402344 132.179688 154.179688 132.273438 153.921875 132.273438 L 147.835938 132.273438 C 147.574219 132.273438 147.355469 132.179688 147.167969 131.996094 C 146.984375 131.8125 146.894531 131.589844 146.894531 131.328125 L 146.894531 125.230469 C 146.894531 124.96875 146.984375 124.746094 147.167969 124.5625 C 147.355469 124.378906 147.574219 124.285156 147.835938 124.285156 Z M 147.835938 124.285156 " fill-opacity="1" fill-rule="nonzero"/><path fill="#030305" d="M 138.371094 124.285156 L 144.457031 124.285156 C 144.714844 124.285156 144.9375 124.378906 145.121094 124.5625 C 145.304688 124.746094 145.398438 124.96875 145.398438 125.230469 L 145.398438 131.328125 C 145.398438 131.589844 145.304688 131.8125 145.121094 131.996094 C 144.9375 132.179688 144.714844 132.273438 144.457031 132.273438 L 138.371094 132.273438 C 138.109375 132.273438 137.886719 132.179688 137.703125 131.996094 C 137.519531 131.8125 137.429688 131.589844 137.429688 131.328125 L 137.429688 125.230469 C 137.429688 124.96875 137.519531 124.746094 137.703125 124.5625 C 137.886719 124.378906 138.109375 124.285156 138.371094 124.285156 Z M 138.371094 124.285156 " fill-opacity="1" fill-rule="nonzero"/><path fill="#030305" d="M 159.292969 124.285156 L 165.378906 124.285156 C 165.636719 124.285156 165.859375 124.378906 166.042969 124.5625 C 166.230469 124.746094 166.320312 124.96875 166.320312 125.230469 L 166.320312 131.328125 C 166.320312 131.589844 166.230469 131.8125 166.042969 131.996094 C 165.859375 132.179688 165.636719 132.273438 165.378906 132.273438 L 159.292969 132.273438 C 159.03125 132.273438 158.8125 132.179688 158.625 131.996094 C 158.441406 131.8125 158.351562 131.589844 158.351562 131.328125 L 158.351562 125.230469 C 158.351562 124.96875 158.441406 124.746094 158.625 124.5625 C 158.8125 124.378906 159.03125 124.285156 159.292969 124.285156 Z M 159.292969 124.285156 " fill-opacity="1" fill-rule="nonzero"/><path fill="#030305" d="M 178.222656 124.285156 L 184.308594 124.285156 C 184.566406 124.285156 184.789062 124.378906 184.976562 124.5625 C 185.160156 124.746094 185.25 124.96875 185.25 125.230469 L 185.25 131.328125 C 185.25 131.589844 185.160156 131.8125 184.976562 131.996094 C 184.789062 132.179688 184.566406 132.273438 184.308594 132.273438 L 178.222656 132.273438 C 177.964844 132.273438 177.742188 132.179688 177.558594 131.996094 C 177.371094 131.8125 177.28125 131.589844 177.28125 131.328125 L 177.28125 125.230469 C 177.28125 124.96875 177.371094 124.746094 177.558594 124.5625 C 177.742188 124.378906 177.964844 124.285156 178.222656 124.285156 Z M 178.222656 124.285156 " fill-opacity="1" fill-rule="nonzero"/><path fill="#030305" d="M 168.757812 124.285156 L 174.84375 124.285156 C 175.101562 124.285156 175.324219 124.378906 175.507812 124.5625 C 175.695312 124.746094 175.785156 124.96875 175.785156 125.230469 L 175.785156 131.328125 C 175.785156 131.589844 175.695312 131.8125 175.507812 131.996094 C 175.324219 132.179688 175.101562 132.273438 174.84375 132.273438 L 168.757812 132.273438 C 168.5 132.273438 168.277344 132.179688 168.089844 131.996094 C 167.90625 131.8125 167.816406 131.589844 167.816406 131.328125 L 167.816406 125.230469 C 167.816406 124.96875 167.90625 124.746094 168.089844 124.5625 C 168.277344 124.378906 168.5 124.285156 168.757812 124.285156 Z M 168.757812 124.285156 " fill-opacity="1" fill-rule="nonzero"/><path fill="#030305" d="M 189.679688 137.554688 L 195.765625 137.554688 C 196.027344 137.554688 196.25 137.648438 196.433594 137.832031 C 196.617188 138.015625 196.707031 138.238281 196.707031 138.5 L 196.707031 144.597656 C 196.707031 144.855469 196.617188 145.078125 196.433594 145.265625 C 196.25 145.449219 196.027344 145.539062 195.765625 145.539062 L 189.679688 145.539062 C 189.421875 145.539062 189.199219 145.449219 189.015625 145.265625 C 188.832031 145.078125 188.738281 144.855469 188.738281 144.597656 L 188.738281 138.5 C 188.738281 138.238281 188.832031 138.015625 189.015625 137.832031 C 189.199219 137.648438 189.421875 137.554688 189.679688 137.554688 Z M 189.679688 137.554688 " fill-opacity="1" fill-rule="nonzero"/><path fill="#030305" d="M 208.613281 137.554688 L 214.695312 137.554688 C 214.957031 137.554688 215.179688 137.648438 215.363281 137.832031 C 215.546875 138.015625 215.636719 138.238281 215.636719 138.5 L 215.636719 144.597656 C 215.636719 144.855469 215.546875 145.078125 215.363281 145.265625 C 215.179688 145.449219 214.957031 145.539062 214.695312 145.539062 L 208.613281 145.539062 C 208.351562 145.539062 208.128906 145.449219 207.945312 145.265625 C 207.761719 145.078125 207.667969 144.855469 207.667969 144.597656 L 207.667969 138.5 C 207.667969 138.238281 207.761719 138.015625 207.945312 137.832031 C 208.128906 137.648438 208.351562 137.554688 208.613281 137.554688 Z M 208.613281 137.554688 " fill-opacity="1" fill-rule="nonzero"/><path fill="#030305" d="M 218.078125 137.554688 L 224.160156 137.554688 C 224.421875 137.554688 224.644531 137.648438 224.828125 137.832031 C 225.011719 138.015625 225.105469 138.238281 225.105469 138.5 L 225.105469 144.597656 C 225.105469 144.855469 225.011719 145.078125 224.828125 145.265625 C 224.644531 145.449219 224.421875 145.539062 224.160156 145.539062 L 218.078125 145.539062 C 217.816406 145.539062 217.59375 145.449219 217.410156 145.265625 C 217.226562 145.078125 217.132812 144.855469 217.132812 144.597656 L 217.132812 138.5 C 217.132812 138.238281 217.226562 138.015625 217.410156 137.832031 C 217.59375 137.648438 217.816406 137.554688 218.078125 137.554688 Z M 218.078125 137.554688 " fill-opacity="1" fill-rule="nonzero"/><path fill="#030305" d="M 218.078125 147.039062 L 224.160156 147.039062 C 224.421875 147.039062 224.644531 147.128906 224.828125 147.316406 C 225.011719 147.5 225.105469 147.722656 225.105469 147.984375 L 225.105469 163.5625 C 225.105469 163.824219 225.011719 164.046875 224.828125 164.230469 C 224.644531 164.414062 224.421875 164.507812 224.160156 164.507812 L 218.078125 164.507812 C 217.816406 164.507812 217.59375 164.414062 217.410156 164.230469 C 217.226562 164.046875 217.132812 163.824219 217.132812 163.5625 L 217.132812 147.984375 C 217.132812 147.722656 217.226562 147.5 217.410156 147.316406 C 217.59375 147.128906 217.816406 147.039062 218.078125 147.039062 Z M 218.078125 147.039062 " fill-opacity="1" fill-rule="nonzero"/><path fill="#030305" d="M 218.078125 166.003906 L 224.160156 166.003906 C 224.421875 166.003906 224.644531 166.097656 224.828125 166.28125 C 225.011719 166.464844 225.105469 166.6875 225.105469 166.949219 L 225.105469 182.53125 C 225.105469 182.792969 225.011719 183.015625 224.828125 183.199219 C 224.644531 183.382812 224.421875 183.476562 224.160156 183.476562 L 218.078125 183.476562 C 217.816406 183.476562 217.59375 183.382812 217.410156 183.199219 C 217.226562 183.015625 217.132812 182.792969 217.132812 182.53125 L 217.132812 166.949219 C 217.132812 166.6875 217.226562 166.464844 217.410156 166.28125 C 217.59375 166.097656 217.816406 166.003906 218.078125 166.003906 Z M 218.078125 166.003906 " fill-opacity="1" fill-rule="nonzero"/><path fill="#030305" d="M 199.144531 137.554688 L 205.230469 137.554688 C 205.492188 137.554688 205.714844 137.648438 205.898438 137.832031 C 206.082031 138.015625 206.171875 138.238281 206.171875 138.5 L 206.171875 144.597656 C 206.171875 144.855469 206.082031 145.078125 205.898438 145.265625 C 205.714844 145.449219 205.492188 145.539062 205.230469 145.539062 L 199.144531 145.539062 C 198.886719 145.539062 198.664062 145.449219 198.480469 145.265625 C 198.296875 145.078125 198.203125 144.855469 198.203125 144.597656 L 198.203125 138.5 C 198.203125 138.238281 198.296875 138.015625 198.480469 137.832031 C 198.664062 137.648438 198.886719 137.554688 199.144531 137.554688 Z M 199.144531 137.554688 " fill-opacity="1" fill-rule="nonzero"/><path fill="#030305" d="M 189.679688 147.039062 L 195.765625 147.039062 C 196.027344 147.039062 196.25 147.128906 196.433594 147.316406 C 196.617188 147.5 196.707031 147.722656 196.707031 147.984375 L 196.707031 154.078125 C 196.707031 154.339844 196.617188 154.5625 196.433594 154.746094 C 196.25 154.933594 196.027344 155.023438 195.765625 155.023438 L 189.679688 155.023438 C 189.421875 155.023438 189.199219 154.933594 189.015625 154.746094 C 188.832031 154.5625 188.738281 154.339844 188.738281 154.078125 L 188.738281 147.984375 C 188.738281 147.722656 188.832031 147.5 189.015625 147.316406 C 189.199219 147.128906 189.421875 147.039062 189.679688 147.039062 Z M 189.679688 147.039062 " fill-opacity="1" fill-rule="nonzero"/><path fill="#030305" d="M 208.613281 147.039062 L 214.695312 147.039062 C 214.957031 147.039062 215.179688 147.128906 215.363281 147.316406 C 215.546875 147.5 215.636719 147.722656 215.636719 147.984375 L 215.636719 154.078125 C 215.636719 154.339844 215.546875 154.5625 215.363281 154.746094 C 215.179688 154.933594 214.957031 155.023438 214.695312 155.023438 L 208.613281 155.023438 C 208.351562 155.023438 208.128906 154.933594 207.945312 154.746094 C 207.761719 154.5625 207.667969 154.339844 207.667969 154.078125 L 207.667969 147.984375 C 207.667969 147.722656 207.761719 147.5 207.945312 147.316406 C 208.128906 147.128906 208.351562 147.039062 208.613281 147.039062 Z M 208.613281 147.039062 " fill-opacity="1" fill-rule="nonzero"/><path fill="#030305" d="M 199.144531 147.039062 L 205.230469 147.039062 C 205.492188 147.039062 205.714844 147.128906 205.898438 147.316406 C 206.082031 147.5 206.171875 147.722656 206.171875 147.984375 L 206.171875 154.078125 C 206.171875 154.339844 206.082031 154.5625 205.898438 154.746094 C 205.714844 154.933594 205.492188 155.023438 205.230469 155.023438 L 199.144531 155.023438 C 198.886719 155.023438 198.664062 154.933594 198.480469 154.746094 C 198.296875 154.5625 198.203125 154.339844 198.203125 154.078125 L 198.203125 147.984375 C 198.203125 147.722656 198.296875 147.5 198.480469 147.316406 C 198.664062 147.128906 198.886719 147.039062 199.144531 147.039062 Z M 199.144531 147.039062 " fill-opacity="1" fill-rule="nonzero"/><path fill="#030305" d="M 189.679688 156.523438 L 195.765625 156.523438 C 196.027344 156.523438 196.25 156.613281 196.433594 156.796875 C 196.617188 156.984375 196.707031 157.207031 196.707031 157.464844 L 196.707031 163.5625 C 196.707031 163.824219 196.617188 164.046875 196.433594 164.230469 C 196.25 164.414062 196.027344 164.507812 195.765625 164.507812 L 189.679688 164.507812 C 189.421875 164.507812 189.199219 164.414062 189.015625 164.230469 C 188.832031 164.046875 188.738281 163.824219 188.738281 163.5625 L 188.738281 157.464844 C 188.738281 157.207031 188.832031 156.984375 189.015625 156.796875 C 189.199219 156.613281 189.421875 156.523438 189.679688 156.523438 Z M 189.679688 156.523438 " fill-opacity="1" fill-rule="nonzero"/><path fill="#030305" d="M 208.613281 156.523438 L 214.695312 156.523438 C 214.957031 156.523438 215.179688 156.613281 215.363281 156.796875 C 215.546875 156.984375 215.636719 157.207031 215.636719 157.464844 L 215.636719 163.5625 C 215.636719 163.824219 215.546875 164.046875 215.363281 164.230469 C 215.179688 164.414062 214.957031 164.507812 214.695312 164.507812 L 208.613281 164.507812 C 208.351562 164.507812 208.128906 164.414062 207.945312 164.230469 C 207.761719 164.046875 207.667969 163.824219 207.667969 163.5625 L 207.667969 157.464844 C 207.667969 157.207031 207.761719 156.984375 207.945312 156.796875 C 208.128906 156.613281 208.351562 156.523438 208.613281 156.523438 Z M 208.613281 156.523438 " fill-opacity="1" fill-rule="nonzero"/><path fill="#030305" d="M 199.144531 156.523438 L 205.230469 156.523438 C 205.492188 156.523438 205.714844 156.613281 205.898438 156.796875 C 206.082031 156.984375 206.171875 157.207031 206.171875 157.464844 L 206.171875 163.5625 C 206.171875 163.824219 206.082031 164.046875 205.898438 164.230469 C 205.714844 164.414062 205.492188 164.507812 205.230469 164.507812 L 199.144531 164.507812 C 198.886719 164.507812 198.664062 164.414062 198.480469 164.230469 C 198.296875 164.046875 198.203125 163.824219 198.203125 163.5625 L 198.203125 157.464844 C 198.203125 157.207031 198.296875 156.984375 198.480469 156.796875 C 198.664062 156.613281 198.886719 156.523438 199.144531 156.523438 Z M 199.144531 156.523438 " fill-opacity="1" fill-rule="nonzero"/><path fill="#030305" d="M 189.679688 166.003906 L 195.765625 166.003906 C 196.027344 166.003906 196.25 166.097656 196.433594 166.28125 C 196.617188 166.464844 196.707031 166.6875 196.707031 166.949219 L 196.707031 173.046875 C 196.707031 173.308594 196.617188 173.53125 196.433594 173.714844 C 196.25 173.898438 196.027344 173.992188 195.765625 173.992188 L 189.679688 173.992188 C 189.421875 173.992188 189.199219 173.898438 189.015625 173.714844 C 188.832031 173.53125 188.738281 173.308594 188.738281 173.046875 L 188.738281 166.949219 C 188.738281 166.6875 188.832031 166.464844 189.015625 166.28125 C 189.199219 166.097656 189.421875 166.003906 189.679688 166.003906 Z M 189.679688 166.003906 " fill-opacity="1" fill-rule="nonzero"/><path fill="#030305" d="M 189.679688 175.488281 L 205.230469 175.488281 C 205.492188 175.488281 205.714844 175.582031 205.898438 175.765625 C 206.082031 175.949219 206.171875 176.171875 206.171875 176.433594 L 206.171875 182.53125 C 206.171875 182.792969 206.082031 183.015625 205.898438 183.199219 C 205.714844 183.382812 205.492188 183.476562 205.230469 183.476562 L 189.679688 183.476562 C 189.421875 183.476562 189.199219 183.382812 189.015625 183.199219 C 188.832031 183.015625 188.738281 182.792969 188.738281 182.53125 L 188.738281 176.433594 C 188.738281 176.171875 188.832031 175.949219 189.015625 175.765625 C 189.199219 175.582031 189.421875 175.488281 189.679688 175.488281 Z M 189.679688 175.488281 " fill-opacity="1" fill-rule="nonzero"/><path fill="#030305" d="M 208.613281 166.003906 L 214.695312 166.003906 C 214.957031 166.003906 215.179688 166.097656 215.363281 166.28125 C 215.546875 166.464844 215.636719 166.6875 215.636719 166.949219 L 215.636719 173.046875 C 215.636719 173.308594 215.546875 173.53125 215.363281 173.714844 C 215.179688 173.898438 214.957031 173.992188 214.695312 173.992188 L 208.613281 173.992188 C 208.351562 173.992188 208.128906 173.898438 207.945312 173.714844 C 207.761719 173.53125 207.667969 173.308594 207.667969 173.046875 L 207.667969 166.949219 C 207.667969 166.6875 207.761719 166.464844 207.945312 166.28125 C 208.128906 166.097656 208.351562 166.003906 208.613281 166.003906 Z M 208.613281 166.003906 " fill-opacity="1" fill-rule="nonzero"/><path fill="#030305" d="M 208.613281 175.488281 L 214.695312 175.488281 C 214.957031 175.488281 215.179688 175.582031 215.363281 175.765625 C 215.546875 175.949219 215.636719 176.171875 215.636719 176.433594 L 215.636719 182.53125 C 215.636719 182.792969 215.546875 183.015625 215.363281 183.199219 C 215.179688 183.382812 214.957031 183.476562 214.695312 183.476562 L 208.613281 183.476562 C 208.351562 183.476562 208.128906 183.382812 207.945312 183.199219 C 207.761719 183.015625 207.667969 182.792969 207.667969 182.53125 L 207.667969 176.433594 C 207.667969 176.171875 207.761719 175.949219 207.945312 175.765625 C 208.128906 175.582031 208.351562 175.488281 208.613281 175.488281 Z M 208.613281 175.488281 " fill-opacity="1" fill-rule="nonzero"/><path fill="#030305" d="M 199.144531 166.003906 L 205.230469 166.003906 C 205.492188 166.003906 205.714844 166.097656 205.898438 166.28125 C 206.082031 166.464844 206.171875 166.6875 206.171875 166.949219 L 206.171875 173.046875 C 206.171875 173.308594 206.082031 173.53125 205.898438 173.714844 C 205.714844 173.898438 205.492188 173.992188 205.230469 173.992188 L 199.144531 173.992188 C 198.886719 173.992188 198.664062 173.898438 198.480469 173.714844 C 198.296875 173.53125 198.203125 173.308594 198.203125 173.046875 L 198.203125 166.949219 C 198.203125 166.6875 198.296875 166.464844 198.480469 166.28125 C 198.664062 166.097656 198.886719 166.003906 199.144531 166.003906 Z M 199.144531 166.003906 " fill-opacity="1" fill-rule="nonzero"/><path fill="#030305" d="M 159.292969 137.554688 L 165.378906 137.554688 C 165.636719 137.554688 165.859375 137.648438 166.042969 137.832031 C 166.230469 138.015625 166.320312 138.238281 166.320312 138.5 L 166.320312 144.597656 C 166.320312 144.855469 166.230469 145.078125 166.042969 145.265625 C 165.859375 145.449219 165.636719 145.539062 165.378906 145.539062 L 159.292969 145.539062 C 159.03125 145.539062 158.8125 145.449219 158.625 145.265625 C 158.441406 145.078125 158.351562 144.855469 158.351562 144.597656 L 158.351562 138.5 C 158.351562 138.238281 158.441406 138.015625 158.625 137.832031 C 158.8125 137.648438 159.03125 137.554688 159.292969 137.554688 Z M 159.292969 137.554688 " fill-opacity="1" fill-rule="nonzero"/><path fill="#030305" d="M 178.222656 137.554688 L 184.308594 137.554688 C 184.566406 137.554688 184.789062 137.648438 184.976562 137.832031 C 185.160156 138.015625 185.25 138.238281 185.25 138.5 L 185.25 144.597656 C 185.25 144.855469 185.160156 145.078125 184.976562 145.265625 C 184.789062 145.449219 184.566406 145.539062 184.308594 145.539062 L 178.222656 145.539062 C 177.964844 145.539062 177.742188 145.449219 177.558594 145.265625 C 177.371094 145.078125 177.28125 144.855469 177.28125 144.597656 L 177.28125 138.5 C 177.28125 138.238281 177.371094 138.015625 177.558594 137.832031 C 177.742188 137.648438 177.964844 137.554688 178.222656 137.554688 Z M 178.222656 137.554688 " fill-opacity="1" fill-rule="nonzero"/><path fill="#030305" d="M 168.757812 137.554688 L 174.84375 137.554688 C 175.101562 137.554688 175.324219 137.648438 175.507812 137.832031 C 175.695312 138.015625 175.785156 138.238281 175.785156 138.5 L 175.785156 144.597656 C 175.785156 144.855469 175.695312 145.078125 175.507812 145.265625 C 175.324219 145.449219 175.101562 145.539062 174.84375 145.539062 L 168.757812 145.539062 C 168.5 145.539062 168.277344 145.449219 168.089844 145.265625 C 167.90625 145.078125 167.816406 144.855469 167.816406 144.597656 L 167.816406 138.5 C 167.816406 138.238281 167.90625 138.015625 168.089844 137.832031 C 168.277344 137.648438 168.5 137.554688 168.757812 137.554688 Z M 168.757812 137.554688 " fill-opacity="1" fill-rule="nonzero"/><path fill="#030305" d="M 159.292969 147.039062 L 165.378906 147.039062 C 165.636719 147.039062 165.859375 147.128906 166.042969 147.316406 C 166.230469 147.5 166.320312 147.722656 166.320312 147.984375 L 166.320312 154.078125 C 166.320312 154.339844 166.230469 154.5625 166.042969 154.746094 C 165.859375 154.933594 165.636719 155.023438 165.378906 155.023438 L 159.292969 155.023438 C 159.03125 155.023438 158.8125 154.933594 158.625 154.746094 C 158.441406 154.5625 158.351562 154.339844 158.351562 154.078125 L 158.351562 147.984375 C 158.351562 147.722656 158.441406 147.5 158.625 147.316406 C 158.8125 147.128906 159.03125 147.039062 159.292969 147.039062 Z M 159.292969 147.039062 " fill-opacity="1" fill-rule="nonzero"/><path fill="#030305" d="M 178.222656 147.039062 L 184.308594 147.039062 C 184.566406 147.039062 184.789062 147.128906 184.976562 147.316406 C 185.160156 147.5 185.25 147.722656 185.25 147.984375 L 185.25 154.078125 C 185.25 154.339844 185.160156 154.5625 184.976562 154.746094 C 184.789062 154.933594 184.566406 155.023438 184.308594 155.023438 L 178.222656 155.023438 C 177.964844 155.023438 177.742188 154.933594 177.558594 154.746094 C 177.371094 154.5625 177.28125 154.339844 177.28125 154.078125 L 177.28125 147.984375 C 177.28125 147.722656 177.371094 147.5 177.558594 147.316406 C 177.742188 147.128906 177.964844 147.039062 178.222656 147.039062 Z M 178.222656 147.039062 " fill-opacity="1" fill-rule="nonzero"/><path fill="#030305" d="M 168.757812 147.039062 L 174.84375 147.039062 C 175.101562 147.039062 175.324219 147.128906 175.507812 147.316406 C 175.695312 147.5 175.785156 147.722656 175.785156 147.984375 L 175.785156 154.078125 C 175.785156 154.339844 175.695312 154.5625 175.507812 154.746094 C 175.324219 154.933594 175.101562 155.023438 174.84375 155.023438 L 168.757812 155.023438 C 168.5 155.023438 168.277344 154.933594 168.089844 154.746094 C 167.90625 154.5625 167.816406 154.339844 167.816406 154.078125 L 167.816406 147.984375 C 167.816406 147.722656 167.90625 147.5 168.089844 147.316406 C 168.277344 147.128906 168.5 147.039062 168.757812 147.039062 Z M 168.757812 147.039062 " fill-opacity="1" fill-rule="nonzero"/><path fill="#fffffa" d="M 159.292969 175.488281 L 165.378906 175.488281 C 165.636719 175.488281 165.859375 175.582031 166.042969 175.765625 C 166.230469 175.949219 166.320312 176.171875 166.320312 176.433594 L 166.320312 182.53125 C 166.320312 182.792969 166.230469 183.015625 166.042969 183.199219 C 165.859375 183.382812 165.636719 183.476562 165.378906 183.476562 L 159.292969 183.476562 C 159.03125 183.476562 158.8125 183.382812 158.625 183.199219 C 158.441406 183.015625 158.351562 182.792969 158.351562 182.53125 L 158.351562 176.433594 C 158.351562 176.171875 158.441406 175.949219 158.625 175.765625 C 158.8125 175.582031 159.03125 175.488281 159.292969 175.488281 Z M 159.292969 175.488281 " fill-opacity="1" fill-rule="nonzero"/><path fill="#fffffa" d="M 178.222656 175.488281 L 184.308594 175.488281 C 184.566406 175.488281 184.789062 175.582031 184.976562 175.765625 C 185.160156 175.949219 185.25 176.171875 185.25 176.433594 L 185.25 182.53125 C 185.25 182.792969 185.160156 183.015625 184.976562 183.199219 C 184.789062 183.382812 184.566406 183.476562 184.308594 183.476562 L 178.222656 183.476562 C 177.964844 183.476562 177.742188 183.382812 177.558594 183.199219 C 177.371094 183.015625 177.28125 182.792969 177.28125 182.53125 L 177.28125 176.433594 C 177.28125 176.171875 177.371094 175.949219 177.558594 175.765625 C 177.742188 175.582031 177.964844 175.488281 178.222656 175.488281 Z M 178.222656 175.488281 " fill-opacity="1" fill-rule="nonzero"/><path fill="#fffffa" d="M 168.757812 175.488281 L 174.84375 175.488281 C 175.101562 175.488281 175.324219 175.582031 175.507812 175.765625 C 175.695312 175.949219 175.785156 176.171875 175.785156 176.433594 L 175.785156 182.53125 C 175.785156 182.792969 175.695312 183.015625 175.507812 183.199219 C 175.324219 183.382812 175.101562 183.476562 174.84375 183.476562 L 168.757812 183.476562 C 168.5 183.476562 168.277344 183.382812 168.089844 183.199219 C 167.90625 183.015625 167.816406 182.792969 167.816406 182.53125 L 167.816406 176.433594 C 167.816406 176.171875 167.90625 175.949219 168.089844 175.765625 C 168.277344 175.582031 168.5 175.488281 168.757812 175.488281 Z M 168.757812 175.488281 " fill-opacity="1" fill-rule="nonzero"/><path fill="#fffffa" d="M 168.757812 166.003906 L 174.84375 166.003906 C 175.101562 166.003906 175.324219 166.097656 175.507812 166.28125 C 175.695312 166.464844 175.785156 166.6875 175.785156 166.949219 L 175.785156 173.046875 C 175.785156 173.308594 175.695312 173.53125 175.507812 173.714844 C 175.324219 173.898438 175.101562 173.992188 174.84375 173.992188 L 168.757812 173.992188 C 168.5 173.992188 168.277344 173.898438 168.089844 173.714844 C 167.90625 173.53125 167.816406 173.308594 167.816406 173.046875 L 167.816406 166.949219 C 167.816406 166.6875 167.90625 166.464844 168.089844 166.28125 C 168.277344 166.097656 168.5 166.003906 168.757812 166.003906 Z M 168.757812 166.003906 " fill-opacity="1" fill-rule="nonzero"/><path fill="#030305" d="M 37.496094 166.003906 L 43.578125 166.003906 C 43.839844 166.003906 44.0625 166.097656 44.246094 166.28125 C 44.429688 166.464844 44.523438 166.6875 44.523438 166.949219 L 44.523438 173.046875 C 44.523438 173.308594 44.429688 173.53125 44.246094 173.714844 C 44.0625 173.898438 43.839844 173.992188 43.578125 173.992188 L 37.496094 173.992188 C 37.234375 173.992188 37.011719 173.898438 36.828125 173.714844 C 36.644531 173.53125 36.550781 173.308594 36.550781 173.046875 L 36.550781 166.949219 C 36.550781 166.6875 36.644531 166.464844 36.828125 166.28125 C 37.011719 166.097656 37.234375 166.003906 37.496094 166.003906 Z M 37.496094 166.003906 " fill-opacity="1" fill-rule="nonzero"/><path fill="#030305" d="M 46.960938 166.003906 L 53.042969 166.003906 C 53.304688 166.003906 53.527344 166.097656 53.710938 166.28125 C 53.894531 166.464844 53.988281 166.6875 53.988281 166.949219 L 53.988281 173.046875 C 53.988281 173.308594 53.894531 173.53125 53.710938 173.714844 C 53.527344 173.898438 53.304688 173.992188 53.042969 173.992188 L 46.960938 173.992188 C 46.699219 173.992188 46.476562 173.898438 46.292969 173.714844 C 46.109375 173.53125 46.015625 173.308594 46.015625 173.046875 L 46.015625 166.949219 C 46.015625 166.6875 46.109375 166.464844 46.292969 166.28125 C 46.476562 166.097656 46.699219 166.003906 46.960938 166.003906 Z M 46.960938 166.003906 " fill-opacity="1" fill-rule="nonzero"/><path fill="#030305" d="M 65.890625 166.003906 L 71.972656 166.003906 C 72.234375 166.003906 72.457031 166.097656 72.640625 166.28125 C 72.824219 166.464844 72.917969 166.6875 72.917969 166.949219 L 72.917969 173.046875 C 72.917969 173.308594 72.824219 173.53125 72.640625 173.714844 C 72.457031 173.898438 72.234375 173.992188 71.972656 173.992188 L 65.890625 173.992188 C 65.628906 173.992188 65.40625 173.898438 65.222656 173.714844 C 65.039062 173.53125 64.945312 173.308594 64.945312 173.046875 L 64.945312 166.949219 C 64.945312 166.6875 65.039062 166.464844 65.222656 166.28125 C 65.40625 166.097656 65.628906 166.003906 65.890625 166.003906 Z M 65.890625 166.003906 " fill-opacity="1" fill-rule="nonzero"/><path fill="#030305" d="M 75.355469 166.003906 L 81.4375 166.003906 C 81.699219 166.003906 81.921875 166.097656 82.105469 166.28125 C 82.289062 166.464844 82.382812 166.6875 82.382812 166.949219 L 82.382812 173.046875 C 82.382812 173.308594 82.289062 173.53125 82.105469 173.714844 C 81.921875 173.898438 81.699219 173.992188 81.4375 173.992188 L 75.355469 173.992188 C 75.09375 173.992188 74.871094 173.898438 74.6875 173.714844 C 74.503906 173.53125 74.410156 173.308594 74.410156 173.046875 L 74.410156 166.949219 C 74.410156 166.6875 74.503906 166.464844 74.6875 166.28125 C 74.871094 166.097656 75.09375 166.003906 75.355469 166.003906 Z M 75.355469 166.003906 " fill-opacity="1" fill-rule="nonzero"/><path fill="#030305" d="M 56.425781 166.003906 L 62.507812 166.003906 C 62.769531 166.003906 62.992188 166.097656 63.175781 166.28125 C 63.359375 166.464844 63.453125 166.6875 63.453125 166.949219 L 63.453125 173.046875 C 63.453125 173.308594 63.359375 173.53125 63.175781 173.714844 C 62.992188 173.898438 62.769531 173.992188 62.507812 173.992188 L 56.425781 173.992188 C 56.164062 173.992188 55.941406 173.898438 55.757812 173.714844 C 55.574219 173.53125 55.480469 173.308594 55.480469 173.046875 L 55.480469 166.949219 C 55.480469 166.6875 55.574219 166.464844 55.757812 166.28125 C 55.941406 166.097656 56.164062 166.003906 56.425781 166.003906 Z M 56.425781 166.003906 " fill-opacity="1" fill-rule="nonzero"/><path fill="#030305" d="M 84.820312 166.003906 L 90.902344 166.003906 C 91.164062 166.003906 91.386719 166.097656 91.570312 166.28125 C 91.753906 166.464844 91.847656 166.6875 91.847656 166.949219 L 91.847656 173.046875 C 91.847656 173.308594 91.753906 173.53125 91.570312 173.714844 C 91.386719 173.898438 91.164062 173.992188 90.902344 173.992188 L 84.820312 173.992188 C 84.558594 173.992188 84.335938 173.898438 84.152344 173.714844 C 83.96875 173.53125 83.875 173.308594 83.875 173.046875 L 83.875 166.949219 C 83.875 166.6875 83.96875 166.464844 84.152344 166.28125 C 84.335938 166.097656 84.558594 166.003906 84.820312 166.003906 Z M 84.820312 166.003906 " fill-opacity="1" fill-rule="nonzero"/><path fill="#030305" d="M 94.285156 166.003906 L 100.367188 166.003906 C 100.628906 166.003906 100.851562 166.097656 101.035156 166.28125 C 101.21875 166.464844 101.3125 166.6875 101.3125 166.949219 L 101.3125 173.046875 C 101.3125 173.308594 101.21875 173.53125 101.035156 173.714844 C 100.851562 173.898438 100.628906 173.992188 100.367188 173.992188 L 94.285156 173.992188 C 94.023438 173.992188 93.800781 173.898438 93.617188 173.714844 C 93.433594 173.53125 93.339844 173.308594 93.339844 173.046875 L 93.339844 166.949219 C 93.339844 166.6875 93.433594 166.464844 93.617188 166.28125 C 93.800781 166.097656 94.023438 166.003906 94.285156 166.003906 Z M 94.285156 166.003906 " fill-opacity="1" fill-rule="nonzero"/><path fill="#030305" d="M 113.214844 166.003906 L 119.296875 166.003906 C 119.558594 166.003906 119.78125 166.097656 119.964844 166.28125 C 120.148438 166.464844 120.242188 166.6875 120.242188 166.949219 L 120.242188 173.046875 C 120.242188 173.308594 120.148438 173.53125 119.964844 173.714844 C 119.78125 173.898438 119.558594 173.992188 119.296875 173.992188 L 113.214844 173.992188 C 112.953125 173.992188 112.730469 173.898438 112.546875 173.714844 C 112.363281 173.53125 112.269531 173.308594 112.269531 173.046875 L 112.269531 166.949219 C 112.269531 166.6875 112.363281 166.464844 112.546875 166.28125 C 112.730469 166.097656 112.953125 166.003906 113.214844 166.003906 Z M 113.214844 166.003906 " fill-opacity="1" fill-rule="nonzero"/><path fill="#030305" d="M 122.679688 166.003906 L 128.761719 166.003906 C 129.023438 166.003906 129.246094 166.097656 129.429688 166.28125 C 129.613281 166.464844 129.707031 166.6875 129.707031 166.949219 L 129.707031 173.046875 C 129.707031 173.308594 129.613281 173.53125 129.429688 173.714844 C 129.246094 173.898438 129.023438 173.992188 128.761719 173.992188 L 122.679688 173.992188 C 122.417969 173.992188 122.195312 173.898438 122.011719 173.714844 C 121.828125 173.53125 121.734375 173.308594 121.734375 173.046875 L 121.734375 166.949219 C 121.734375 166.6875 121.828125 166.464844 122.011719 166.28125 C 122.195312 166.097656 122.417969 166.003906 122.679688 166.003906 Z M 122.679688 166.003906 " fill-opacity="1" fill-rule="nonzero"/><path fill="#030305" d="M 132.144531 166.003906 L 153.644531 166.003906 C 153.90625 166.003906 154.128906 166.097656 154.3125 166.28125 C 154.496094 166.464844 154.585938 166.6875 154.585938 166.949219 L 154.585938 173.046875 C 154.585938 173.308594 154.496094 173.53125 154.3125 173.714844 C 154.128906 173.898438 153.90625 173.992188 153.644531 173.992188 L 132.144531 173.992188 C 131.882812 173.992188 131.660156 173.898438 131.476562 173.714844 C 131.292969 173.53125 131.203125 173.308594 131.203125 173.046875 L 131.203125 166.949219 C 131.203125 166.6875 131.292969 166.464844 131.476562 166.28125 C 131.660156 166.097656 131.882812 166.003906 132.144531 166.003906 Z M 132.144531 166.003906 " fill-opacity="1" fill-rule="nonzero"/><path fill="#030305" d="M 103.75 166.003906 L 109.832031 166.003906 C 110.09375 166.003906 110.316406 166.097656 110.5 166.28125 C 110.683594 166.464844 110.777344 166.6875 110.777344 166.949219 L 110.777344 173.046875 C 110.777344 173.308594 110.683594 173.53125 110.5 173.714844 C 110.316406 173.898438 110.09375 173.992188 109.832031 173.992188 L 103.75 173.992188 C 103.488281 173.992188 103.265625 173.898438 103.082031 173.714844 C 102.898438 173.53125 102.804688 173.308594 102.804688 173.046875 L 102.804688 166.949219 C 102.804688 166.6875 102.898438 166.464844 103.082031 166.28125 C 103.265625 166.097656 103.488281 166.003906 103.75 166.003906 Z M 103.75 166.003906 " fill-opacity="1" fill-rule="nonzero"/><path fill="#030305" d="M 38.988281 147.039062 L 45.074219 147.039062 C 45.332031 147.039062 45.554688 147.128906 45.738281 147.316406 C 45.925781 147.5 46.015625 147.722656 46.015625 147.984375 L 46.015625 154.078125 C 46.015625 154.339844 45.925781 154.5625 45.738281 154.746094 C 45.554688 154.933594 45.332031 155.023438 45.074219 155.023438 L 38.988281 155.023438 C 38.726562 155.023438 38.507812 154.933594 38.320312 154.746094 C 38.136719 154.5625 38.046875 154.339844 38.046875 154.078125 L 38.046875 147.984375 C 38.046875 147.722656 38.136719 147.5 38.320312 147.316406 C 38.507812 147.128906 38.726562 147.039062 38.988281 147.039062 Z M 38.988281 147.039062 " fill-opacity="1" fill-rule="nonzero"/><path fill="#030305" d="M 29.523438 147.039062 L 35.609375 147.039062 C 35.867188 147.039062 36.089844 147.128906 36.273438 147.316406 C 36.460938 147.5 36.550781 147.722656 36.550781 147.984375 L 36.550781 154.078125 C 36.550781 154.339844 36.460938 154.5625 36.273438 154.746094 C 36.089844 154.933594 35.867188 155.023438 35.609375 155.023438 L 29.523438 155.023438 C 29.261719 155.023438 29.042969 154.933594 28.855469 154.746094 C 28.671875 154.5625 28.582031 154.339844 28.582031 154.078125 L 28.582031 147.984375 C 28.582031 147.722656 28.671875 147.5 28.855469 147.316406 C 29.042969 147.128906 29.261719 147.039062 29.523438 147.039062 Z M 29.523438 147.039062 " fill-opacity="1" fill-rule="nonzero"/><path fill="#030305" d="M 15.574219 147.039062 L 26.117188 147.039062 C 26.378906 147.039062 26.601562 147.128906 26.785156 147.316406 C 26.96875 147.5 27.058594 147.722656 27.058594 147.984375 L 27.058594 154.078125 C 27.058594 154.339844 26.96875 154.5625 26.785156 154.746094 C 26.601562 154.933594 26.378906 155.023438 26.117188 155.023438 L 15.574219 155.023438 C 15.316406 155.023438 15.09375 154.933594 14.910156 154.746094 C 14.726562 154.5625 14.632812 154.339844 14.632812 154.078125 L 14.632812 147.984375 C 14.632812 147.722656 14.726562 147.5 14.910156 147.316406 C 15.09375 147.128906 15.316406 147.039062 15.574219 147.039062 Z M 15.574219 147.039062 " fill-opacity="1" fill-rule="nonzero"/><path fill="#030305" d="M 143.105469 147.039062 L 153.644531 147.039062 C 153.90625 147.039062 154.128906 147.128906 154.3125 147.316406 C 154.496094 147.5 154.585938 147.722656 154.585938 147.984375 L 154.585938 154.078125 C 154.585938 154.339844 154.496094 154.5625 154.3125 154.746094 C 154.128906 154.933594 153.90625 155.023438 153.644531 155.023438 L 143.105469 155.023438 C 142.84375 155.023438 142.621094 154.933594 142.4375 154.746094 C 142.253906 154.5625 142.160156 154.339844 142.160156 154.078125 L 142.160156 147.984375 C 142.160156 147.722656 142.253906 147.5 142.4375 147.316406 C 142.621094 147.128906 142.84375 147.039062 143.105469 147.039062 Z M 143.105469 147.039062 " fill-opacity="1" fill-rule="nonzero"/><path fill="#030305" d="M 136.628906 156.523438 L 153.644531 156.523438 C 153.90625 156.523438 154.128906 156.613281 154.3125 156.796875 C 154.496094 156.984375 154.585938 157.207031 154.585938 157.464844 L 154.585938 163.5625 C 154.585938 163.824219 154.496094 164.046875 154.3125 164.230469 C 154.128906 164.414062 153.90625 164.507812 153.644531 164.507812 L 136.628906 164.507812 C 136.367188 164.507812 136.144531 164.414062 135.960938 164.230469 C 135.777344 164.046875 135.683594 163.824219 135.683594 163.5625 L 135.683594 157.464844 C 135.683594 157.207031 135.777344 156.984375 135.960938 156.796875 C 136.144531 156.613281 136.367188 156.523438 136.628906 156.523438 Z M 136.628906 156.523438 " fill-opacity="1" fill-rule="nonzero"/><path fill="#030305" d="M 15.574219 156.523438 L 29.132812 156.523438 C 29.394531 156.523438 29.613281 156.613281 29.800781 156.796875 C 29.984375 156.984375 30.074219 157.207031 30.074219 157.464844 L 30.074219 163.5625 C 30.074219 163.824219 29.984375 164.046875 29.800781 164.230469 C 29.613281 164.414062 29.394531 164.507812 29.132812 164.507812 L 15.574219 164.507812 C 15.316406 164.507812 15.09375 164.414062 14.910156 164.230469 C 14.726562 164.046875 14.632812 163.824219 14.632812 163.5625 L 14.632812 157.464844 C 14.632812 157.207031 14.726562 156.984375 14.910156 156.796875 C 15.09375 156.613281 15.316406 156.523438 15.574219 156.523438 Z M 15.574219 156.523438 " fill-opacity="1" fill-rule="nonzero"/><path fill="#030305" d="M 15.574219 166.003906 L 34.0625 166.003906 C 34.320312 166.003906 34.542969 166.097656 34.726562 166.28125 C 34.910156 166.464844 35.003906 166.6875 35.003906 166.949219 L 35.003906 173.046875 C 35.003906 173.308594 34.910156 173.53125 34.726562 173.714844 C 34.542969 173.898438 34.320312 173.992188 34.0625 173.992188 L 15.574219 173.992188 C 15.316406 173.992188 15.09375 173.898438 14.910156 173.714844 C 14.726562 173.53125 14.632812 173.308594 14.632812 173.046875 L 14.632812 166.949219 C 14.632812 166.6875 14.726562 166.464844 14.910156 166.28125 C 15.09375 166.097656 15.316406 166.003906 15.574219 166.003906 Z M 15.574219 166.003906 " fill-opacity="1" fill-rule="nonzero"/><path fill="#030305" d="M 15.574219 175.488281 L 24.597656 175.488281 C 24.855469 175.488281 25.078125 175.582031 25.261719 175.765625 C 25.445312 175.949219 25.539062 176.171875 25.539062 176.433594 L 25.539062 182.53125 C 25.539062 182.792969 25.445312 183.015625 25.261719 183.199219 C 25.078125 183.382812 24.855469 183.476562 24.597656 183.476562 L 15.574219 183.476562 C 15.316406 183.476562 15.09375 183.382812 14.910156 183.199219 C 14.726562 183.015625 14.632812 182.792969 14.632812 182.53125 L 14.632812 176.433594 C 14.632812 176.171875 14.726562 175.949219 14.910156 175.765625 C 15.09375 175.582031 15.316406 175.488281 15.574219 175.488281 Z M 15.574219 175.488281 " fill-opacity="1" fill-rule="nonzero"/><path fill="#030305" d="M 27.976562 175.488281 L 36.996094 175.488281 C 37.257812 175.488281 37.480469 175.582031 37.664062 175.765625 C 37.847656 175.949219 37.9375 176.171875 37.9375 176.433594 L 37.9375 182.53125 C 37.9375 182.792969 37.847656 183.015625 37.664062 183.199219 C 37.480469 183.382812 37.257812 183.476562 36.996094 183.476562 L 27.976562 183.476562 C 27.714844 183.476562 27.492188 183.382812 27.308594 183.199219 C 27.125 183.015625 27.03125 182.792969 27.03125 182.53125 L 27.03125 176.433594 C 27.03125 176.171875 27.125 175.949219 27.308594 175.765625 C 27.492188 175.582031 27.714844 175.488281 27.976562 175.488281 Z M 27.976562 175.488281 " fill-opacity="1" fill-rule="nonzero"/><path fill="#030305" d="M 40.375 175.488281 L 49.398438 175.488281 C 49.65625 175.488281 49.878906 175.582031 50.0625 175.765625 C 50.246094 175.949219 50.339844 176.171875 50.339844 176.433594 L 50.339844 182.53125 C 50.339844 182.792969 50.246094 183.015625 50.0625 183.199219 C 49.878906 183.382812 49.65625 183.476562 49.398438 183.476562 L 40.375 183.476562 C 40.117188 183.476562 39.894531 183.382812 39.710938 183.199219 C 39.527344 183.015625 39.433594 182.792969 39.433594 182.53125 L 39.433594 176.433594 C 39.433594 176.171875 39.527344 175.949219 39.710938 175.765625 C 39.894531 175.582031 40.117188 175.488281 40.375 175.488281 Z M 40.375 175.488281 " fill-opacity="1" fill-rule="nonzero"/><path fill="#030305" d="M 145.566406 175.488281 L 153.589844 175.488281 C 153.851562 175.488281 154.074219 175.582031 154.257812 175.765625 C 154.441406 175.949219 154.535156 176.171875 154.535156 176.433594 L 154.535156 182.53125 C 154.535156 182.792969 154.441406 183.015625 154.257812 183.199219 C 154.074219 183.382812 153.851562 183.476562 153.589844 183.476562 L 145.566406 183.476562 C 145.308594 183.476562 145.085938 183.382812 144.902344 183.199219 C 144.71875 183.015625 144.625 182.792969 144.625 182.53125 L 144.625 176.433594 C 144.625 176.171875 144.71875 175.949219 144.902344 175.765625 C 145.085938 175.582031 145.308594 175.488281 145.566406 175.488281 Z M 145.566406 175.488281 " fill-opacity="1" fill-rule="nonzero"/><path fill="#030305" d="M 134.164062 175.488281 L 142.1875 175.488281 C 142.449219 175.488281 142.671875 175.582031 142.855469 175.765625 C 143.039062 175.949219 143.128906 176.171875 143.128906 176.433594 L 143.128906 182.53125 C 143.128906 182.792969 143.039062 183.015625 142.855469 183.199219 C 142.671875 183.382812 142.449219 183.476562 142.1875 183.476562 L 134.164062 183.476562 C 133.902344 183.476562 133.679688 183.382812 133.496094 183.199219 C 133.3125 183.015625 133.21875 182.792969 133.21875 182.53125 L 133.21875 176.433594 C 133.21875 176.171875 133.3125 175.949219 133.496094 175.765625 C 133.679688 175.582031 133.902344 175.488281 134.164062 175.488281 Z M 134.164062 175.488281 " fill-opacity="1" fill-rule="nonzero"/><path fill="#030305" d="M 122.679688 175.488281 L 130.703125 175.488281 C 130.964844 175.488281 131.1875 175.582031 131.371094 175.765625 C 131.554688 175.949219 131.644531 176.171875 131.644531 176.433594 L 131.644531 182.53125 C 131.644531 182.792969 131.554688 183.015625 131.371094 183.199219 C 131.1875 183.382812 130.964844 183.476562 130.703125 183.476562 L 122.679688 183.476562 C 122.417969 183.476562 122.195312 183.382812 122.011719 183.199219 C 121.828125 183.015625 121.734375 182.792969 121.734375 182.53125 L 121.734375 176.433594 C 121.734375 176.171875 121.828125 175.949219 122.011719 175.765625 C 122.195312 175.582031 122.417969 175.488281 122.679688 175.488281 Z M 122.679688 175.488281 " fill-opacity="1" fill-rule="nonzero"/><path fill="#030305" d="M 111.25 175.488281 L 119.273438 175.488281 C 119.53125 175.488281 119.753906 175.582031 119.9375 175.765625 C 120.121094 175.949219 120.214844 176.171875 120.214844 176.433594 L 120.214844 182.53125 C 120.214844 182.792969 120.121094 183.015625 119.9375 183.199219 C 119.753906 183.382812 119.53125 183.476562 119.273438 183.476562 L 111.25 183.476562 C 110.988281 183.476562 110.765625 183.382812 110.582031 183.199219 C 110.398438 183.015625 110.304688 182.792969 110.304688 182.53125 L 110.304688 176.433594 C 110.304688 176.171875 110.398438 175.949219 110.582031 175.765625 C 110.765625 175.582031 110.988281 175.488281 111.25 175.488281 Z M 111.25 175.488281 " fill-opacity="1" fill-rule="nonzero"/><path fill="#030305" d="M 52.777344 175.488281 L 107.867188 175.488281 C 108.128906 175.488281 108.351562 175.582031 108.535156 175.765625 C 108.71875 175.949219 108.808594 176.171875 108.808594 176.433594 L 108.808594 182.53125 C 108.808594 182.792969 108.71875 183.015625 108.535156 183.199219 C 108.351562 183.382812 108.128906 183.476562 107.867188 183.476562 L 52.777344 183.476562 C 52.515625 183.476562 52.292969 183.382812 52.109375 183.199219 C 51.925781 183.015625 51.835938 182.792969 51.835938 182.53125 L 51.835938 176.433594 C 51.835938 176.171875 51.925781 175.949219 52.109375 175.765625 C 52.292969 175.582031 52.515625 175.488281 52.777344 175.488281 Z M 52.777344 175.488281 " fill-opacity="1" fill-rule="nonzero"/><path fill="#030305" d="M 48.453125 147.039062 L 54.539062 147.039062 C 54.800781 147.039062 55.019531 147.128906 55.207031 147.316406 C 55.390625 147.5 55.480469 147.722656 55.480469 147.984375 L 55.480469 154.078125 C 55.480469 154.339844 55.390625 154.5625 55.207031 154.746094 C 55.019531 154.933594 54.800781 155.023438 54.539062 155.023438 L 48.453125 155.023438 C 48.195312 155.023438 47.972656 154.933594 47.785156 154.746094 C 47.601562 154.5625 47.511719 154.339844 47.511719 154.078125 L 47.511719 147.984375 C 47.511719 147.722656 47.601562 147.5 47.785156 147.316406 C 47.972656 147.128906 48.195312 147.039062 48.453125 147.039062 Z M 48.453125 147.039062 " fill-opacity="1" fill-rule="nonzero"/><path fill="#030305" d="M 67.382812 147.039062 L 73.46875 147.039062 C 73.730469 147.039062 73.953125 147.128906 74.136719 147.316406 C 74.320312 147.5 74.410156 147.722656 74.410156 147.984375 L 74.410156 154.078125 C 74.410156 154.339844 74.320312 154.5625 74.136719 154.746094 C 73.953125 154.933594 73.730469 155.023438 73.46875 155.023438 L 67.382812 155.023438 C 67.125 155.023438 66.902344 154.933594 66.71875 154.746094 C 66.53125 154.5625 66.441406 154.339844 66.441406 154.078125 L 66.441406 147.984375 C 66.441406 147.722656 66.53125 147.5 66.71875 147.316406 C 66.902344 147.128906 67.125 147.039062 67.382812 147.039062 Z M 67.382812 147.039062 " fill-opacity="1" fill-rule="nonzero"/><path fill="#030305" d="M 76.847656 147.039062 L 82.933594 147.039062 C 83.195312 147.039062 83.414062 147.128906 83.601562 147.316406 C 83.785156 147.5 83.875 147.722656 83.875 147.984375 L 83.875 154.078125 C 83.875 154.339844 83.785156 154.5625 83.601562 154.746094 C 83.414062 154.933594 83.195312 155.023438 82.933594 155.023438 L 76.847656 155.023438 C 76.589844 155.023438 76.367188 154.933594 76.183594 154.746094 C 75.996094 154.5625 75.90625 154.339844 75.90625 154.078125 L 75.90625 147.984375 C 75.90625 147.722656 75.996094 147.5 76.183594 147.316406 C 76.367188 147.128906 76.589844 147.039062 76.847656 147.039062 Z M 76.847656 147.039062 " fill-opacity="1" fill-rule="nonzero"/><path fill="#030305" d="M 57.917969 147.039062 L 64.003906 147.039062 C 64.261719 147.039062 64.484375 147.128906 64.671875 147.316406 C 64.855469 147.5 64.945312 147.722656 64.945312 147.984375 L 64.945312 154.078125 C 64.945312 154.339844 64.855469 154.5625 64.671875 154.746094 C 64.484375 154.933594 64.261719 155.023438 64.003906 155.023438 L 57.917969 155.023438 C 57.660156 155.023438 57.4375 154.933594 57.253906 154.746094 C 57.066406 154.5625 56.976562 154.339844 56.976562 154.078125 L 56.976562 147.984375 C 56.976562 147.722656 57.066406 147.5 57.253906 147.316406 C 57.4375 147.128906 57.660156 147.039062 57.917969 147.039062 Z M 57.917969 147.039062 " fill-opacity="1" fill-rule="nonzero"/><path fill="#030305" d="M 86.3125 147.039062 L 92.398438 147.039062 C 92.660156 147.039062 92.882812 147.128906 93.066406 147.316406 C 93.25 147.5 93.339844 147.722656 93.339844 147.984375 L 93.339844 154.078125 C 93.339844 154.339844 93.25 154.5625 93.066406 154.746094 C 92.882812 154.933594 92.660156 155.023438 92.398438 155.023438 L 86.3125 155.023438 C 86.054688 155.023438 85.832031 154.933594 85.648438 154.746094 C 85.464844 154.5625 85.371094 154.339844 85.371094 154.078125 L 85.371094 147.984375 C 85.371094 147.722656 85.464844 147.5 85.648438 147.316406 C 85.832031 147.128906 86.054688 147.039062 86.3125 147.039062 Z M 86.3125 147.039062 " fill-opacity="1" fill-rule="nonzero"/><path fill="#030305" d="M 95.777344 147.039062 L 101.863281 147.039062 C 102.125 147.039062 102.347656 147.128906 102.53125 147.316406 C 102.714844 147.5 102.804688 147.722656 102.804688 147.984375 L 102.804688 154.078125 C 102.804688 154.339844 102.714844 154.5625 102.53125 154.746094 C 102.347656 154.933594 102.125 155.023438 101.863281 155.023438 L 95.777344 155.023438 C 95.519531 155.023438 95.296875 154.933594 95.113281 154.746094 C 94.929688 154.5625 94.835938 154.339844 94.835938 154.078125 L 94.835938 147.984375 C 94.835938 147.722656 94.929688 147.5 95.113281 147.316406 C 95.296875 147.128906 95.519531 147.039062 95.777344 147.039062 Z M 95.777344 147.039062 " fill-opacity="1" fill-rule="nonzero"/><path fill="#030305" d="M 114.707031 147.039062 L 120.792969 147.039062 C 121.054688 147.039062 121.277344 147.128906 121.460938 147.316406 C 121.644531 147.5 121.734375 147.722656 121.734375 147.984375 L 121.734375 154.078125 C 121.734375 154.339844 121.644531 154.5625 121.460938 154.746094 C 121.277344 154.933594 121.054688 155.023438 120.792969 155.023438 L 114.707031 155.023438 C 114.449219 155.023438 114.226562 154.933594 114.042969 154.746094 C 113.859375 154.5625 113.765625 154.339844 113.765625 154.078125 L 113.765625 147.984375 C 113.765625 147.722656 113.859375 147.5 114.042969 147.316406 C 114.226562 147.128906 114.449219 147.039062 114.707031 147.039062 Z M 114.707031 147.039062 " fill-opacity="1" fill-rule="nonzero"/><path fill="#030305" d="M 124.171875 147.039062 L 130.257812 147.039062 C 130.519531 147.039062 130.742188 147.128906 130.925781 147.316406 C 131.109375 147.5 131.199219 147.722656 131.199219 147.984375 L 131.199219 154.078125 C 131.199219 154.339844 131.109375 154.5625 130.925781 154.746094 C 130.742188 154.933594 130.519531 155.023438 130.257812 155.023438 L 124.171875 155.023438 C 123.914062 155.023438 123.691406 154.933594 123.507812 154.746094 C 123.324219 154.5625 123.230469 154.339844 123.230469 154.078125 L 123.230469 147.984375 C 123.230469 147.722656 123.324219 147.5 123.507812 147.316406 C 123.691406 147.128906 123.914062 147.039062 124.171875 147.039062 Z M 124.171875 147.039062 " fill-opacity="1" fill-rule="nonzero"/><path fill="#030305" d="M 133.636719 147.039062 L 139.722656 147.039062 C 139.984375 147.039062 140.207031 147.128906 140.390625 147.316406 C 140.574219 147.5 140.664062 147.722656 140.664062 147.984375 L 140.664062 154.078125 C 140.664062 154.339844 140.574219 154.5625 140.390625 154.746094 C 140.207031 154.933594 139.984375 155.023438 139.722656 155.023438 L 133.636719 155.023438 C 133.378906 155.023438 133.15625 154.933594 132.972656 154.746094 C 132.789062 154.5625 132.695312 154.339844 132.695312 154.078125 L 132.695312 147.984375 C 132.695312 147.722656 132.789062 147.5 132.972656 147.316406 C 133.15625 147.128906 133.378906 147.039062 133.636719 147.039062 Z M 133.636719 147.039062 " fill-opacity="1" fill-rule="nonzero"/><path fill="#030305" d="M 105.242188 147.039062 L 111.328125 147.039062 C 111.589844 147.039062 111.8125 147.128906 111.996094 147.316406 C 112.179688 147.5 112.269531 147.722656 112.269531 147.984375 L 112.269531 154.078125 C 112.269531 154.339844 112.179688 154.5625 111.996094 154.746094 C 111.8125 154.933594 111.589844 155.023438 111.328125 155.023438 L 105.242188 155.023438 C 104.984375 155.023438 104.761719 154.933594 104.578125 154.746094 C 104.390625 154.5625 104.300781 154.339844 104.300781 154.078125 L 104.300781 147.984375 C 104.300781 147.722656 104.390625 147.5 104.578125 147.316406 C 104.761719 147.128906 104.984375 147.039062 105.242188 147.039062 Z M 105.242188 147.039062 " fill-opacity="1" fill-rule="nonzero"/><path fill="#030305" d="M 34.503906 137.554688 L 40.589844 137.554688 C 40.851562 137.554688 41.074219 137.648438 41.257812 137.832031 C 41.441406 138.015625 41.53125 138.238281 41.53125 138.5 L 41.53125 144.597656 C 41.53125 144.855469 41.441406 145.078125 41.257812 145.265625 C 41.074219 145.449219 40.851562 145.539062 40.589844 145.539062 L 34.503906 145.539062 C 34.246094 145.539062 34.023438 145.449219 33.839844 145.265625 C 33.65625 145.078125 33.5625 144.855469 33.5625 144.597656 L 33.5625 138.5 C 33.5625 138.238281 33.65625 138.015625 33.839844 137.832031 C 34.023438 137.648438 34.246094 137.554688 34.503906 137.554688 Z M 34.503906 137.554688 " fill-opacity="1" fill-rule="nonzero"/><path fill="#030305" d="M 25.039062 137.554688 L 31.125 137.554688 C 31.386719 137.554688 31.605469 137.648438 31.792969 137.832031 C 31.976562 138.015625 32.066406 138.238281 32.066406 138.5 L 32.066406 144.597656 C 32.066406 144.855469 31.976562 145.078125 31.792969 145.265625 C 31.605469 145.449219 31.386719 145.539062 31.125 145.539062 L 25.039062 145.539062 C 24.78125 145.539062 24.558594 145.449219 24.375 145.265625 C 24.1875 145.078125 24.097656 144.855469 24.097656 144.597656 L 24.097656 138.5 C 24.097656 138.238281 24.1875 138.015625 24.375 137.832031 C 24.558594 137.648438 24.78125 137.554688 25.039062 137.554688 Z M 25.039062 137.554688 " fill-opacity="1" fill-rule="nonzero"/><path fill="#030305" d="M 15.574219 137.554688 L 21.660156 137.554688 C 21.921875 137.554688 22.144531 137.648438 22.328125 137.832031 C 22.511719 138.015625 22.601562 138.238281 22.601562 138.5 L 22.601562 144.597656 C 22.601562 144.855469 22.511719 145.078125 22.328125 145.265625 C 22.144531 145.449219 21.921875 145.539062 21.660156 145.539062 L 15.574219 145.539062 C 15.316406 145.539062 15.09375 145.449219 14.910156 145.265625 C 14.726562 145.078125 14.632812 144.855469 14.632812 144.597656 L 14.632812 138.5 C 14.632812 138.238281 14.726562 138.015625 14.910156 137.832031 C 15.09375 137.648438 15.316406 137.554688 15.574219 137.554688 Z M 15.574219 137.554688 " fill-opacity="1" fill-rule="nonzero"/><path fill="#030305" d="M 43.96875 137.554688 L 50.054688 137.554688 C 50.316406 137.554688 50.539062 137.648438 50.722656 137.832031 C 50.90625 138.015625 51 138.238281 51 138.5 L 51 144.597656 C 51 144.855469 50.90625 145.078125 50.722656 145.265625 C 50.539062 145.449219 50.316406 145.539062 50.054688 145.539062 L 43.96875 145.539062 C 43.710938 145.539062 43.488281 145.449219 43.304688 145.265625 C 43.121094 145.078125 43.027344 144.855469 43.027344 144.597656 L 43.027344 138.5 C 43.027344 138.238281 43.121094 138.015625 43.304688 137.832031 C 43.488281 137.648438 43.710938 137.554688 43.96875 137.554688 Z M 43.96875 137.554688 " fill-opacity="1" fill-rule="nonzero"/><path fill="#030305" d="M 62.902344 137.554688 L 68.984375 137.554688 C 69.246094 137.554688 69.46875 137.648438 69.652344 137.832031 C 69.835938 138.015625 69.929688 138.238281 69.929688 138.5 L 69.929688 144.597656 C 69.929688 144.855469 69.835938 145.078125 69.652344 145.265625 C 69.46875 145.449219 69.246094 145.539062 68.984375 145.539062 L 62.902344 145.539062 C 62.640625 145.539062 62.417969 145.449219 62.234375 145.265625 C 62.050781 145.078125 61.957031 144.855469 61.957031 144.597656 L 61.957031 138.5 C 61.957031 138.238281 62.050781 138.015625 62.234375 137.832031 C 62.417969 137.648438 62.640625 137.554688 62.902344 137.554688 Z M 62.902344 137.554688 " fill-opacity="1" fill-rule="nonzero"/><path fill="#030305" d="M 72.367188 137.554688 L 78.449219 137.554688 C 78.710938 137.554688 78.933594 137.648438 79.117188 137.832031 C 79.300781 138.015625 79.394531 138.238281 79.394531 138.5 L 79.394531 144.597656 C 79.394531 144.855469 79.300781 145.078125 79.117188 145.265625 C 78.933594 145.449219 78.710938 145.539062 78.449219 145.539062 L 72.367188 145.539062 C 72.105469 145.539062 71.882812 145.449219 71.699219 145.265625 C 71.515625 145.078125 71.421875 144.855469 71.421875 144.597656 L 71.421875 138.5 C 71.421875 138.238281 71.515625 138.015625 71.699219 137.832031 C 71.882812 137.648438 72.105469 137.554688 72.367188 137.554688 Z M 72.367188 137.554688 " fill-opacity="1" fill-rule="nonzero"/><path fill="#030305" d="M 53.433594 137.554688 L 59.519531 137.554688 C 59.78125 137.554688 60.003906 137.648438 60.1875 137.832031 C 60.371094 138.015625 60.460938 138.238281 60.460938 138.5 L 60.460938 144.597656 C 60.460938 144.855469 60.371094 145.078125 60.1875 145.265625 C 60.003906 145.449219 59.78125 145.539062 59.519531 145.539062 L 53.433594 145.539062 C 53.175781 145.539062 52.953125 145.449219 52.769531 145.265625 C 52.585938 145.078125 52.492188 144.855469 52.492188 144.597656 L 52.492188 138.5 C 52.492188 138.238281 52.585938 138.015625 52.769531 137.832031 C 52.953125 137.648438 53.175781 137.554688 53.433594 137.554688 Z M 53.433594 137.554688 " fill-opacity="1" fill-rule="nonzero"/><path fill="#030305" d="M 81.832031 137.554688 L 87.914062 137.554688 C 88.175781 137.554688 88.398438 137.648438 88.582031 137.832031 C 88.765625 138.015625 88.859375 138.238281 88.859375 138.5 L 88.859375 144.597656 C 88.859375 144.855469 88.765625 145.078125 88.582031 145.265625 C 88.398438 145.449219 88.175781 145.539062 87.914062 145.539062 L 81.832031 145.539062 C 81.570312 145.539062 81.347656 145.449219 81.164062 145.265625 C 80.980469 145.078125 80.886719 144.855469 80.886719 144.597656 L 80.886719 138.5 C 80.886719 138.238281 80.980469 138.015625 81.164062 137.832031 C 81.347656 137.648438 81.570312 137.554688 81.832031 137.554688 Z M 81.832031 137.554688 " fill-opacity="1" fill-rule="nonzero"/><path fill="#030305" d="M 91.296875 137.554688 L 97.378906 137.554688 C 97.640625 137.554688 97.863281 137.648438 98.046875 137.832031 C 98.230469 138.015625 98.324219 138.238281 98.324219 138.5 L 98.324219 144.597656 C 98.324219 144.855469 98.230469 145.078125 98.046875 145.265625 C 97.863281 145.449219 97.640625 145.539062 97.378906 145.539062 L 91.296875 145.539062 C 91.035156 145.539062 90.8125 145.449219 90.628906 145.265625 C 90.445312 145.078125 90.351562 144.855469 90.351562 144.597656 L 90.351562 138.5 C 90.351562 138.238281 90.445312 138.015625 90.628906 137.832031 C 90.8125 137.648438 91.035156 137.554688 91.296875 137.554688 Z M 91.296875 137.554688 " fill-opacity="1" fill-rule="nonzero"/><path fill="#030305" d="M 110.226562 137.554688 L 116.308594 137.554688 C 116.570312 137.554688 116.792969 137.648438 116.976562 137.832031 C 117.160156 138.015625 117.253906 138.238281 117.253906 138.5 L 117.253906 144.597656 C 117.253906 144.855469 117.160156 145.078125 116.976562 145.265625 C 116.792969 145.449219 116.570312 145.539062 116.308594 145.539062 L 110.226562 145.539062 C 109.964844 145.539062 109.742188 145.449219 109.558594 145.265625 C 109.375 145.078125 109.28125 144.855469 109.28125 144.597656 L 109.28125 138.5 C 109.28125 138.238281 109.375 138.015625 109.558594 137.832031 C 109.742188 137.648438 109.964844 137.554688 110.226562 137.554688 Z M 110.226562 137.554688 " fill-opacity="1" fill-rule="nonzero"/><path fill="#030305" d="M 119.691406 137.554688 L 125.773438 137.554688 C 126.035156 137.554688 126.257812 137.648438 126.441406 137.832031 C 126.625 138.015625 126.71875 138.238281 126.71875 138.5 L 126.71875 144.597656 C 126.71875 144.855469 126.625 145.078125 126.441406 145.265625 C 126.257812 145.449219 126.035156 145.539062 125.773438 145.539062 L 119.691406 145.539062 C 119.429688 145.539062 119.207031 145.449219 119.023438 145.265625 C 118.839844 145.078125 118.746094 144.855469 118.746094 144.597656 L 118.746094 138.5 C 118.746094 138.238281 118.839844 138.015625 119.023438 137.832031 C 119.207031 137.648438 119.429688 137.554688 119.691406 137.554688 Z M 119.691406 137.554688 " fill-opacity="1" fill-rule="nonzero"/><path fill="#030305" d="M 129.15625 137.554688 L 135.238281 137.554688 C 135.5 137.554688 135.722656 137.648438 135.90625 137.832031 C 136.089844 138.015625 136.183594 138.238281 136.183594 138.5 L 136.183594 144.597656 C 136.183594 144.855469 136.089844 145.078125 135.90625 145.265625 C 135.722656 145.449219 135.5 145.539062 135.238281 145.539062 L 129.15625 145.539062 C 128.894531 145.539062 128.671875 145.449219 128.488281 145.265625 C 128.304688 145.078125 128.210938 144.855469 128.210938 144.597656 L 128.210938 138.5 C 128.210938 138.238281 128.304688 138.015625 128.488281 137.832031 C 128.671875 137.648438 128.894531 137.554688 129.15625 137.554688 Z M 129.15625 137.554688 " fill-opacity="1" fill-rule="nonzero"/><path fill="#030305" d="M 138.621094 137.554688 L 153.644531 137.554688 C 153.90625 137.554688 154.128906 137.648438 154.3125 137.832031 C 154.496094 138.015625 154.585938 138.238281 154.585938 138.5 L 154.585938 144.597656 C 154.585938 144.855469 154.496094 145.078125 154.3125 145.265625 C 154.128906 145.449219 153.90625 145.539062 153.644531 145.539062 L 138.621094 145.539062 C 138.359375 145.539062 138.136719 145.449219 137.953125 145.265625 C 137.769531 145.078125 137.675781 144.855469 137.675781 144.597656 L 137.675781 138.5 C 137.675781 138.238281 137.769531 138.015625 137.953125 137.832031 C 138.136719 137.648438 138.359375 137.554688 138.621094 137.554688 Z M 138.621094 137.554688 " fill-opacity="1" fill-rule="nonzero"/><path fill="#030305" d="M 100.761719 137.554688 L 106.84375 137.554688 C 107.105469 137.554688 107.328125 137.648438 107.511719 137.832031 C 107.695312 138.015625 107.789062 138.238281 107.789062 138.5 L 107.789062 144.597656 C 107.789062 144.855469 107.695312 145.078125 107.511719 145.265625 C 107.328125 145.449219 107.105469 145.539062 106.84375 145.539062 L 100.761719 145.539062 C 100.5 145.539062 100.277344 145.449219 100.09375 145.265625 C 99.910156 145.078125 99.816406 144.855469 99.816406 144.597656 L 99.816406 138.5 C 99.816406 138.238281 99.910156 138.015625 100.09375 137.832031 C 100.277344 137.648438 100.5 137.554688 100.761719 137.554688 Z M 100.761719 137.554688 " fill-opacity="1" fill-rule="nonzero"/><path fill="#030305" d="M 32.511719 156.523438 L 38.597656 156.523438 C 38.855469 156.523438 39.078125 156.613281 39.265625 156.796875 C 39.449219 156.984375 39.539062 157.207031 39.539062 157.464844 L 39.539062 163.5625 C 39.539062 163.824219 39.449219 164.046875 39.265625 164.230469 C 39.078125 164.414062 38.855469 164.507812 38.597656 164.507812 L 32.511719 164.507812 C 32.253906 164.507812 32.03125 164.414062 31.847656 164.230469 C 31.660156 164.046875 31.570312 163.824219 31.570312 163.5625 L 31.570312 157.464844 C 31.570312 157.207031 31.660156 156.984375 31.847656 156.796875 C 32.03125 156.613281 32.253906 156.523438 32.511719 156.523438 Z M 32.511719 156.523438 " fill-opacity="1" fill-rule="nonzero"/><path fill="#030305" d="M 41.976562 156.523438 L 48.0625 156.523438 C 48.324219 156.523438 48.546875 156.613281 48.730469 156.796875 C 48.914062 156.984375 49.003906 157.207031 49.003906 157.464844 L 49.003906 163.5625 C 49.003906 163.824219 48.914062 164.046875 48.730469 164.230469 C 48.546875 164.414062 48.324219 164.507812 48.0625 164.507812 L 41.976562 164.507812 C 41.71875 164.507812 41.496094 164.414062 41.3125 164.230469 C 41.128906 164.046875 41.035156 163.824219 41.035156 163.5625 L 41.035156 157.464844 C 41.035156 157.207031 41.128906 156.984375 41.3125 156.796875 C 41.496094 156.613281 41.71875 156.523438 41.976562 156.523438 Z M 41.976562 156.523438 " fill-opacity="1" fill-rule="nonzero"/><path fill="#030305" d="M 60.90625 156.523438 L 66.992188 156.523438 C 67.253906 156.523438 67.476562 156.613281 67.660156 156.796875 C 67.84375 156.984375 67.933594 157.207031 67.933594 157.464844 L 67.933594 163.5625 C 67.933594 163.824219 67.84375 164.046875 67.660156 164.230469 C 67.476562 164.414062 67.253906 164.507812 66.992188 164.507812 L 60.90625 164.507812 C 60.648438 164.507812 60.425781 164.414062 60.242188 164.230469 C 60.058594 164.046875 59.964844 163.824219 59.964844 163.5625 L 59.964844 157.464844 C 59.964844 157.207031 60.058594 156.984375 60.242188 156.796875 C 60.425781 156.613281 60.648438 156.523438 60.90625 156.523438 Z M 60.90625 156.523438 " fill-opacity="1" fill-rule="nonzero"/><path fill="#030305" d="M 70.371094 156.523438 L 76.457031 156.523438 C 76.71875 156.523438 76.941406 156.613281 77.125 156.796875 C 77.308594 156.984375 77.398438 157.207031 77.398438 157.464844 L 77.398438 163.5625 C 77.398438 163.824219 77.308594 164.046875 77.125 164.230469 C 76.941406 164.414062 76.71875 164.507812 76.457031 164.507812 L 70.371094 164.507812 C 70.113281 164.507812 69.890625 164.414062 69.707031 164.230469 C 69.523438 164.046875 69.429688 163.824219 69.429688 163.5625 L 69.429688 157.464844 C 69.429688 157.207031 69.523438 156.984375 69.707031 156.796875 C 69.890625 156.613281 70.113281 156.523438 70.371094 156.523438 Z M 70.371094 156.523438 " fill-opacity="1" fill-rule="nonzero"/><path fill="#030305" d="M 51.441406 156.523438 L 57.527344 156.523438 C 57.789062 156.523438 58.007812 156.613281 58.195312 156.796875 C 58.378906 156.984375 58.46875 157.207031 58.46875 157.464844 L 58.46875 163.5625 C 58.46875 163.824219 58.378906 164.046875 58.195312 164.230469 C 58.007812 164.414062 57.789062 164.507812 57.527344 164.507812 L 51.441406 164.507812 C 51.183594 164.507812 50.960938 164.414062 50.777344 164.230469 C 50.589844 164.046875 50.5 163.824219 50.5 163.5625 L 50.5 157.464844 C 50.5 157.207031 50.589844 156.984375 50.777344 156.796875 C 50.960938 156.613281 51.183594 156.523438 51.441406 156.523438 Z M 51.441406 156.523438 " fill-opacity="1" fill-rule="nonzero"/><path fill="#030305" d="M 79.835938 156.523438 L 85.921875 156.523438 C 86.183594 156.523438 86.40625 156.613281 86.589844 156.796875 C 86.773438 156.984375 86.863281 157.207031 86.863281 157.464844 L 86.863281 163.5625 C 86.863281 163.824219 86.773438 164.046875 86.589844 164.230469 C 86.40625 164.414062 86.183594 164.507812 85.921875 164.507812 L 79.835938 164.507812 C 79.578125 164.507812 79.355469 164.414062 79.171875 164.230469 C 78.988281 164.046875 78.894531 163.824219 78.894531 163.5625 L 78.894531 157.464844 C 78.894531 157.207031 78.988281 156.984375 79.171875 156.796875 C 79.355469 156.613281 79.578125 156.523438 79.835938 156.523438 Z M 79.835938 156.523438 " fill-opacity="1" fill-rule="nonzero"/><path fill="#030305" d="M 89.304688 156.523438 L 95.386719 156.523438 C 95.648438 156.523438 95.871094 156.613281 96.054688 156.796875 C 96.238281 156.984375 96.332031 157.207031 96.332031 157.464844 L 96.332031 163.5625 C 96.332031 163.824219 96.238281 164.046875 96.054688 164.230469 C 95.871094 164.414062 95.648438 164.507812 95.386719 164.507812 L 89.304688 164.507812 C 89.042969 164.507812 88.820312 164.414062 88.636719 164.230469 C 88.453125 164.046875 88.359375 163.824219 88.359375 163.5625 L 88.359375 157.464844 C 88.359375 157.207031 88.453125 156.984375 88.636719 156.796875 C 88.820312 156.613281 89.042969 156.523438 89.304688 156.523438 Z M 89.304688 156.523438 " fill-opacity="1" fill-rule="nonzero"/><path fill="#030305" d="M 108.234375 156.523438 L 114.316406 156.523438 C 114.578125 156.523438 114.800781 156.613281 114.984375 156.796875 C 115.167969 156.984375 115.261719 157.207031 115.261719 157.464844 L 115.261719 163.5625 C 115.261719 163.824219 115.167969 164.046875 114.984375 164.230469 C 114.800781 164.414062 114.578125 164.507812 114.316406 164.507812 L 108.234375 164.507812 C 107.972656 164.507812 107.75 164.414062 107.566406 164.230469 C 107.382812 164.046875 107.289062 163.824219 107.289062 163.5625 L 107.289062 157.464844 C 107.289062 157.207031 107.382812 156.984375 107.566406 156.796875 C 107.75 156.613281 107.972656 156.523438 108.234375 156.523438 Z M 108.234375 156.523438 " fill-opacity="1" fill-rule="nonzero"/><path fill="#030305" d="M 117.699219 156.523438 L 123.78125 156.523438 C 124.042969 156.523438 124.265625 156.613281 124.449219 156.796875 C 124.632812 156.984375 124.726562 157.207031 124.726562 157.464844 L 124.726562 163.5625 C 124.726562 163.824219 124.632812 164.046875 124.449219 164.230469 C 124.265625 164.414062 124.042969 164.507812 123.78125 164.507812 L 117.699219 164.507812 C 117.4375 164.507812 117.214844 164.414062 117.03125 164.230469 C 116.847656 164.046875 116.753906 163.824219 116.753906 163.5625 L 116.753906 157.464844 C 116.753906 157.207031 116.847656 156.984375 117.03125 156.796875 C 117.214844 156.613281 117.4375 156.523438 117.699219 156.523438 Z M 117.699219 156.523438 " fill-opacity="1" fill-rule="nonzero"/><path fill="#030305" d="M 127.164062 156.523438 L 133.246094 156.523438 C 133.507812 156.523438 133.730469 156.613281 133.914062 156.796875 C 134.097656 156.984375 134.191406 157.207031 134.191406 157.464844 L 134.191406 163.5625 C 134.191406 163.824219 134.097656 164.046875 133.914062 164.230469 C 133.730469 164.414062 133.507812 164.507812 133.246094 164.507812 L 127.164062 164.507812 C 126.902344 164.507812 126.679688 164.414062 126.496094 164.230469 C 126.3125 164.046875 126.21875 163.824219 126.21875 163.5625 L 126.21875 157.464844 C 126.21875 157.207031 126.3125 156.984375 126.496094 156.796875 C 126.679688 156.613281 126.902344 156.523438 127.164062 156.523438 Z M 127.164062 156.523438 " fill-opacity="1" fill-rule="nonzero"/><path fill="#030305" d="M 98.769531 156.523438 L 104.851562 156.523438 C 105.113281 156.523438 105.335938 156.613281 105.519531 156.796875 C 105.703125 156.984375 105.796875 157.207031 105.796875 157.464844 L 105.796875 163.5625 C 105.796875 163.824219 105.703125 164.046875 105.519531 164.230469 C 105.335938 164.414062 105.113281 164.507812 104.851562 164.507812 L 98.769531 164.507812 C 98.507812 164.507812 98.285156 164.414062 98.101562 164.230469 C 97.917969 164.046875 97.824219 163.824219 97.824219 163.5625 L 97.824219 157.464844 C 97.824219 157.207031 97.917969 156.984375 98.101562 156.796875 C 98.285156 156.613281 98.507812 156.523438 98.769531 156.523438 Z M 98.769531 156.523438 " fill-opacity="1" fill-rule="nonzero"/><g clip-path="url(#8bbdfb2e38)"><path stroke-linecap="round" transform="matrix(0.396241, 0, 0, 0.397021, 4.690222, 81.495477)" fill="none" stroke-linejoin="round" d="M 474.540466 94.199215 L 563.876069 94.199215 C 564.733738 94.199215 565.581549 94.287765 566.419502 94.455026 C 567.257455 94.612449 568.075691 94.86826 568.864352 95.192944 C 569.653013 95.517628 570.4121 95.921023 571.121895 96.39329 C 571.83169 96.875397 572.492194 97.406698 573.093548 98.01671 C 573.694902 98.616883 574.237107 99.276089 574.710303 99.994329 C 575.193358 100.70273 575.587689 101.450487 575.92287 102.237599 C 576.248193 103.03455 576.494649 103.851179 576.66224 104.687486 C 576.829831 105.523793 576.908697 106.369939 576.908697 107.225923 L 576.908697 161.310376 " stroke="#030305" stroke-width="5" stroke-opacity="1" stroke-miterlimit="4"/></g><g clip-path="url(#5e101967cd)"><path stroke-linecap="round" transform="matrix(0.396241, 0, 0, 0.397021, 4.690222, 81.495477)" fill="none" stroke-linejoin="round" d="M 4.606798 224.515492 L 4.606798 258.617131 C 4.606798 259.689572 4.715239 260.752173 4.922263 261.804936 C 5.129286 262.857699 5.444751 263.880945 5.84894 264.874674 C 6.262987 265.858564 6.765758 266.803099 7.367113 267.698439 C 7.958608 268.593779 8.638829 269.420247 9.397915 270.177843 C 10.157002 270.935438 10.985096 271.614323 11.87234 272.204657 C 12.769442 272.80483 13.705977 273.306614 14.701662 273.719848 C 15.687489 274.123243 16.712748 274.438088 17.767583 274.644705 C 18.822417 274.861161 19.877252 274.95955 20.951803 274.95955 L 116.872728 274.95955 " stroke="#030305" stroke-width="5" stroke-opacity="1" stroke-miterlimit="4"/></g><path fill="#faaf39" d="M 199.027344 129.078125 C 199.027344 129.335938 198.980469 129.585938 198.878906 129.828125 C 198.78125 130.066406 198.640625 130.28125 198.457031 130.464844 C 198.273438 130.648438 198.0625 130.789062 197.820312 130.886719 C 197.582031 130.988281 197.332031 131.039062 197.070312 131.039062 C 196.8125 131.039062 196.5625 130.988281 196.324219 130.886719 C 196.082031 130.789062 195.871094 130.648438 195.6875 130.464844 C 195.503906 130.28125 195.363281 130.066406 195.265625 129.828125 C 195.164062 129.585938 195.113281 129.335938 195.113281 129.078125 C 195.113281 128.816406 195.164062 128.566406 195.265625 128.328125 C 195.363281 128.085938 195.503906 127.875 195.6875 127.691406 C 195.871094 127.507812 196.082031 127.363281 196.324219 127.265625 C 196.5625 127.164062 196.8125 127.117188 197.070312 127.117188 C 197.332031 127.117188 197.582031 127.164062 197.820312 127.265625 C 198.0625 127.363281 198.273438 127.507812 198.457031 127.691406 C 198.640625 127.875 198.78125 128.085938 198.878906 128.328125 C 198.980469 128.566406 199.027344 128.816406 199.027344 129.078125 Z M 199.027344 129.078125 " fill-opacity="1" fill-rule="nonzero"/><path fill="#faaf39" d="M 208.660156 129.078125 C 208.660156 129.335938 208.609375 129.585938 208.511719 129.828125 C 208.410156 130.066406 208.269531 130.28125 208.085938 130.464844 C 207.902344 130.648438 207.691406 130.789062 207.453125 130.886719 C 207.210938 130.988281 206.960938 131.039062 206.703125 131.039062 C 206.445312 131.039062 206.195312 130.988281 205.953125 130.886719 C 205.714844 130.789062 205.503906 130.648438 205.320312 130.464844 C 205.136719 130.28125 204.996094 130.066406 204.894531 129.828125 C 204.796875 129.585938 204.746094 129.335938 204.746094 129.078125 C 204.746094 128.816406 204.796875 128.566406 204.894531 128.328125 C 204.996094 128.085938 205.136719 127.875 205.320312 127.691406 C 205.503906 127.507812 205.714844 127.363281 205.953125 127.265625 C 206.195312 127.164062 206.445312 127.117188 206.703125 127.117188 C 206.960938 127.117188 207.210938 127.164062 207.453125 127.265625 C 207.691406 127.363281 207.902344 127.507812 208.085938 127.691406 C 208.269531 127.875 208.410156 128.085938 208.511719 128.328125 C 208.609375 128.566406 208.660156 128.816406 208.660156 129.078125 Z M 208.660156 129.078125 " fill-opacity="1" fill-rule="nonzero"/><path fill="#faaf39" d="M 218.292969 129.078125 C 218.292969 129.335938 218.242188 129.585938 218.140625 129.828125 C 218.042969 130.066406 217.902344 130.28125 217.71875 130.464844 C 217.535156 130.648438 217.324219 130.789062 217.082031 130.886719 C 216.84375 130.988281 216.59375 131.039062 216.335938 131.039062 C 216.074219 131.039062 215.824219 130.988281 215.585938 130.886719 C 215.34375 130.789062 215.132812 130.648438 214.949219 130.464844 C 214.765625 130.28125 214.625 130.066406 214.527344 129.828125 C 214.425781 129.585938 214.378906 129.335938 214.378906 129.078125 C 214.378906 128.816406 214.425781 128.566406 214.527344 128.328125 C 214.625 128.085938 214.765625 127.875 214.949219 127.691406 C 215.132812 127.507812 215.34375 127.363281 215.585938 127.265625 C 215.824219 127.164062 216.074219 127.117188 216.335938 127.117188 C 216.59375 127.117188 216.84375 127.164062 217.082031 127.265625 C 217.324219 127.363281 217.535156 127.507812 217.71875 127.691406 C 217.902344 127.875 218.042969 128.085938 218.140625 128.328125 C 218.242188 128.566406 218.292969 128.816406 218.292969 129.078125 Z M 218.292969 129.078125 " fill-opacity="1" fill-rule="nonzero"/><g fill="#fffffa" fill-opacity="1"><g transform="translate(55.054686, 73.038947)"><g><path d="M 1.359375 0 L 1.359375 -30.65625 L 7.421875 -30.65625 L 7.421875 -18.375 L 10.28125 -30.65625 L 16.453125 -30.65625 L 13.03125 -16.625 L 17.171875 0 L 10.8125 0 L 7.453125 -14.84375 L 7.453125 0 Z M 1.359375 0 "/></g></g></g><g fill="#fffffa" fill-opacity="1"><g transform="translate(71.897332, 73.038947)"><g><path d="M 1.359375 0 L 1.359375 -30.65625 L 13.625 -30.65625 L 13.625 -24.734375 L 7.59375 -24.734375 L 7.59375 -18.765625 L 13.375 -18.765625 L 13.375 -12.984375 L 7.59375 -12.984375 L 7.59375 -5.953125 L 14.03125 -5.953125 L 14.03125 0 Z M 1.359375 0 "/></g></g></g><g fill="#fffffa" fill-opacity="1"><g transform="translate(86.598961, 73.038947)"><g><path d="M 5.0625 0 L 5.0625 -10.09375 L 0.171875 -30.65625 L 6.25 -30.65625 L 7.953125 -20.265625 L 9.671875 -30.65625 L 15.734375 -30.65625 L 10.84375 -10.09375 L 10.84375 0 Z M 5.0625 0 "/></g></g></g><g fill="#ff3131" fill-opacity="1"><g transform="translate(102.51562, 73.038947)"><g><path d="M 8.640625 0.28125 C 5.847656 0.28125 3.832031 -0.40625 2.59375 -1.78125 C 1.363281 -3.164062 0.75 -5.390625 0.75 -8.453125 L 0.75 -11.453125 L 6.78125 -11.453125 L 6.78125 -7.640625 C 6.78125 -6.117188 7.269531 -5.359375 8.25 -5.359375 C 8.789062 -5.359375 9.164062 -5.515625 9.375 -5.828125 C 9.59375 -6.148438 9.703125 -6.691406 9.703125 -7.453125 C 9.703125 -8.453125 9.582031 -9.28125 9.34375 -9.9375 C 9.113281 -10.59375 8.8125 -11.140625 8.4375 -11.578125 C 8.070312 -12.015625 7.410156 -12.695312 6.453125 -13.625 L 3.8125 -16.28125 C 1.769531 -18.269531 0.75 -20.476562 0.75 -22.90625 C 0.75 -25.53125 1.347656 -27.523438 2.546875 -28.890625 C 3.753906 -30.253906 5.507812 -30.9375 7.8125 -30.9375 C 10.570312 -30.9375 12.554688 -30.203125 13.765625 -28.734375 C 14.984375 -27.273438 15.59375 -24.988281 15.59375 -21.875 L 9.34375 -21.875 L 9.3125 -23.984375 C 9.3125 -24.390625 9.195312 -24.707031 8.96875 -24.9375 C 8.75 -25.175781 8.4375 -25.296875 8.03125 -25.296875 C 7.550781 -25.296875 7.191406 -25.164062 6.953125 -24.90625 C 6.722656 -24.644531 6.609375 -24.289062 6.609375 -23.84375 C 6.609375 -22.84375 7.175781 -21.804688 8.3125 -20.734375 L 11.890625 -17.3125 C 12.722656 -16.5 13.410156 -15.726562 13.953125 -15 C 14.503906 -14.28125 14.945312 -13.425781 15.28125 -12.4375 C 15.613281 -11.445312 15.78125 -10.273438 15.78125 -8.921875 C 15.78125 -5.898438 15.222656 -3.609375 14.109375 -2.046875 C 13.003906 -0.492188 11.179688 0.28125 8.640625 0.28125 Z M 8.640625 0.28125 "/></g></g></g><g fill="#ff3131" fill-opacity="1"><g transform="translate(118.965746, 73.038947)"><g><path d="M 4 0 L 4 -24.765625 L 0.359375 -24.765625 L 0.359375 -30.65625 L 13.78125 -30.65625 L 13.78125 -24.765625 L 10.140625 -24.765625 L 10.140625 0 Z M 4 0 "/></g></g></g><g fill="#ff3131" fill-opacity="1"><g transform="translate(133.09644, 73.038947)"><g><path d="M 0.53125 0 L 3.5 -30.65625 L 13.875 -30.65625 L 16.8125 0 L 10.984375 0 L 10.5625 -4.953125 L 6.859375 -4.953125 L 6.5 0 Z M 7.3125 -9.84375 L 10.09375 -9.84375 L 8.75 -25.4375 L 8.453125 -25.4375 Z M 7.3125 -9.84375 "/></g></g></g><g fill="#ff3131" fill-opacity="1"><g transform="translate(150.402973, 73.038947)"><g><path d="M 0.46875 0 L 3.75 -16.28125 L 1.140625 -30.6875 L 7.140625 -30.6875 L 8.75 -20.125 L 10.140625 -30.6875 L 16.171875 -30.6875 L 13.53125 -16.28125 L 16.8125 0 L 10.59375 0 L 8.671875 -11.984375 L 6.703125 0 Z M 0.46875 0 "/></g></g></g><g fill="#ff3131" fill-opacity="1"><g transform="translate(167.673823, 73.038947)"><g><path d="M 0.46875 0 L 3.75 -16.28125 L 1.140625 -30.6875 L 7.140625 -30.6875 L 8.75 -20.125 L 10.140625 -30.6875 L 16.171875 -30.6875 L 13.53125 -16.28125 L 16.8125 0 L 10.59375 0 L 8.671875 -11.984375 L 6.703125 0 Z M 0.46875 0 "/></g></g></g></svg>