<svg xmlns="http://www.w3.org/2000/svg" xmlns:xlink="http://www.w3.org/1999/xlink" width="100" zoomAndPan="magnify" viewBox="0 0 75 74.999997" height="100" preserveAspectRatio="xMidYMid meet" version="1.0"><defs><g/><clipPath id="fd8df4f7d9"><path d="M 50 59 L 72.976562 59 L 72.976562 61.742188 L 50 61.742188 Z M 50 59 " clip-rule="nonzero"/></clipPath><clipPath id="99ee867092"><path d="M 2 37 L 72.976562 37 L 72.976562 60 L 2 60 Z M 2 37 " clip-rule="nonzero"/></clipPath><clipPath id="20e858d4a5"><path d="M 59 36 L 72.976562 36 L 72.976562 46 L 59 46 Z M 59 36 " clip-rule="nonzero"/></clipPath><clipPath id="5354b9acc4"><path d="M 1.726562 52 L 17 52 L 17 60 L 1.726562 60 Z M 1.726562 52 " clip-rule="nonzero"/></clipPath></defs><rect x="-7.5" width="90" fill="#ffffff" y="-7.5" height="89.999996" fill-opacity="1"/><rect x="-7.5" width="90" fill="#5271ff" y="-7.5" height="89.999996" fill-opacity="1"/><g clip-path="url(#fd8df4f7d9)"><path fill="#030305" d="M 50.765625 59.085938 L 56.542969 61.738281 L 72.667969 61.738281 L 72.667969 59.085938 C 72.667969 59.085938 50.59375 59.269531 50.765625 59.085938 Z M 50.765625 59.085938 " fill-opacity="1" fill-rule="nonzero"/></g><path fill="#030305" d="M 36.636719 46.453125 C 36.742188 46.230469 39.144531 40.894531 37.667969 33.289062 C 36.910156 29.375 34.925781 26.628906 32.222656 25.753906 C 29.871094 24.988281 27.242188 25.757812 25.003906 27.867188 C 22.234375 30.476562 18.058594 32.949219 14.644531 32.058594 C 12.53125 31.507812 10.980469 29.71875 10.03125 26.742188 L 9.390625 26.949219 C 10.410156 30.160156 12.121094 32.101562 14.476562 32.714844 C 18.152344 33.671875 22.5625 31.09375 25.464844 28.359375 C 27.519531 26.425781 29.902344 25.710938 32.011719 26.394531 C 34.476562 27.195312 36.296875 29.753906 37.007812 33.417969 C 38.4375 40.796875 36.050781 46.117188 36.027344 46.167969 Z M 36.636719 46.453125 " fill-opacity="1" fill-rule="nonzero"/><g clip-path="url(#99ee867092)"><path fill="#4851a2" d="M 72.667969 39.25 L 72.667969 59.539062 L 4.269531 59.539062 C 3.972656 59.539062 3.6875 59.484375 3.414062 59.367188 C 3.140625 59.253906 2.898438 59.09375 2.691406 58.882812 C 2.480469 58.671875 2.320312 58.429688 2.207031 58.15625 C 2.09375 57.878906 2.035156 57.59375 2.035156 57.296875 L 2.035156 39.25 C 2.035156 38.085938 2.894531 37.136719 3.953125 37.136719 L 70.75 37.136719 C 71.8125 37.136719 72.667969 38.082031 72.667969 39.25 Z M 72.667969 39.25 " fill-opacity="1" fill-rule="nonzero"/></g><path fill="#030305" d="M 4.855469 38.820312 L 6.753906 38.820312 C 6.832031 38.820312 6.902344 38.851562 6.960938 38.90625 C 7.015625 38.964844 7.046875 39.035156 7.046875 39.117188 L 7.046875 41.019531 C 7.046875 41.101562 7.015625 41.171875 6.960938 41.226562 C 6.902344 41.285156 6.832031 41.3125 6.753906 41.3125 L 4.855469 41.3125 C 4.777344 41.3125 4.707031 41.285156 4.648438 41.226562 C 4.59375 41.171875 4.5625 41.101562 4.5625 41.019531 L 4.5625 39.117188 C 4.5625 39.035156 4.59375 38.964844 4.648438 38.90625 C 4.707031 38.851562 4.777344 38.820312 4.855469 38.820312 Z M 4.855469 38.820312 " fill-opacity="1" fill-rule="nonzero"/><path fill="#030305" d="M 11.140625 38.820312 L 13.035156 38.820312 C 13.117188 38.820312 13.1875 38.851562 13.242188 38.90625 C 13.300781 38.964844 13.332031 39.035156 13.332031 39.117188 L 13.332031 41.019531 C 13.332031 41.101562 13.300781 41.171875 13.242188 41.226562 C 13.1875 41.285156 13.117188 41.3125 13.035156 41.3125 L 11.140625 41.3125 C 11.058594 41.3125 10.992188 41.285156 10.933594 41.226562 C 10.875 41.171875 10.847656 41.101562 10.847656 41.019531 L 10.847656 39.117188 C 10.847656 39.035156 10.875 38.964844 10.933594 38.90625 C 10.992188 38.851562 11.058594 38.820312 11.140625 38.820312 Z M 11.140625 38.820312 " fill-opacity="1" fill-rule="nonzero"/><path fill="#030305" d="M 14.089844 38.820312 L 15.984375 38.820312 C 16.066406 38.820312 16.132812 38.851562 16.191406 38.90625 C 16.25 38.964844 16.277344 39.035156 16.277344 39.117188 L 16.277344 41.019531 C 16.277344 41.101562 16.25 41.171875 16.191406 41.226562 C 16.132812 41.285156 16.066406 41.3125 15.984375 41.3125 L 14.089844 41.3125 C 14.007812 41.3125 13.9375 41.285156 13.882812 41.226562 C 13.824219 41.171875 13.796875 41.101562 13.796875 41.019531 L 13.796875 39.117188 C 13.796875 39.035156 13.824219 38.964844 13.882812 38.90625 C 13.9375 38.851562 14.007812 38.820312 14.089844 38.820312 Z M 14.089844 38.820312 " fill-opacity="1" fill-rule="nonzero"/><path fill="#030305" d="M 19.984375 38.820312 L 21.878906 38.820312 C 21.960938 38.820312 22.03125 38.851562 22.089844 38.90625 C 22.144531 38.964844 22.175781 39.035156 22.175781 39.117188 L 22.175781 41.019531 C 22.175781 41.101562 22.144531 41.171875 22.089844 41.226562 C 22.03125 41.285156 21.960938 41.3125 21.878906 41.3125 L 19.984375 41.3125 C 19.90625 41.3125 19.835938 41.285156 19.777344 41.226562 C 19.71875 41.171875 19.691406 41.101562 19.691406 41.019531 L 19.691406 39.117188 C 19.691406 39.035156 19.71875 38.964844 19.777344 38.90625 C 19.835938 38.851562 19.90625 38.820312 19.984375 38.820312 Z M 19.984375 38.820312 " fill-opacity="1" fill-rule="nonzero"/><path fill="#030305" d="M 17.039062 38.820312 L 18.933594 38.820312 C 19.015625 38.820312 19.082031 38.851562 19.140625 38.90625 C 19.199219 38.964844 19.226562 39.035156 19.226562 39.117188 L 19.226562 41.019531 C 19.226562 41.101562 19.199219 41.171875 19.140625 41.226562 C 19.082031 41.285156 19.015625 41.3125 18.933594 41.3125 L 17.039062 41.3125 C 16.957031 41.3125 16.886719 41.285156 16.828125 41.226562 C 16.773438 41.171875 16.742188 41.101562 16.742188 41.019531 L 16.742188 39.117188 C 16.742188 39.035156 16.773438 38.964844 16.828125 38.90625 C 16.886719 38.851562 16.957031 38.820312 17.039062 38.820312 Z M 17.039062 38.820312 " fill-opacity="1" fill-rule="nonzero"/><path fill="#030305" d="M 24.175781 38.820312 L 26.070312 38.820312 C 26.152344 38.820312 26.21875 38.851562 26.277344 38.90625 C 26.335938 38.964844 26.363281 39.035156 26.363281 39.117188 L 26.363281 41.019531 C 26.363281 41.101562 26.335938 41.171875 26.277344 41.226562 C 26.21875 41.285156 26.152344 41.3125 26.070312 41.3125 L 24.175781 41.3125 C 24.09375 41.3125 24.023438 41.285156 23.96875 41.226562 C 23.910156 41.171875 23.882812 41.101562 23.882812 41.019531 L 23.882812 39.117188 C 23.882812 39.035156 23.910156 38.964844 23.96875 38.90625 C 24.023438 38.851562 24.09375 38.820312 24.175781 38.820312 Z M 24.175781 38.820312 " fill-opacity="1" fill-rule="nonzero"/><path fill="#030305" d="M 27.125 38.820312 L 29.019531 38.820312 C 29.097656 38.820312 29.167969 38.851562 29.226562 38.90625 C 29.285156 38.964844 29.3125 39.035156 29.3125 39.117188 L 29.3125 41.019531 C 29.3125 41.101562 29.285156 41.171875 29.226562 41.226562 C 29.167969 41.285156 29.097656 41.3125 29.019531 41.3125 L 27.125 41.3125 C 27.042969 41.3125 26.972656 41.285156 26.914062 41.226562 C 26.859375 41.171875 26.828125 41.101562 26.828125 41.019531 L 26.828125 39.117188 C 26.828125 39.035156 26.859375 38.964844 26.914062 38.90625 C 26.972656 38.851562 27.042969 38.820312 27.125 38.820312 Z M 27.125 38.820312 " fill-opacity="1" fill-rule="nonzero"/><path fill="#030305" d="M 33.019531 38.820312 L 34.914062 38.820312 C 34.996094 38.820312 35.066406 38.851562 35.121094 38.90625 C 35.179688 38.964844 35.207031 39.035156 35.207031 39.117188 L 35.207031 41.019531 C 35.207031 41.101562 35.179688 41.171875 35.121094 41.226562 C 35.066406 41.285156 34.996094 41.3125 34.914062 41.3125 L 33.019531 41.3125 C 32.9375 41.3125 32.867188 41.285156 32.8125 41.226562 C 32.753906 41.171875 32.726562 41.101562 32.726562 41.019531 L 32.726562 39.117188 C 32.726562 39.035156 32.753906 38.964844 32.8125 38.90625 C 32.867188 38.851562 32.9375 38.820312 33.019531 38.820312 Z M 33.019531 38.820312 " fill-opacity="1" fill-rule="nonzero"/><path fill="#030305" d="M 30.070312 38.820312 L 31.964844 38.820312 C 32.046875 38.820312 32.117188 38.851562 32.175781 38.90625 C 32.230469 38.964844 32.261719 39.035156 32.261719 39.117188 L 32.261719 41.019531 C 32.261719 41.101562 32.230469 41.171875 32.175781 41.226562 C 32.117188 41.285156 32.046875 41.3125 31.964844 41.3125 L 30.070312 41.3125 C 29.988281 41.3125 29.921875 41.285156 29.863281 41.226562 C 29.804688 41.171875 29.777344 41.101562 29.777344 41.019531 L 29.777344 39.117188 C 29.777344 39.035156 29.804688 38.964844 29.863281 38.90625 C 29.921875 38.851562 29.988281 38.820312 30.070312 38.820312 Z M 30.070312 38.820312 " fill-opacity="1" fill-rule="nonzero"/><path fill="#030305" d="M 37.207031 38.820312 L 39.105469 38.820312 C 39.183594 38.820312 39.253906 38.851562 39.3125 38.90625 C 39.367188 38.964844 39.398438 39.035156 39.398438 39.117188 L 39.398438 41.019531 C 39.398438 41.101562 39.367188 41.171875 39.3125 41.226562 C 39.253906 41.285156 39.183594 41.3125 39.105469 41.3125 L 37.207031 41.3125 C 37.128906 41.3125 37.058594 41.285156 37 41.226562 C 36.945312 41.171875 36.914062 41.101562 36.914062 41.019531 L 36.914062 39.117188 C 36.914062 39.035156 36.945312 38.964844 37 38.90625 C 37.058594 38.851562 37.128906 38.820312 37.207031 38.820312 Z M 37.207031 38.820312 " fill-opacity="1" fill-rule="nonzero"/><path fill="#030305" d="M 40.15625 38.820312 L 42.050781 38.820312 C 42.132812 38.820312 42.203125 38.851562 42.257812 38.90625 C 42.316406 38.964844 42.34375 39.035156 42.34375 39.117188 L 42.34375 41.019531 C 42.34375 41.101562 42.316406 41.171875 42.257812 41.226562 C 42.203125 41.285156 42.132812 41.3125 42.050781 41.3125 L 40.15625 41.3125 C 40.074219 41.3125 40.007812 41.285156 39.949219 41.226562 C 39.890625 41.171875 39.863281 41.101562 39.863281 41.019531 L 39.863281 39.117188 C 39.863281 39.035156 39.890625 38.964844 39.949219 38.90625 C 40.007812 38.851562 40.074219 38.820312 40.15625 38.820312 Z M 40.15625 38.820312 " fill-opacity="1" fill-rule="nonzero"/><path fill="#030305" d="M 46.054688 38.820312 L 47.949219 38.820312 C 48.03125 38.820312 48.097656 38.851562 48.15625 38.90625 C 48.214844 38.964844 48.242188 39.035156 48.242188 39.117188 L 48.242188 41.019531 C 48.242188 41.101562 48.214844 41.171875 48.15625 41.226562 C 48.097656 41.285156 48.03125 41.3125 47.949219 41.3125 L 46.054688 41.3125 C 45.972656 41.3125 45.902344 41.285156 45.84375 41.226562 C 45.789062 41.171875 45.757812 41.101562 45.757812 41.019531 L 45.757812 39.117188 C 45.757812 39.035156 45.789062 38.964844 45.84375 38.90625 C 45.902344 38.851562 45.972656 38.820312 46.054688 38.820312 Z M 46.054688 38.820312 " fill-opacity="1" fill-rule="nonzero"/><path fill="#030305" d="M 43.105469 38.820312 L 45 38.820312 C 45.082031 38.820312 45.148438 38.851562 45.207031 38.90625 C 45.265625 38.964844 45.292969 39.035156 45.292969 39.117188 L 45.292969 41.019531 C 45.292969 41.101562 45.265625 41.171875 45.207031 41.226562 C 45.148438 41.285156 45.082031 41.3125 45 41.3125 L 43.105469 41.3125 C 43.023438 41.3125 42.953125 41.285156 42.898438 41.226562 C 42.839844 41.171875 42.8125 41.101562 42.8125 41.019531 L 42.8125 39.117188 C 42.8125 39.035156 42.839844 38.964844 42.898438 38.90625 C 42.953125 38.851562 43.023438 38.820312 43.105469 38.820312 Z M 43.105469 38.820312 " fill-opacity="1" fill-rule="nonzero"/><path fill="#030305" d="M 49.621094 38.820312 L 51.515625 38.820312 C 51.597656 38.820312 51.667969 38.851562 51.722656 38.90625 C 51.78125 38.964844 51.808594 39.035156 51.808594 39.117188 L 51.808594 41.019531 C 51.808594 41.101562 51.78125 41.171875 51.722656 41.226562 C 51.667969 41.285156 51.597656 41.3125 51.515625 41.3125 L 49.621094 41.3125 C 49.539062 41.3125 49.472656 41.285156 49.414062 41.226562 C 49.355469 41.171875 49.328125 41.101562 49.328125 41.019531 L 49.328125 39.117188 C 49.328125 39.035156 49.355469 38.964844 49.414062 38.90625 C 49.472656 38.851562 49.539062 38.820312 49.621094 38.820312 Z M 49.621094 38.820312 " fill-opacity="1" fill-rule="nonzero"/><path fill="#030305" d="M 55.519531 38.820312 L 57.414062 38.820312 C 57.496094 38.820312 57.5625 38.851562 57.621094 38.90625 C 57.679688 38.964844 57.707031 39.035156 57.707031 39.117188 L 57.707031 41.019531 C 57.707031 41.101562 57.679688 41.171875 57.621094 41.226562 C 57.5625 41.285156 57.496094 41.3125 57.414062 41.3125 L 55.519531 41.3125 C 55.4375 41.3125 55.367188 41.285156 55.308594 41.226562 C 55.253906 41.171875 55.222656 41.101562 55.222656 41.019531 L 55.222656 39.117188 C 55.222656 39.035156 55.253906 38.964844 55.308594 38.90625 C 55.367188 38.851562 55.4375 38.820312 55.519531 38.820312 Z M 55.519531 38.820312 " fill-opacity="1" fill-rule="nonzero"/><path fill="#030305" d="M 52.570312 38.820312 L 54.464844 38.820312 C 54.546875 38.820312 54.617188 38.851562 54.671875 38.90625 C 54.730469 38.964844 54.757812 39.035156 54.757812 39.117188 L 54.757812 41.019531 C 54.757812 41.101562 54.730469 41.171875 54.671875 41.226562 C 54.617188 41.285156 54.546875 41.3125 54.464844 41.3125 L 52.570312 41.3125 C 52.488281 41.3125 52.417969 41.285156 52.363281 41.226562 C 52.304688 41.171875 52.277344 41.101562 52.277344 41.019531 L 52.277344 39.117188 C 52.277344 39.035156 52.304688 38.964844 52.363281 38.90625 C 52.417969 38.851562 52.488281 38.820312 52.570312 38.820312 Z M 52.570312 38.820312 " fill-opacity="1" fill-rule="nonzero"/><path fill="#030305" d="M 59.085938 42.960938 L 60.980469 42.960938 C 61.0625 42.960938 61.132812 42.992188 61.191406 43.050781 C 61.246094 43.105469 61.277344 43.175781 61.277344 43.257812 L 61.277344 45.160156 C 61.277344 45.242188 61.246094 45.3125 61.191406 45.371094 C 61.132812 45.425781 61.0625 45.457031 60.980469 45.457031 L 59.085938 45.457031 C 59.003906 45.457031 58.9375 45.425781 58.878906 45.371094 C 58.820312 45.3125 58.792969 45.242188 58.792969 45.160156 L 58.792969 43.257812 C 58.792969 43.175781 58.820312 43.105469 58.878906 43.050781 C 58.9375 42.992188 59.003906 42.960938 59.085938 42.960938 Z M 59.085938 42.960938 " fill-opacity="1" fill-rule="nonzero"/><path fill="#030305" d="M 64.984375 42.960938 L 66.878906 42.960938 C 66.960938 42.960938 67.027344 42.992188 67.085938 43.050781 C 67.144531 43.105469 67.171875 43.175781 67.171875 43.257812 L 67.171875 45.160156 C 67.171875 45.242188 67.144531 45.3125 67.085938 45.371094 C 67.027344 45.425781 66.960938 45.457031 66.878906 45.457031 L 64.984375 45.457031 C 64.902344 45.457031 64.832031 45.425781 64.773438 45.371094 C 64.71875 45.3125 64.6875 45.242188 64.6875 45.160156 L 64.6875 43.257812 C 64.6875 43.175781 64.71875 43.105469 64.773438 43.050781 C 64.832031 42.992188 64.902344 42.960938 64.984375 42.960938 Z M 64.984375 42.960938 " fill-opacity="1" fill-rule="nonzero"/><path fill="#030305" d="M 67.929688 42.960938 L 69.828125 42.960938 C 69.90625 42.960938 69.976562 42.992188 70.035156 43.050781 C 70.089844 43.105469 70.121094 43.175781 70.121094 43.257812 L 70.121094 45.160156 C 70.121094 45.242188 70.089844 45.3125 70.035156 45.371094 C 69.976562 45.425781 69.90625 45.457031 69.828125 45.457031 L 67.929688 45.457031 C 67.851562 45.457031 67.78125 45.425781 67.722656 45.371094 C 67.664062 45.3125 67.636719 45.242188 67.636719 45.160156 L 67.636719 43.257812 C 67.636719 43.175781 67.664062 43.105469 67.722656 43.050781 C 67.78125 42.992188 67.851562 42.960938 67.929688 42.960938 Z M 67.929688 42.960938 " fill-opacity="1" fill-rule="nonzero"/><path fill="#030305" d="M 67.929688 45.921875 L 69.828125 45.921875 C 69.90625 45.921875 69.976562 45.953125 70.035156 46.007812 C 70.089844 46.066406 70.121094 46.136719 70.121094 46.21875 L 70.121094 51.082031 C 70.121094 51.164062 70.089844 51.230469 70.035156 51.289062 C 69.976562 51.347656 69.90625 51.375 69.828125 51.375 L 67.929688 51.375 C 67.851562 51.375 67.78125 51.347656 67.722656 51.289062 C 67.664062 51.230469 67.636719 51.164062 67.636719 51.082031 L 67.636719 46.21875 C 67.636719 46.136719 67.664062 46.066406 67.722656 46.007812 C 67.78125 45.953125 67.851562 45.921875 67.929688 45.921875 Z M 67.929688 45.921875 " fill-opacity="1" fill-rule="nonzero"/><path fill="#030305" d="M 67.929688 51.84375 L 69.828125 51.84375 C 69.90625 51.84375 69.976562 51.871094 70.035156 51.929688 C 70.089844 51.988281 70.121094 52.058594 70.121094 52.136719 L 70.121094 57 C 70.121094 57.082031 70.089844 57.152344 70.035156 57.210938 C 69.976562 57.269531 69.90625 57.296875 69.828125 57.296875 L 67.929688 57.296875 C 67.851562 57.296875 67.78125 57.269531 67.722656 57.210938 C 67.664062 57.152344 67.636719 57.082031 67.636719 57 L 67.636719 52.136719 C 67.636719 52.058594 67.664062 51.988281 67.722656 51.929688 C 67.78125 51.871094 67.851562 51.84375 67.929688 51.84375 Z M 67.929688 51.84375 " fill-opacity="1" fill-rule="nonzero"/><path fill="#030305" d="M 62.035156 42.960938 L 63.929688 42.960938 C 64.011719 42.960938 64.082031 42.992188 64.136719 43.050781 C 64.195312 43.105469 64.222656 43.175781 64.222656 43.257812 L 64.222656 45.160156 C 64.222656 45.242188 64.195312 45.3125 64.136719 45.371094 C 64.082031 45.425781 64.011719 45.457031 63.929688 45.457031 L 62.035156 45.457031 C 61.953125 45.457031 61.882812 45.425781 61.828125 45.371094 C 61.769531 45.3125 61.742188 45.242188 61.742188 45.160156 L 61.742188 43.257812 C 61.742188 43.175781 61.769531 43.105469 61.828125 43.050781 C 61.882812 42.992188 61.953125 42.960938 62.035156 42.960938 Z M 62.035156 42.960938 " fill-opacity="1" fill-rule="nonzero"/><path fill="#030305" d="M 59.085938 45.921875 L 60.980469 45.921875 C 61.0625 45.921875 61.132812 45.953125 61.191406 46.007812 C 61.246094 46.066406 61.277344 46.136719 61.277344 46.21875 L 61.277344 48.121094 C 61.277344 48.203125 61.246094 48.273438 61.191406 48.328125 C 61.132812 48.386719 61.0625 48.414062 60.980469 48.414062 L 59.085938 48.414062 C 59.003906 48.414062 58.9375 48.386719 58.878906 48.328125 C 58.820312 48.273438 58.792969 48.203125 58.792969 48.121094 L 58.792969 46.21875 C 58.792969 46.136719 58.820312 46.066406 58.878906 46.007812 C 58.9375 45.953125 59.003906 45.921875 59.085938 45.921875 Z M 59.085938 45.921875 " fill-opacity="1" fill-rule="nonzero"/><path fill="#030305" d="M 64.984375 45.921875 L 66.878906 45.921875 C 66.960938 45.921875 67.027344 45.953125 67.085938 46.007812 C 67.144531 46.066406 67.171875 46.136719 67.171875 46.21875 L 67.171875 48.121094 C 67.171875 48.203125 67.144531 48.273438 67.085938 48.328125 C 67.027344 48.386719 66.960938 48.414062 66.878906 48.414062 L 64.984375 48.414062 C 64.902344 48.414062 64.832031 48.386719 64.773438 48.328125 C 64.71875 48.273438 64.6875 48.203125 64.6875 48.121094 L 64.6875 46.21875 C 64.6875 46.136719 64.71875 46.066406 64.773438 46.007812 C 64.832031 45.953125 64.902344 45.921875 64.984375 45.921875 Z M 64.984375 45.921875 " fill-opacity="1" fill-rule="nonzero"/><path fill="#030305" d="M 62.035156 45.921875 L 63.929688 45.921875 C 64.011719 45.921875 64.082031 45.953125 64.136719 46.007812 C 64.195312 46.066406 64.222656 46.136719 64.222656 46.21875 L 64.222656 48.121094 C 64.222656 48.203125 64.195312 48.273438 64.136719 48.328125 C 64.082031 48.386719 64.011719 48.414062 63.929688 48.414062 L 62.035156 48.414062 C 61.953125 48.414062 61.882812 48.386719 61.828125 48.328125 C 61.769531 48.273438 61.742188 48.203125 61.742188 48.121094 L 61.742188 46.21875 C 61.742188 46.136719 61.769531 46.066406 61.828125 46.007812 C 61.882812 45.953125 61.953125 45.921875 62.035156 45.921875 Z M 62.035156 45.921875 " fill-opacity="1" fill-rule="nonzero"/><path fill="#030305" d="M 59.085938 48.882812 L 60.980469 48.882812 C 61.0625 48.882812 61.132812 48.910156 61.191406 48.96875 C 61.246094 49.027344 61.277344 49.097656 61.277344 49.179688 L 61.277344 51.082031 C 61.277344 51.164062 61.246094 51.230469 61.191406 51.289062 C 61.132812 51.347656 61.0625 51.375 60.980469 51.375 L 59.085938 51.375 C 59.003906 51.375 58.9375 51.347656 58.878906 51.289062 C 58.820312 51.230469 58.792969 51.164062 58.792969 51.082031 L 58.792969 49.179688 C 58.792969 49.097656 58.820312 49.027344 58.878906 48.96875 C 58.9375 48.910156 59.003906 48.882812 59.085938 48.882812 Z M 59.085938 48.882812 " fill-opacity="1" fill-rule="nonzero"/><path fill="#030305" d="M 64.984375 48.882812 L 66.878906 48.882812 C 66.960938 48.882812 67.027344 48.910156 67.085938 48.96875 C 67.144531 49.027344 67.171875 49.097656 67.171875 49.179688 L 67.171875 51.082031 C 67.171875 51.164062 67.144531 51.230469 67.085938 51.289062 C 67.027344 51.347656 66.960938 51.375 66.878906 51.375 L 64.984375 51.375 C 64.902344 51.375 64.832031 51.347656 64.773438 51.289062 C 64.71875 51.230469 64.6875 51.164062 64.6875 51.082031 L 64.6875 49.179688 C 64.6875 49.097656 64.71875 49.027344 64.773438 48.96875 C 64.832031 48.910156 64.902344 48.882812 64.984375 48.882812 Z M 64.984375 48.882812 " fill-opacity="1" fill-rule="nonzero"/><path fill="#030305" d="M 62.035156 48.882812 L 63.929688 48.882812 C 64.011719 48.882812 64.082031 48.910156 64.136719 48.96875 C 64.195312 49.027344 64.222656 49.097656 64.222656 49.179688 L 64.222656 51.082031 C 64.222656 51.164062 64.195312 51.230469 64.136719 51.289062 C 64.082031 51.347656 64.011719 51.375 63.929688 51.375 L 62.035156 51.375 C 61.953125 51.375 61.882812 51.347656 61.828125 51.289062 C 61.769531 51.230469 61.742188 51.164062 61.742188 51.082031 L 61.742188 49.179688 C 61.742188 49.097656 61.769531 49.027344 61.828125 48.96875 C 61.882812 48.910156 61.953125 48.882812 62.035156 48.882812 Z M 62.035156 48.882812 " fill-opacity="1" fill-rule="nonzero"/><path fill="#030305" d="M 59.085938 51.84375 L 60.980469 51.84375 C 61.0625 51.84375 61.132812 51.871094 61.191406 51.929688 C 61.246094 51.988281 61.277344 52.058594 61.277344 52.136719 L 61.277344 54.042969 C 61.277344 54.121094 61.246094 54.191406 61.191406 54.25 C 61.132812 54.308594 61.0625 54.335938 60.980469 54.335938 L 59.085938 54.335938 C 59.003906 54.335938 58.9375 54.308594 58.878906 54.25 C 58.820312 54.191406 58.792969 54.121094 58.792969 54.042969 L 58.792969 52.136719 C 58.792969 52.058594 58.820312 51.988281 58.878906 51.929688 C 58.9375 51.871094 59.003906 51.84375 59.085938 51.84375 Z M 59.085938 51.84375 " fill-opacity="1" fill-rule="nonzero"/><path fill="#030305" d="M 59.085938 54.804688 L 63.929688 54.804688 C 64.011719 54.804688 64.082031 54.832031 64.136719 54.890625 C 64.195312 54.949219 64.222656 55.015625 64.222656 55.097656 L 64.222656 57 C 64.222656 57.082031 64.195312 57.152344 64.136719 57.210938 C 64.082031 57.269531 64.011719 57.296875 63.929688 57.296875 L 59.085938 57.296875 C 59.003906 57.296875 58.9375 57.269531 58.878906 57.210938 C 58.820312 57.152344 58.792969 57.082031 58.792969 57 L 58.792969 55.097656 C 58.792969 55.015625 58.820312 54.949219 58.878906 54.890625 C 58.9375 54.832031 59.003906 54.804688 59.085938 54.804688 Z M 59.085938 54.804688 " fill-opacity="1" fill-rule="nonzero"/><path fill="#030305" d="M 64.984375 51.84375 L 66.878906 51.84375 C 66.960938 51.84375 67.027344 51.871094 67.085938 51.929688 C 67.144531 51.988281 67.171875 52.058594 67.171875 52.136719 L 67.171875 54.042969 C 67.171875 54.121094 67.144531 54.191406 67.085938 54.25 C 67.027344 54.308594 66.960938 54.335938 66.878906 54.335938 L 64.984375 54.335938 C 64.902344 54.335938 64.832031 54.308594 64.773438 54.25 C 64.71875 54.191406 64.6875 54.121094 64.6875 54.042969 L 64.6875 52.136719 C 64.6875 52.058594 64.71875 51.988281 64.773438 51.929688 C 64.832031 51.871094 64.902344 51.84375 64.984375 51.84375 Z M 64.984375 51.84375 " fill-opacity="1" fill-rule="nonzero"/><path fill="#030305" d="M 64.984375 54.804688 L 66.878906 54.804688 C 66.960938 54.804688 67.027344 54.832031 67.085938 54.890625 C 67.144531 54.949219 67.171875 55.015625 67.171875 55.097656 L 67.171875 57 C 67.171875 57.082031 67.144531 57.152344 67.085938 57.210938 C 67.027344 57.269531 66.960938 57.296875 66.878906 57.296875 L 64.984375 57.296875 C 64.902344 57.296875 64.832031 57.269531 64.773438 57.210938 C 64.71875 57.152344 64.6875 57.082031 64.6875 57 L 64.6875 55.097656 C 64.6875 55.015625 64.71875 54.949219 64.773438 54.890625 C 64.832031 54.832031 64.902344 54.804688 64.984375 54.804688 Z M 64.984375 54.804688 " fill-opacity="1" fill-rule="nonzero"/><path fill="#030305" d="M 62.035156 51.84375 L 63.929688 51.84375 C 64.011719 51.84375 64.082031 51.871094 64.136719 51.929688 C 64.195312 51.988281 64.222656 52.058594 64.222656 52.136719 L 64.222656 54.042969 C 64.222656 54.121094 64.195312 54.191406 64.136719 54.25 C 64.082031 54.308594 64.011719 54.335938 63.929688 54.335938 L 62.035156 54.335938 C 61.953125 54.335938 61.882812 54.308594 61.828125 54.25 C 61.769531 54.191406 61.742188 54.121094 61.742188 54.042969 L 61.742188 52.136719 C 61.742188 52.058594 61.769531 51.988281 61.828125 51.929688 C 61.882812 51.871094 61.953125 51.84375 62.035156 51.84375 Z M 62.035156 51.84375 " fill-opacity="1" fill-rule="nonzero"/><path fill="#030305" d="M 49.621094 42.960938 L 51.515625 42.960938 C 51.597656 42.960938 51.667969 42.992188 51.722656 43.050781 C 51.78125 43.105469 51.808594 43.175781 51.808594 43.257812 L 51.808594 45.160156 C 51.808594 45.242188 51.78125 45.3125 51.722656 45.371094 C 51.667969 45.425781 51.597656 45.457031 51.515625 45.457031 L 49.621094 45.457031 C 49.539062 45.457031 49.472656 45.425781 49.414062 45.371094 C 49.355469 45.3125 49.328125 45.242188 49.328125 45.160156 L 49.328125 43.257812 C 49.328125 43.175781 49.355469 43.105469 49.414062 43.050781 C 49.472656 42.992188 49.539062 42.960938 49.621094 42.960938 Z M 49.621094 42.960938 " fill-opacity="1" fill-rule="nonzero"/><path fill="#030305" d="M 55.519531 42.960938 L 57.414062 42.960938 C 57.496094 42.960938 57.5625 42.992188 57.621094 43.050781 C 57.679688 43.105469 57.707031 43.175781 57.707031 43.257812 L 57.707031 45.160156 C 57.707031 45.242188 57.679688 45.3125 57.621094 45.371094 C 57.5625 45.425781 57.496094 45.457031 57.414062 45.457031 L 55.519531 45.457031 C 55.4375 45.457031 55.367188 45.425781 55.308594 45.371094 C 55.253906 45.3125 55.222656 45.242188 55.222656 45.160156 L 55.222656 43.257812 C 55.222656 43.175781 55.253906 43.105469 55.308594 43.050781 C 55.367188 42.992188 55.4375 42.960938 55.519531 42.960938 Z M 55.519531 42.960938 " fill-opacity="1" fill-rule="nonzero"/><path fill="#030305" d="M 52.570312 42.960938 L 54.464844 42.960938 C 54.546875 42.960938 54.617188 42.992188 54.671875 43.050781 C 54.730469 43.105469 54.757812 43.175781 54.757812 43.257812 L 54.757812 45.160156 C 54.757812 45.242188 54.730469 45.3125 54.671875 45.371094 C 54.617188 45.425781 54.546875 45.457031 54.464844 45.457031 L 52.570312 45.457031 C 52.488281 45.457031 52.417969 45.425781 52.363281 45.371094 C 52.304688 45.3125 52.277344 45.242188 52.277344 45.160156 L 52.277344 43.257812 C 52.277344 43.175781 52.304688 43.105469 52.363281 43.050781 C 52.417969 42.992188 52.488281 42.960938 52.570312 42.960938 Z M 52.570312 42.960938 " fill-opacity="1" fill-rule="nonzero"/><path fill="#030305" d="M 49.621094 45.921875 L 51.515625 45.921875 C 51.597656 45.921875 51.667969 45.953125 51.722656 46.007812 C 51.78125 46.066406 51.808594 46.136719 51.808594 46.21875 L 51.808594 48.121094 C 51.808594 48.203125 51.78125 48.273438 51.722656 48.328125 C 51.667969 48.386719 51.597656 48.414062 51.515625 48.414062 L 49.621094 48.414062 C 49.539062 48.414062 49.472656 48.386719 49.414062 48.328125 C 49.355469 48.273438 49.328125 48.203125 49.328125 48.121094 L 49.328125 46.21875 C 49.328125 46.136719 49.355469 46.066406 49.414062 46.007812 C 49.472656 45.953125 49.539062 45.921875 49.621094 45.921875 Z M 49.621094 45.921875 " fill-opacity="1" fill-rule="nonzero"/><path fill="#030305" d="M 55.519531 45.921875 L 57.414062 45.921875 C 57.496094 45.921875 57.5625 45.953125 57.621094 46.007812 C 57.679688 46.066406 57.707031 46.136719 57.707031 46.21875 L 57.707031 48.121094 C 57.707031 48.203125 57.679688 48.273438 57.621094 48.328125 C 57.5625 48.386719 57.496094 48.414062 57.414062 48.414062 L 55.519531 48.414062 C 55.4375 48.414062 55.367188 48.386719 55.308594 48.328125 C 55.253906 48.273438 55.222656 48.203125 55.222656 48.121094 L 55.222656 46.21875 C 55.222656 46.136719 55.253906 46.066406 55.308594 46.007812 C 55.367188 45.953125 55.4375 45.921875 55.519531 45.921875 Z M 55.519531 45.921875 " fill-opacity="1" fill-rule="nonzero"/><path fill="#030305" d="M 52.570312 45.921875 L 54.464844 45.921875 C 54.546875 45.921875 54.617188 45.953125 54.671875 46.007812 C 54.730469 46.066406 54.757812 46.136719 54.757812 46.21875 L 54.757812 48.121094 C 54.757812 48.203125 54.730469 48.273438 54.671875 48.328125 C 54.617188 48.386719 54.546875 48.414062 54.464844 48.414062 L 52.570312 48.414062 C 52.488281 48.414062 52.417969 48.386719 52.363281 48.328125 C 52.304688 48.273438 52.277344 48.203125 52.277344 48.121094 L 52.277344 46.21875 C 52.277344 46.136719 52.304688 46.066406 52.363281 46.007812 C 52.417969 45.953125 52.488281 45.921875 52.570312 45.921875 Z M 52.570312 45.921875 " fill-opacity="1" fill-rule="nonzero"/><path fill="#fffffa" d="M 49.621094 54.804688 L 51.515625 54.804688 C 51.597656 54.804688 51.667969 54.832031 51.722656 54.890625 C 51.78125 54.949219 51.808594 55.015625 51.808594 55.097656 L 51.808594 57 C 51.808594 57.082031 51.78125 57.152344 51.722656 57.210938 C 51.667969 57.269531 51.597656 57.296875 51.515625 57.296875 L 49.621094 57.296875 C 49.539062 57.296875 49.472656 57.269531 49.414062 57.210938 C 49.355469 57.152344 49.328125 57.082031 49.328125 57 L 49.328125 55.097656 C 49.328125 55.015625 49.355469 54.949219 49.414062 54.890625 C 49.472656 54.832031 49.539062 54.804688 49.621094 54.804688 Z M 49.621094 54.804688 " fill-opacity="1" fill-rule="nonzero"/><path fill="#fffffa" d="M 55.519531 54.804688 L 57.414062 54.804688 C 57.496094 54.804688 57.5625 54.832031 57.621094 54.890625 C 57.679688 54.949219 57.707031 55.015625 57.707031 55.097656 L 57.707031 57 C 57.707031 57.082031 57.679688 57.152344 57.621094 57.210938 C 57.5625 57.269531 57.496094 57.296875 57.414062 57.296875 L 55.519531 57.296875 C 55.4375 57.296875 55.367188 57.269531 55.308594 57.210938 C 55.253906 57.152344 55.222656 57.082031 55.222656 57 L 55.222656 55.097656 C 55.222656 55.015625 55.253906 54.949219 55.308594 54.890625 C 55.367188 54.832031 55.4375 54.804688 55.519531 54.804688 Z M 55.519531 54.804688 " fill-opacity="1" fill-rule="nonzero"/><path fill="#fffffa" d="M 52.570312 54.804688 L 54.464844 54.804688 C 54.546875 54.804688 54.617188 54.832031 54.671875 54.890625 C 54.730469 54.949219 54.757812 55.015625 54.757812 55.097656 L 54.757812 57 C 54.757812 57.082031 54.730469 57.152344 54.671875 57.210938 C 54.617188 57.269531 54.546875 57.296875 54.464844 57.296875 L 52.570312 57.296875 C 52.488281 57.296875 52.417969 57.269531 52.363281 57.210938 C 52.304688 57.152344 52.277344 57.082031 52.277344 57 L 52.277344 55.097656 C 52.277344 55.015625 52.304688 54.949219 52.363281 54.890625 C 52.417969 54.832031 52.488281 54.804688 52.570312 54.804688 Z M 52.570312 54.804688 " fill-opacity="1" fill-rule="nonzero"/><path fill="#fffffa" d="M 52.570312 51.84375 L 54.464844 51.84375 C 54.546875 51.84375 54.617188 51.871094 54.671875 51.929688 C 54.730469 51.988281 54.757812 52.058594 54.757812 52.136719 L 54.757812 54.042969 C 54.757812 54.121094 54.730469 54.191406 54.671875 54.25 C 54.617188 54.308594 54.546875 54.335938 54.464844 54.335938 L 52.570312 54.335938 C 52.488281 54.335938 52.417969 54.308594 52.363281 54.25 C 52.304688 54.191406 52.277344 54.121094 52.277344 54.042969 L 52.277344 52.136719 C 52.277344 52.058594 52.304688 51.988281 52.363281 51.929688 C 52.417969 51.871094 52.488281 51.84375 52.570312 51.84375 Z M 52.570312 51.84375 " fill-opacity="1" fill-rule="nonzero"/><path fill="#030305" d="M 11.683594 51.84375 L 13.578125 51.84375 C 13.660156 51.84375 13.730469 51.871094 13.789062 51.929688 C 13.84375 51.988281 13.875 52.058594 13.875 52.136719 L 13.875 54.042969 C 13.875 54.121094 13.84375 54.191406 13.789062 54.25 C 13.730469 54.308594 13.660156 54.335938 13.578125 54.335938 L 11.683594 54.335938 C 11.601562 54.335938 11.535156 54.308594 11.476562 54.25 C 11.417969 54.191406 11.390625 54.121094 11.390625 54.042969 L 11.390625 52.136719 C 11.390625 52.058594 11.417969 51.988281 11.476562 51.929688 C 11.535156 51.871094 11.601562 51.84375 11.683594 51.84375 Z M 11.683594 51.84375 " fill-opacity="1" fill-rule="nonzero"/><path fill="#030305" d="M 14.632812 51.84375 L 16.527344 51.84375 C 16.609375 51.84375 16.679688 51.871094 16.734375 51.929688 C 16.792969 51.988281 16.820312 52.058594 16.820312 52.136719 L 16.820312 54.042969 C 16.820312 54.121094 16.792969 54.191406 16.734375 54.25 C 16.679688 54.308594 16.609375 54.335938 16.527344 54.335938 L 14.632812 54.335938 C 14.550781 54.335938 14.480469 54.308594 14.425781 54.25 C 14.367188 54.191406 14.339844 54.121094 14.339844 54.042969 L 14.339844 52.136719 C 14.339844 52.058594 14.367188 51.988281 14.425781 51.929688 C 14.480469 51.871094 14.550781 51.84375 14.632812 51.84375 Z M 14.632812 51.84375 " fill-opacity="1" fill-rule="nonzero"/><path fill="#030305" d="M 20.527344 51.84375 L 22.421875 51.84375 C 22.503906 51.84375 22.574219 51.871094 22.632812 51.929688 C 22.6875 51.988281 22.71875 52.058594 22.71875 52.136719 L 22.71875 54.042969 C 22.71875 54.121094 22.6875 54.191406 22.632812 54.25 C 22.574219 54.308594 22.503906 54.335938 22.421875 54.335938 L 20.527344 54.335938 C 20.449219 54.335938 20.378906 54.308594 20.320312 54.25 C 20.261719 54.191406 20.234375 54.121094 20.234375 54.042969 L 20.234375 52.136719 C 20.234375 52.058594 20.261719 51.988281 20.320312 51.929688 C 20.378906 51.871094 20.449219 51.84375 20.527344 51.84375 Z M 20.527344 51.84375 " fill-opacity="1" fill-rule="nonzero"/><path fill="#030305" d="M 23.476562 51.84375 L 25.371094 51.84375 C 25.453125 51.84375 25.523438 51.871094 25.578125 51.929688 C 25.636719 51.988281 25.664062 52.058594 25.664062 52.136719 L 25.664062 54.042969 C 25.664062 54.121094 25.636719 54.191406 25.578125 54.25 C 25.523438 54.308594 25.453125 54.335938 25.371094 54.335938 L 23.476562 54.335938 C 23.394531 54.335938 23.328125 54.308594 23.269531 54.25 C 23.210938 54.191406 23.183594 54.121094 23.183594 54.042969 L 23.183594 52.136719 C 23.183594 52.058594 23.210938 51.988281 23.269531 51.929688 C 23.328125 51.871094 23.394531 51.84375 23.476562 51.84375 Z M 23.476562 51.84375 " fill-opacity="1" fill-rule="nonzero"/><path fill="#030305" d="M 17.582031 51.84375 L 19.476562 51.84375 C 19.558594 51.84375 19.625 51.871094 19.683594 51.929688 C 19.742188 51.988281 19.769531 52.058594 19.769531 52.136719 L 19.769531 54.042969 C 19.769531 54.121094 19.742188 54.191406 19.683594 54.25 C 19.625 54.308594 19.558594 54.335938 19.476562 54.335938 L 17.582031 54.335938 C 17.5 54.335938 17.429688 54.308594 17.371094 54.25 C 17.316406 54.191406 17.285156 54.121094 17.285156 54.042969 L 17.285156 52.136719 C 17.285156 52.058594 17.316406 51.988281 17.371094 51.929688 C 17.429688 51.871094 17.5 51.84375 17.582031 51.84375 Z M 17.582031 51.84375 " fill-opacity="1" fill-rule="nonzero"/><path fill="#030305" d="M 26.425781 51.84375 L 28.320312 51.84375 C 28.402344 51.84375 28.46875 51.871094 28.527344 51.929688 C 28.585938 51.988281 28.613281 52.058594 28.613281 52.136719 L 28.613281 54.042969 C 28.613281 54.121094 28.585938 54.191406 28.527344 54.25 C 28.46875 54.308594 28.402344 54.335938 28.320312 54.335938 L 26.425781 54.335938 C 26.34375 54.335938 26.273438 54.308594 26.21875 54.25 C 26.160156 54.191406 26.132812 54.121094 26.132812 54.042969 L 26.132812 52.136719 C 26.132812 52.058594 26.160156 51.988281 26.21875 51.929688 C 26.273438 51.871094 26.34375 51.84375 26.425781 51.84375 Z M 26.425781 51.84375 " fill-opacity="1" fill-rule="nonzero"/><path fill="#030305" d="M 29.371094 51.84375 L 31.269531 51.84375 C 31.347656 51.84375 31.417969 51.871094 31.476562 51.929688 C 31.53125 51.988281 31.5625 52.058594 31.5625 52.136719 L 31.5625 54.042969 C 31.5625 54.121094 31.53125 54.191406 31.476562 54.25 C 31.417969 54.308594 31.347656 54.335938 31.269531 54.335938 L 29.371094 54.335938 C 29.292969 54.335938 29.222656 54.308594 29.164062 54.25 C 29.109375 54.191406 29.078125 54.121094 29.078125 54.042969 L 29.078125 52.136719 C 29.078125 52.058594 29.109375 51.988281 29.164062 51.929688 C 29.222656 51.871094 29.292969 51.84375 29.371094 51.84375 Z M 29.371094 51.84375 " fill-opacity="1" fill-rule="nonzero"/><path fill="#030305" d="M 35.269531 51.84375 L 37.164062 51.84375 C 37.246094 51.84375 37.316406 51.871094 37.371094 51.929688 C 37.429688 51.988281 37.457031 52.058594 37.457031 52.136719 L 37.457031 54.042969 C 37.457031 54.121094 37.429688 54.191406 37.371094 54.25 C 37.316406 54.308594 37.246094 54.335938 37.164062 54.335938 L 35.269531 54.335938 C 35.1875 54.335938 35.117188 54.308594 35.0625 54.25 C 35.003906 54.191406 34.976562 54.121094 34.976562 54.042969 L 34.976562 52.136719 C 34.976562 52.058594 35.003906 51.988281 35.0625 51.929688 C 35.117188 51.871094 35.1875 51.84375 35.269531 51.84375 Z M 35.269531 51.84375 " fill-opacity="1" fill-rule="nonzero"/><path fill="#030305" d="M 38.21875 51.84375 L 40.113281 51.84375 C 40.195312 51.84375 40.261719 51.871094 40.320312 51.929688 C 40.378906 51.988281 40.40625 52.058594 40.40625 52.136719 L 40.40625 54.042969 C 40.40625 54.121094 40.378906 54.191406 40.320312 54.25 C 40.261719 54.308594 40.195312 54.335938 40.113281 54.335938 L 38.21875 54.335938 C 38.136719 54.335938 38.066406 54.308594 38.007812 54.25 C 37.953125 54.191406 37.921875 54.121094 37.921875 54.042969 L 37.921875 52.136719 C 37.921875 52.058594 37.953125 51.988281 38.007812 51.929688 C 38.066406 51.871094 38.136719 51.84375 38.21875 51.84375 Z M 38.21875 51.84375 " fill-opacity="1" fill-rule="nonzero"/><path fill="#030305" d="M 41.164062 51.84375 L 47.863281 51.84375 C 47.941406 51.84375 48.011719 51.871094 48.070312 51.929688 C 48.128906 51.988281 48.15625 52.058594 48.15625 52.136719 L 48.15625 54.042969 C 48.15625 54.121094 48.128906 54.191406 48.070312 54.25 C 48.011719 54.308594 47.941406 54.335938 47.863281 54.335938 L 41.164062 54.335938 C 41.085938 54.335938 41.015625 54.308594 40.957031 54.25 C 40.898438 54.191406 40.871094 54.121094 40.871094 54.042969 L 40.871094 52.136719 C 40.871094 52.058594 40.898438 51.988281 40.957031 51.929688 C 41.015625 51.871094 41.085938 51.84375 41.164062 51.84375 Z M 41.164062 51.84375 " fill-opacity="1" fill-rule="nonzero"/><path fill="#030305" d="M 32.320312 51.84375 L 34.214844 51.84375 C 34.296875 51.84375 34.367188 51.871094 34.421875 51.929688 C 34.480469 51.988281 34.511719 52.058594 34.511719 52.136719 L 34.511719 54.042969 C 34.511719 54.121094 34.480469 54.191406 34.421875 54.25 C 34.367188 54.308594 34.296875 54.335938 34.214844 54.335938 L 32.320312 54.335938 C 32.238281 54.335938 32.171875 54.308594 32.113281 54.25 C 32.054688 54.191406 32.027344 54.121094 32.027344 54.042969 L 32.027344 52.136719 C 32.027344 52.058594 32.054688 51.988281 32.113281 51.929688 C 32.171875 51.871094 32.238281 51.84375 32.320312 51.84375 Z M 32.320312 51.84375 " fill-opacity="1" fill-rule="nonzero"/><path fill="#030305" d="M 12.148438 45.921875 L 14.042969 45.921875 C 14.125 45.921875 14.195312 45.953125 14.253906 46.007812 C 14.308594 46.066406 14.339844 46.136719 14.339844 46.21875 L 14.339844 48.121094 C 14.339844 48.203125 14.308594 48.273438 14.253906 48.328125 C 14.195312 48.386719 14.125 48.414062 14.042969 48.414062 L 12.148438 48.414062 C 12.070312 48.414062 12 48.386719 11.941406 48.328125 C 11.882812 48.273438 11.855469 48.203125 11.855469 48.121094 L 11.855469 46.21875 C 11.855469 46.136719 11.882812 46.066406 11.941406 46.007812 C 12 45.953125 12.070312 45.921875 12.148438 45.921875 Z M 12.148438 45.921875 " fill-opacity="1" fill-rule="nonzero"/><path fill="#030305" d="M 9.203125 45.921875 L 11.097656 45.921875 C 11.179688 45.921875 11.246094 45.953125 11.304688 46.007812 C 11.363281 46.066406 11.390625 46.136719 11.390625 46.21875 L 11.390625 48.121094 C 11.390625 48.203125 11.363281 48.273438 11.304688 48.328125 C 11.246094 48.386719 11.179688 48.414062 11.097656 48.414062 L 9.203125 48.414062 C 9.121094 48.414062 9.050781 48.386719 8.992188 48.328125 C 8.9375 48.273438 8.90625 48.203125 8.90625 48.121094 L 8.90625 46.21875 C 8.90625 46.136719 8.9375 46.066406 8.992188 46.007812 C 9.050781 45.953125 9.121094 45.921875 9.203125 45.921875 Z M 9.203125 45.921875 " fill-opacity="1" fill-rule="nonzero"/><path fill="#030305" d="M 4.855469 45.921875 L 8.140625 45.921875 C 8.222656 45.921875 8.289062 45.953125 8.347656 46.007812 C 8.40625 46.066406 8.433594 46.136719 8.433594 46.21875 L 8.433594 48.121094 C 8.433594 48.203125 8.40625 48.273438 8.347656 48.328125 C 8.289062 48.386719 8.222656 48.414062 8.140625 48.414062 L 4.855469 48.414062 C 4.777344 48.414062 4.707031 48.386719 4.648438 48.328125 C 4.59375 48.273438 4.5625 48.203125 4.5625 48.121094 L 4.5625 46.21875 C 4.5625 46.136719 4.59375 46.066406 4.648438 46.007812 C 4.707031 45.953125 4.777344 45.921875 4.855469 45.921875 Z M 4.855469 45.921875 " fill-opacity="1" fill-rule="nonzero"/><path fill="#030305" d="M 44.578125 45.921875 L 47.863281 45.921875 C 47.941406 45.921875 48.011719 45.953125 48.070312 46.007812 C 48.128906 46.066406 48.15625 46.136719 48.15625 46.21875 L 48.15625 48.121094 C 48.15625 48.203125 48.128906 48.273438 48.070312 48.328125 C 48.011719 48.386719 47.941406 48.414062 47.863281 48.414062 L 44.578125 48.414062 C 44.496094 48.414062 44.429688 48.386719 44.371094 48.328125 C 44.3125 48.273438 44.285156 48.203125 44.285156 48.121094 L 44.285156 46.21875 C 44.285156 46.136719 44.3125 46.066406 44.371094 46.007812 C 44.429688 45.953125 44.496094 45.921875 44.578125 45.921875 Z M 44.578125 45.921875 " fill-opacity="1" fill-rule="nonzero"/><path fill="#030305" d="M 42.5625 48.882812 L 47.863281 48.882812 C 47.941406 48.882812 48.011719 48.910156 48.070312 48.96875 C 48.128906 49.027344 48.15625 49.097656 48.15625 49.179688 L 48.15625 51.082031 C 48.15625 51.164062 48.128906 51.230469 48.070312 51.289062 C 48.011719 51.347656 47.941406 51.375 47.863281 51.375 L 42.5625 51.375 C 42.480469 51.375 42.410156 51.347656 42.355469 51.289062 C 42.296875 51.230469 42.269531 51.164062 42.269531 51.082031 L 42.269531 49.179688 C 42.269531 49.097656 42.296875 49.027344 42.355469 48.96875 C 42.410156 48.910156 42.480469 48.882812 42.5625 48.882812 Z M 42.5625 48.882812 " fill-opacity="1" fill-rule="nonzero"/><path fill="#030305" d="M 4.855469 48.882812 L 9.078125 48.882812 C 9.160156 48.882812 9.230469 48.910156 9.289062 48.96875 C 9.34375 49.027344 9.375 49.097656 9.375 49.179688 L 9.375 51.082031 C 9.375 51.164062 9.34375 51.230469 9.289062 51.289062 C 9.230469 51.347656 9.160156 51.375 9.078125 51.375 L 4.855469 51.375 C 4.777344 51.375 4.707031 51.347656 4.648438 51.289062 C 4.59375 51.230469 4.5625 51.164062 4.5625 51.082031 L 4.5625 49.179688 C 4.5625 49.097656 4.59375 49.027344 4.648438 48.96875 C 4.707031 48.910156 4.777344 48.882812 4.855469 48.882812 Z M 4.855469 48.882812 " fill-opacity="1" fill-rule="nonzero"/><path fill="#030305" d="M 4.855469 51.84375 L 10.613281 51.84375 C 10.695312 51.84375 10.765625 51.871094 10.824219 51.929688 C 10.878906 51.988281 10.910156 52.058594 10.910156 52.136719 L 10.910156 54.042969 C 10.910156 54.121094 10.878906 54.191406 10.824219 54.25 C 10.765625 54.308594 10.695312 54.335938 10.613281 54.335938 L 4.855469 54.335938 C 4.777344 54.335938 4.707031 54.308594 4.648438 54.25 C 4.59375 54.191406 4.5625 54.121094 4.5625 54.042969 L 4.5625 52.136719 C 4.5625 52.058594 4.59375 51.988281 4.648438 51.929688 C 4.707031 51.871094 4.777344 51.84375 4.855469 51.84375 Z M 4.855469 51.84375 " fill-opacity="1" fill-rule="nonzero"/><path fill="#030305" d="M 4.855469 54.804688 L 7.667969 54.804688 C 7.746094 54.804688 7.816406 54.832031 7.875 54.890625 C 7.933594 54.949219 7.960938 55.015625 7.960938 55.097656 L 7.960938 57 C 7.960938 57.082031 7.933594 57.152344 7.875 57.210938 C 7.816406 57.269531 7.746094 57.296875 7.667969 57.296875 L 4.855469 57.296875 C 4.777344 57.296875 4.707031 57.269531 4.648438 57.210938 C 4.59375 57.152344 4.5625 57.082031 4.5625 57 L 4.5625 55.097656 C 4.5625 55.015625 4.59375 54.949219 4.648438 54.890625 C 4.707031 54.832031 4.777344 54.804688 4.855469 54.804688 Z M 4.855469 54.804688 " fill-opacity="1" fill-rule="nonzero"/><path fill="#030305" d="M 8.71875 54.804688 L 11.527344 54.804688 C 11.609375 54.804688 11.679688 54.832031 11.738281 54.890625 C 11.792969 54.949219 11.824219 55.015625 11.824219 55.097656 L 11.824219 57 C 11.824219 57.082031 11.792969 57.152344 11.738281 57.210938 C 11.679688 57.269531 11.609375 57.296875 11.527344 57.296875 L 8.71875 57.296875 C 8.636719 57.296875 8.570312 57.269531 8.511719 57.210938 C 8.453125 57.152344 8.425781 57.082031 8.425781 57 L 8.425781 55.097656 C 8.425781 55.015625 8.453125 54.949219 8.511719 54.890625 C 8.570312 54.832031 8.636719 54.804688 8.71875 54.804688 Z M 8.71875 54.804688 " fill-opacity="1" fill-rule="nonzero"/><path fill="#030305" d="M 12.582031 54.804688 L 15.390625 54.804688 C 15.472656 54.804688 15.542969 54.832031 15.597656 54.890625 C 15.65625 54.949219 15.683594 55.015625 15.683594 55.097656 L 15.683594 57 C 15.683594 57.082031 15.65625 57.152344 15.597656 57.210938 C 15.542969 57.269531 15.472656 57.296875 15.390625 57.296875 L 12.582031 57.296875 C 12.5 57.296875 12.433594 57.269531 12.375 57.210938 C 12.316406 57.152344 12.289062 57.082031 12.289062 57 L 12.289062 55.097656 C 12.289062 55.015625 12.316406 54.949219 12.375 54.890625 C 12.433594 54.832031 12.5 54.804688 12.582031 54.804688 Z M 12.582031 54.804688 " fill-opacity="1" fill-rule="nonzero"/><path fill="#030305" d="M 45.347656 54.804688 L 47.84375 54.804688 C 47.925781 54.804688 47.996094 54.832031 48.054688 54.890625 C 48.109375 54.949219 48.140625 55.015625 48.140625 55.097656 L 48.140625 57 C 48.140625 57.082031 48.109375 57.152344 48.054688 57.210938 C 47.996094 57.269531 47.925781 57.296875 47.84375 57.296875 L 45.347656 57.296875 C 45.265625 57.296875 45.195312 57.269531 45.140625 57.210938 C 45.082031 57.152344 45.050781 57.082031 45.050781 57 L 45.050781 55.097656 C 45.050781 55.015625 45.082031 54.949219 45.140625 54.890625 C 45.195312 54.832031 45.265625 54.804688 45.347656 54.804688 Z M 45.347656 54.804688 " fill-opacity="1" fill-rule="nonzero"/><path fill="#030305" d="M 41.792969 54.804688 L 44.292969 54.804688 C 44.375 54.804688 44.445312 54.832031 44.5 54.890625 C 44.558594 54.949219 44.585938 55.015625 44.585938 55.097656 L 44.585938 57 C 44.585938 57.082031 44.558594 57.152344 44.5 57.210938 C 44.445312 57.269531 44.375 57.296875 44.292969 57.296875 L 41.792969 57.296875 C 41.714844 57.296875 41.644531 57.269531 41.585938 57.210938 C 41.527344 57.152344 41.5 57.082031 41.5 57 L 41.5 55.097656 C 41.5 55.015625 41.527344 54.949219 41.585938 54.890625 C 41.644531 54.832031 41.714844 54.804688 41.792969 54.804688 Z M 41.792969 54.804688 " fill-opacity="1" fill-rule="nonzero"/><path fill="#030305" d="M 38.21875 54.804688 L 40.714844 54.804688 C 40.796875 54.804688 40.867188 54.832031 40.925781 54.890625 C 40.980469 54.949219 41.011719 55.015625 41.011719 55.097656 L 41.011719 57 C 41.011719 57.082031 40.980469 57.152344 40.925781 57.210938 C 40.867188 57.269531 40.796875 57.296875 40.714844 57.296875 L 38.21875 57.296875 C 38.136719 57.296875 38.066406 57.269531 38.007812 57.210938 C 37.953125 57.152344 37.921875 57.082031 37.921875 57 L 37.921875 55.097656 C 37.921875 55.015625 37.953125 54.949219 38.007812 54.890625 C 38.066406 54.832031 38.136719 54.804688 38.21875 54.804688 Z M 38.21875 54.804688 " fill-opacity="1" fill-rule="nonzero"/><path fill="#030305" d="M 34.65625 54.804688 L 37.15625 54.804688 C 37.238281 54.804688 37.304688 54.832031 37.363281 54.890625 C 37.421875 54.949219 37.449219 55.015625 37.449219 55.097656 L 37.449219 57 C 37.449219 57.082031 37.421875 57.152344 37.363281 57.210938 C 37.304688 57.269531 37.238281 57.296875 37.15625 57.296875 L 34.65625 57.296875 C 34.574219 57.296875 34.507812 57.269531 34.449219 57.210938 C 34.390625 57.152344 34.363281 57.082031 34.363281 57 L 34.363281 55.097656 C 34.363281 55.015625 34.390625 54.949219 34.449219 54.890625 C 34.507812 54.832031 34.574219 54.804688 34.65625 54.804688 Z M 34.65625 54.804688 " fill-opacity="1" fill-rule="nonzero"/><path fill="#030305" d="M 16.445312 54.804688 L 33.605469 54.804688 C 33.683594 54.804688 33.753906 54.832031 33.8125 54.890625 C 33.867188 54.949219 33.898438 55.015625 33.898438 55.097656 L 33.898438 57 C 33.898438 57.082031 33.867188 57.152344 33.8125 57.210938 C 33.753906 57.269531 33.683594 57.296875 33.605469 57.296875 L 16.445312 57.296875 C 16.363281 57.296875 16.292969 57.269531 16.238281 57.210938 C 16.179688 57.152344 16.152344 57.082031 16.152344 57 L 16.152344 55.097656 C 16.152344 55.015625 16.179688 54.949219 16.238281 54.890625 C 16.292969 54.832031 16.363281 54.804688 16.445312 54.804688 Z M 16.445312 54.804688 " fill-opacity="1" fill-rule="nonzero"/><path fill="#030305" d="M 15.097656 45.921875 L 16.992188 45.921875 C 17.074219 45.921875 17.144531 45.953125 17.199219 46.007812 C 17.257812 46.066406 17.285156 46.136719 17.285156 46.21875 L 17.285156 48.121094 C 17.285156 48.203125 17.257812 48.273438 17.199219 48.328125 C 17.144531 48.386719 17.074219 48.414062 16.992188 48.414062 L 15.097656 48.414062 C 15.015625 48.414062 14.949219 48.386719 14.890625 48.328125 C 14.832031 48.273438 14.804688 48.203125 14.804688 48.121094 L 14.804688 46.21875 C 14.804688 46.136719 14.832031 46.066406 14.890625 46.007812 C 14.949219 45.953125 15.015625 45.921875 15.097656 45.921875 Z M 15.097656 45.921875 " fill-opacity="1" fill-rule="nonzero"/><path fill="#030305" d="M 20.992188 45.921875 L 22.890625 45.921875 C 22.96875 45.921875 23.039062 45.953125 23.097656 46.007812 C 23.15625 46.066406 23.183594 46.136719 23.183594 46.21875 L 23.183594 48.121094 C 23.183594 48.203125 23.15625 48.273438 23.097656 48.328125 C 23.039062 48.386719 22.96875 48.414062 22.890625 48.414062 L 20.992188 48.414062 C 20.914062 48.414062 20.84375 48.386719 20.785156 48.328125 C 20.730469 48.273438 20.699219 48.203125 20.699219 48.121094 L 20.699219 46.21875 C 20.699219 46.136719 20.730469 46.066406 20.785156 46.007812 C 20.84375 45.953125 20.914062 45.921875 20.992188 45.921875 Z M 20.992188 45.921875 " fill-opacity="1" fill-rule="nonzero"/><path fill="#030305" d="M 23.941406 45.921875 L 25.835938 45.921875 C 25.917969 45.921875 25.988281 45.953125 26.046875 46.007812 C 26.101562 46.066406 26.132812 46.136719 26.132812 46.21875 L 26.132812 48.121094 C 26.132812 48.203125 26.101562 48.273438 26.046875 48.328125 C 25.988281 48.386719 25.917969 48.414062 25.835938 48.414062 L 23.941406 48.414062 C 23.859375 48.414062 23.792969 48.386719 23.734375 48.328125 C 23.675781 48.273438 23.648438 48.203125 23.648438 48.121094 L 23.648438 46.21875 C 23.648438 46.136719 23.675781 46.066406 23.734375 46.007812 C 23.792969 45.953125 23.859375 45.921875 23.941406 45.921875 Z M 23.941406 45.921875 " fill-opacity="1" fill-rule="nonzero"/><path fill="#030305" d="M 18.046875 45.921875 L 19.941406 45.921875 C 20.023438 45.921875 20.089844 45.953125 20.148438 46.007812 C 20.207031 46.066406 20.234375 46.136719 20.234375 46.21875 L 20.234375 48.121094 C 20.234375 48.203125 20.207031 48.273438 20.148438 48.328125 C 20.089844 48.386719 20.023438 48.414062 19.941406 48.414062 L 18.046875 48.414062 C 17.964844 48.414062 17.894531 48.386719 17.839844 48.328125 C 17.78125 48.273438 17.753906 48.203125 17.753906 48.121094 L 17.753906 46.21875 C 17.753906 46.136719 17.78125 46.066406 17.839844 46.007812 C 17.894531 45.953125 17.964844 45.921875 18.046875 45.921875 Z M 18.046875 45.921875 " fill-opacity="1" fill-rule="nonzero"/><path fill="#030305" d="M 26.890625 45.921875 L 28.785156 45.921875 C 28.867188 45.921875 28.9375 45.953125 28.992188 46.007812 C 29.050781 46.066406 29.078125 46.136719 29.078125 46.21875 L 29.078125 48.121094 C 29.078125 48.203125 29.050781 48.273438 28.992188 48.328125 C 28.9375 48.386719 28.867188 48.414062 28.785156 48.414062 L 26.890625 48.414062 C 26.808594 48.414062 26.738281 48.386719 26.683594 48.328125 C 26.625 48.273438 26.597656 48.203125 26.597656 48.121094 L 26.597656 46.21875 C 26.597656 46.136719 26.625 46.066406 26.683594 46.007812 C 26.738281 45.953125 26.808594 45.921875 26.890625 45.921875 Z M 26.890625 45.921875 " fill-opacity="1" fill-rule="nonzero"/><path fill="#030305" d="M 29.839844 45.921875 L 31.734375 45.921875 C 31.816406 45.921875 31.882812 45.953125 31.941406 46.007812 C 32 46.066406 32.027344 46.136719 32.027344 46.21875 L 32.027344 48.121094 C 32.027344 48.203125 32 48.273438 31.941406 48.328125 C 31.882812 48.386719 31.816406 48.414062 31.734375 48.414062 L 29.839844 48.414062 C 29.757812 48.414062 29.6875 48.386719 29.628906 48.328125 C 29.574219 48.273438 29.542969 48.203125 29.542969 48.121094 L 29.542969 46.21875 C 29.542969 46.136719 29.574219 46.066406 29.628906 46.007812 C 29.6875 45.953125 29.757812 45.921875 29.839844 45.921875 Z M 29.839844 45.921875 " fill-opacity="1" fill-rule="nonzero"/><path fill="#030305" d="M 35.734375 45.921875 L 37.628906 45.921875 C 37.710938 45.921875 37.78125 45.953125 37.835938 46.007812 C 37.894531 46.066406 37.921875 46.136719 37.921875 46.21875 L 37.921875 48.121094 C 37.921875 48.203125 37.894531 48.273438 37.835938 48.328125 C 37.78125 48.386719 37.710938 48.414062 37.628906 48.414062 L 35.734375 48.414062 C 35.652344 48.414062 35.585938 48.386719 35.527344 48.328125 C 35.46875 48.273438 35.441406 48.203125 35.441406 48.121094 L 35.441406 46.21875 C 35.441406 46.136719 35.46875 46.066406 35.527344 46.007812 C 35.585938 45.953125 35.652344 45.921875 35.734375 45.921875 Z M 35.734375 45.921875 " fill-opacity="1" fill-rule="nonzero"/><path fill="#030305" d="M 38.683594 45.921875 L 40.578125 45.921875 C 40.660156 45.921875 40.726562 45.953125 40.785156 46.007812 C 40.84375 46.066406 40.871094 46.136719 40.871094 46.21875 L 40.871094 48.121094 C 40.871094 48.203125 40.84375 48.273438 40.785156 48.328125 C 40.726562 48.386719 40.660156 48.414062 40.578125 48.414062 L 38.683594 48.414062 C 38.601562 48.414062 38.53125 48.386719 38.476562 48.328125 C 38.417969 48.273438 38.390625 48.203125 38.390625 48.121094 L 38.390625 46.21875 C 38.390625 46.136719 38.417969 46.066406 38.476562 46.007812 C 38.53125 45.953125 38.601562 45.921875 38.683594 45.921875 Z M 38.683594 45.921875 " fill-opacity="1" fill-rule="nonzero"/><path fill="#030305" d="M 41.628906 45.921875 L 43.527344 45.921875 C 43.605469 45.921875 43.675781 45.953125 43.734375 46.007812 C 43.789062 46.066406 43.820312 46.136719 43.820312 46.21875 L 43.820312 48.121094 C 43.820312 48.203125 43.789062 48.273438 43.734375 48.328125 C 43.675781 48.386719 43.605469 48.414062 43.527344 48.414062 L 41.628906 48.414062 C 41.550781 48.414062 41.480469 48.386719 41.421875 48.328125 C 41.367188 48.273438 41.335938 48.203125 41.335938 48.121094 L 41.335938 46.21875 C 41.335938 46.136719 41.367188 46.066406 41.421875 46.007812 C 41.480469 45.953125 41.550781 45.921875 41.628906 45.921875 Z M 41.628906 45.921875 " fill-opacity="1" fill-rule="nonzero"/><path fill="#030305" d="M 32.785156 45.921875 L 34.683594 45.921875 C 34.761719 45.921875 34.832031 45.953125 34.890625 46.007812 C 34.945312 46.066406 34.976562 46.136719 34.976562 46.21875 L 34.976562 48.121094 C 34.976562 48.203125 34.945312 48.273438 34.890625 48.328125 C 34.832031 48.386719 34.761719 48.414062 34.683594 48.414062 L 32.785156 48.414062 C 32.707031 48.414062 32.636719 48.386719 32.578125 48.328125 C 32.519531 48.273438 32.492188 48.203125 32.492188 48.121094 L 32.492188 46.21875 C 32.492188 46.136719 32.519531 46.066406 32.578125 46.007812 C 32.636719 45.953125 32.707031 45.921875 32.785156 45.921875 Z M 32.785156 45.921875 " fill-opacity="1" fill-rule="nonzero"/><path fill="#030305" d="M 10.753906 42.960938 L 12.648438 42.960938 C 12.730469 42.960938 12.796875 42.992188 12.855469 43.050781 C 12.914062 43.105469 12.941406 43.175781 12.941406 43.257812 L 12.941406 45.160156 C 12.941406 45.242188 12.914062 45.3125 12.855469 45.371094 C 12.796875 45.425781 12.730469 45.457031 12.648438 45.457031 L 10.753906 45.457031 C 10.671875 45.457031 10.601562 45.425781 10.546875 45.371094 C 10.488281 45.3125 10.460938 45.242188 10.460938 45.160156 L 10.460938 43.257812 C 10.460938 43.175781 10.488281 43.105469 10.546875 43.050781 C 10.601562 42.992188 10.671875 42.960938 10.753906 42.960938 Z M 10.753906 42.960938 " fill-opacity="1" fill-rule="nonzero"/><path fill="#030305" d="M 7.804688 42.960938 L 9.699219 42.960938 C 9.78125 42.960938 9.851562 42.992188 9.90625 43.050781 C 9.964844 43.105469 9.992188 43.175781 9.992188 43.257812 L 9.992188 45.160156 C 9.992188 45.242188 9.964844 45.3125 9.90625 45.371094 C 9.851562 45.425781 9.78125 45.457031 9.699219 45.457031 L 7.804688 45.457031 C 7.722656 45.457031 7.65625 45.425781 7.597656 45.371094 C 7.539062 45.3125 7.511719 45.242188 7.511719 45.160156 L 7.511719 43.257812 C 7.511719 43.175781 7.539062 43.105469 7.597656 43.050781 C 7.65625 42.992188 7.722656 42.960938 7.804688 42.960938 Z M 7.804688 42.960938 " fill-opacity="1" fill-rule="nonzero"/><path fill="#030305" d="M 4.855469 42.960938 L 6.753906 42.960938 C 6.832031 42.960938 6.902344 42.992188 6.960938 43.050781 C 7.015625 43.105469 7.046875 43.175781 7.046875 43.257812 L 7.046875 45.160156 C 7.046875 45.242188 7.015625 45.3125 6.960938 45.371094 C 6.902344 45.425781 6.832031 45.457031 6.753906 45.457031 L 4.855469 45.457031 C 4.777344 45.457031 4.707031 45.425781 4.648438 45.371094 C 4.59375 45.3125 4.5625 45.242188 4.5625 45.160156 L 4.5625 43.257812 C 4.5625 43.175781 4.59375 43.105469 4.648438 43.050781 C 4.707031 42.992188 4.777344 42.960938 4.855469 42.960938 Z M 4.855469 42.960938 " fill-opacity="1" fill-rule="nonzero"/><path fill="#030305" d="M 13.703125 42.960938 L 15.597656 42.960938 C 15.675781 42.960938 15.746094 42.992188 15.804688 43.050781 C 15.863281 43.105469 15.890625 43.175781 15.890625 43.257812 L 15.890625 45.160156 C 15.890625 45.242188 15.863281 45.3125 15.804688 45.371094 C 15.746094 45.425781 15.675781 45.457031 15.597656 45.457031 L 13.703125 45.457031 C 13.621094 45.457031 13.550781 45.425781 13.492188 45.371094 C 13.4375 45.3125 13.40625 45.242188 13.40625 45.160156 L 13.40625 43.257812 C 13.40625 43.175781 13.4375 43.105469 13.492188 43.050781 C 13.550781 42.992188 13.621094 42.960938 13.703125 42.960938 Z M 13.703125 42.960938 " fill-opacity="1" fill-rule="nonzero"/><path fill="#030305" d="M 19.597656 42.960938 L 21.492188 42.960938 C 21.574219 42.960938 21.644531 42.992188 21.699219 43.050781 C 21.757812 43.105469 21.785156 43.175781 21.785156 43.257812 L 21.785156 45.160156 C 21.785156 45.242188 21.757812 45.3125 21.699219 45.371094 C 21.644531 45.425781 21.574219 45.457031 21.492188 45.457031 L 19.597656 45.457031 C 19.515625 45.457031 19.445312 45.425781 19.390625 45.371094 C 19.332031 45.3125 19.304688 45.242188 19.304688 45.160156 L 19.304688 43.257812 C 19.304688 43.175781 19.332031 43.105469 19.390625 43.050781 C 19.445312 42.992188 19.515625 42.960938 19.597656 42.960938 Z M 19.597656 42.960938 " fill-opacity="1" fill-rule="nonzero"/><path fill="#030305" d="M 22.546875 42.960938 L 24.441406 42.960938 C 24.523438 42.960938 24.589844 42.992188 24.648438 43.050781 C 24.707031 43.105469 24.734375 43.175781 24.734375 43.257812 L 24.734375 45.160156 C 24.734375 45.242188 24.707031 45.3125 24.648438 45.371094 C 24.589844 45.425781 24.523438 45.457031 24.441406 45.457031 L 22.546875 45.457031 C 22.464844 45.457031 22.394531 45.425781 22.339844 45.371094 C 22.28125 45.3125 22.253906 45.242188 22.253906 45.160156 L 22.253906 43.257812 C 22.253906 43.175781 22.28125 43.105469 22.339844 43.050781 C 22.394531 42.992188 22.464844 42.960938 22.546875 42.960938 Z M 22.546875 42.960938 " fill-opacity="1" fill-rule="nonzero"/><path fill="#030305" d="M 16.648438 42.960938 L 18.542969 42.960938 C 18.625 42.960938 18.695312 42.992188 18.753906 43.050781 C 18.808594 43.105469 18.839844 43.175781 18.839844 43.257812 L 18.839844 45.160156 C 18.839844 45.242188 18.808594 45.3125 18.753906 45.371094 C 18.695312 45.425781 18.625 45.457031 18.542969 45.457031 L 16.648438 45.457031 C 16.570312 45.457031 16.5 45.425781 16.441406 45.371094 C 16.382812 45.3125 16.355469 45.242188 16.355469 45.160156 L 16.355469 43.257812 C 16.355469 43.175781 16.382812 43.105469 16.441406 43.050781 C 16.5 42.992188 16.570312 42.960938 16.648438 42.960938 Z M 16.648438 42.960938 " fill-opacity="1" fill-rule="nonzero"/><path fill="#030305" d="M 25.492188 42.960938 L 27.390625 42.960938 C 27.46875 42.960938 27.539062 42.992188 27.597656 43.050781 C 27.652344 43.105469 27.683594 43.175781 27.683594 43.257812 L 27.683594 45.160156 C 27.683594 45.242188 27.652344 45.3125 27.597656 45.371094 C 27.539062 45.425781 27.46875 45.457031 27.390625 45.457031 L 25.492188 45.457031 C 25.414062 45.457031 25.34375 45.425781 25.285156 45.371094 C 25.230469 45.3125 25.199219 45.242188 25.199219 45.160156 L 25.199219 43.257812 C 25.199219 43.175781 25.230469 43.105469 25.285156 43.050781 C 25.34375 42.992188 25.414062 42.960938 25.492188 42.960938 Z M 25.492188 42.960938 " fill-opacity="1" fill-rule="nonzero"/><path fill="#030305" d="M 28.441406 42.960938 L 30.335938 42.960938 C 30.417969 42.960938 30.488281 42.992188 30.542969 43.050781 C 30.601562 43.105469 30.628906 43.175781 30.628906 43.257812 L 30.628906 45.160156 C 30.628906 45.242188 30.601562 45.3125 30.542969 45.371094 C 30.488281 45.425781 30.417969 45.457031 30.335938 45.457031 L 28.441406 45.457031 C 28.359375 45.457031 28.292969 45.425781 28.234375 45.371094 C 28.175781 45.3125 28.148438 45.242188 28.148438 45.160156 L 28.148438 43.257812 C 28.148438 43.175781 28.175781 43.105469 28.234375 43.050781 C 28.292969 42.992188 28.359375 42.960938 28.441406 42.960938 Z M 28.441406 42.960938 " fill-opacity="1" fill-rule="nonzero"/><path fill="#030305" d="M 34.339844 42.960938 L 36.234375 42.960938 C 36.3125 42.960938 36.382812 42.992188 36.441406 43.050781 C 36.5 43.105469 36.527344 43.175781 36.527344 43.257812 L 36.527344 45.160156 C 36.527344 45.242188 36.5 45.3125 36.441406 45.371094 C 36.382812 45.425781 36.3125 45.457031 36.234375 45.457031 L 34.339844 45.457031 C 34.257812 45.457031 34.1875 45.425781 34.128906 45.371094 C 34.074219 45.3125 34.042969 45.242188 34.042969 45.160156 L 34.042969 43.257812 C 34.042969 43.175781 34.074219 43.105469 34.128906 43.050781 C 34.1875 42.992188 34.257812 42.960938 34.339844 42.960938 Z M 34.339844 42.960938 " fill-opacity="1" fill-rule="nonzero"/><path fill="#030305" d="M 37.285156 42.960938 L 39.179688 42.960938 C 39.261719 42.960938 39.332031 42.992188 39.390625 43.050781 C 39.445312 43.105469 39.476562 43.175781 39.476562 43.257812 L 39.476562 45.160156 C 39.476562 45.242188 39.445312 45.3125 39.390625 45.371094 C 39.332031 45.425781 39.261719 45.457031 39.179688 45.457031 L 37.285156 45.457031 C 37.203125 45.457031 37.136719 45.425781 37.078125 45.371094 C 37.019531 45.3125 36.992188 45.242188 36.992188 45.160156 L 36.992188 43.257812 C 36.992188 43.175781 37.019531 43.105469 37.078125 43.050781 C 37.136719 42.992188 37.203125 42.960938 37.285156 42.960938 Z M 37.285156 42.960938 " fill-opacity="1" fill-rule="nonzero"/><path fill="#030305" d="M 40.234375 42.960938 L 42.128906 42.960938 C 42.210938 42.960938 42.28125 42.992188 42.335938 43.050781 C 42.394531 43.105469 42.421875 43.175781 42.421875 43.257812 L 42.421875 45.160156 C 42.421875 45.242188 42.394531 45.3125 42.335938 45.371094 C 42.28125 45.425781 42.210938 45.457031 42.128906 45.457031 L 40.234375 45.457031 C 40.152344 45.457031 40.082031 45.425781 40.027344 45.371094 C 39.96875 45.3125 39.941406 45.242188 39.941406 45.160156 L 39.941406 43.257812 C 39.941406 43.175781 39.96875 43.105469 40.027344 43.050781 C 40.082031 42.992188 40.152344 42.960938 40.234375 42.960938 Z M 40.234375 42.960938 " fill-opacity="1" fill-rule="nonzero"/><path fill="#030305" d="M 43.183594 42.960938 L 47.863281 42.960938 C 47.941406 42.960938 48.011719 42.992188 48.070312 43.050781 C 48.128906 43.105469 48.15625 43.175781 48.15625 43.257812 L 48.15625 45.160156 C 48.15625 45.242188 48.128906 45.3125 48.070312 45.371094 C 48.011719 45.425781 47.941406 45.457031 47.863281 45.457031 L 43.183594 45.457031 C 43.101562 45.457031 43.03125 45.425781 42.976562 45.371094 C 42.917969 45.3125 42.890625 45.242188 42.890625 45.160156 L 42.890625 43.257812 C 42.890625 43.175781 42.917969 43.105469 42.976562 43.050781 C 43.03125 42.992188 43.101562 42.960938 43.183594 42.960938 Z M 43.183594 42.960938 " fill-opacity="1" fill-rule="nonzero"/><path fill="#030305" d="M 31.390625 42.960938 L 33.285156 42.960938 C 33.367188 42.960938 33.4375 42.992188 33.492188 43.050781 C 33.550781 43.105469 33.578125 43.175781 33.578125 43.257812 L 33.578125 45.160156 C 33.578125 45.242188 33.550781 45.3125 33.492188 45.371094 C 33.4375 45.425781 33.367188 45.457031 33.285156 45.457031 L 31.390625 45.457031 C 31.308594 45.457031 31.238281 45.425781 31.183594 45.371094 C 31.125 45.3125 31.097656 45.242188 31.097656 45.160156 L 31.097656 43.257812 C 31.097656 43.175781 31.125 43.105469 31.183594 43.050781 C 31.238281 42.992188 31.308594 42.960938 31.390625 42.960938 Z M 31.390625 42.960938 " fill-opacity="1" fill-rule="nonzero"/><path fill="#030305" d="M 10.132812 48.882812 L 12.027344 48.882812 C 12.109375 48.882812 12.179688 48.910156 12.234375 48.96875 C 12.292969 49.027344 12.320312 49.097656 12.320312 49.179688 L 12.320312 51.082031 C 12.320312 51.164062 12.292969 51.230469 12.234375 51.289062 C 12.179688 51.347656 12.109375 51.375 12.027344 51.375 L 10.132812 51.375 C 10.050781 51.375 9.980469 51.347656 9.925781 51.289062 C 9.867188 51.230469 9.839844 51.164062 9.839844 51.082031 L 9.839844 49.179688 C 9.839844 49.097656 9.867188 49.027344 9.925781 48.96875 C 9.980469 48.910156 10.050781 48.882812 10.132812 48.882812 Z M 10.132812 48.882812 " fill-opacity="1" fill-rule="nonzero"/><path fill="#030305" d="M 13.082031 48.882812 L 14.976562 48.882812 C 15.058594 48.882812 15.125 48.910156 15.183594 48.96875 C 15.242188 49.027344 15.269531 49.097656 15.269531 49.179688 L 15.269531 51.082031 C 15.269531 51.164062 15.242188 51.230469 15.183594 51.289062 C 15.125 51.347656 15.058594 51.375 14.976562 51.375 L 13.082031 51.375 C 13 51.375 12.929688 51.347656 12.875 51.289062 C 12.816406 51.230469 12.785156 51.164062 12.785156 51.082031 L 12.785156 49.179688 C 12.785156 49.097656 12.816406 49.027344 12.875 48.96875 C 12.929688 48.910156 13 48.882812 13.082031 48.882812 Z M 13.082031 48.882812 " fill-opacity="1" fill-rule="nonzero"/><path fill="#030305" d="M 18.976562 48.882812 L 20.871094 48.882812 C 20.953125 48.882812 21.023438 48.910156 21.078125 48.96875 C 21.136719 49.027344 21.164062 49.097656 21.164062 49.179688 L 21.164062 51.082031 C 21.164062 51.164062 21.136719 51.230469 21.078125 51.289062 C 21.023438 51.347656 20.953125 51.375 20.871094 51.375 L 18.976562 51.375 C 18.894531 51.375 18.828125 51.347656 18.769531 51.289062 C 18.710938 51.230469 18.683594 51.164062 18.683594 51.082031 L 18.683594 49.179688 C 18.683594 49.097656 18.710938 49.027344 18.769531 48.96875 C 18.828125 48.910156 18.894531 48.882812 18.976562 48.882812 Z M 18.976562 48.882812 " fill-opacity="1" fill-rule="nonzero"/><path fill="#030305" d="M 21.925781 48.882812 L 23.820312 48.882812 C 23.902344 48.882812 23.96875 48.910156 24.027344 48.96875 C 24.085938 49.027344 24.113281 49.097656 24.113281 49.179688 L 24.113281 51.082031 C 24.113281 51.164062 24.085938 51.230469 24.027344 51.289062 C 23.96875 51.347656 23.902344 51.375 23.820312 51.375 L 21.925781 51.375 C 21.84375 51.375 21.773438 51.347656 21.71875 51.289062 C 21.660156 51.230469 21.632812 51.164062 21.632812 51.082031 L 21.632812 49.179688 C 21.632812 49.097656 21.660156 49.027344 21.71875 48.96875 C 21.773438 48.910156 21.84375 48.882812 21.925781 48.882812 Z M 21.925781 48.882812 " fill-opacity="1" fill-rule="nonzero"/><path fill="#030305" d="M 16.027344 48.882812 L 17.925781 48.882812 C 18.003906 48.882812 18.074219 48.910156 18.132812 48.96875 C 18.1875 49.027344 18.21875 49.097656 18.21875 49.179688 L 18.21875 51.082031 C 18.21875 51.164062 18.1875 51.230469 18.132812 51.289062 C 18.074219 51.347656 18.003906 51.375 17.925781 51.375 L 16.027344 51.375 C 15.949219 51.375 15.878906 51.347656 15.820312 51.289062 C 15.765625 51.230469 15.734375 51.164062 15.734375 51.082031 L 15.734375 49.179688 C 15.734375 49.097656 15.765625 49.027344 15.820312 48.96875 C 15.878906 48.910156 15.949219 48.882812 16.027344 48.882812 Z M 16.027344 48.882812 " fill-opacity="1" fill-rule="nonzero"/><path fill="#030305" d="M 24.875 48.882812 L 26.769531 48.882812 C 26.847656 48.882812 26.917969 48.910156 26.976562 48.96875 C 27.035156 49.027344 27.0625 49.097656 27.0625 49.179688 L 27.0625 51.082031 C 27.0625 51.164062 27.035156 51.230469 26.976562 51.289062 C 26.917969 51.347656 26.847656 51.375 26.769531 51.375 L 24.875 51.375 C 24.792969 51.375 24.722656 51.347656 24.664062 51.289062 C 24.609375 51.230469 24.578125 51.164062 24.578125 51.082031 L 24.578125 49.179688 C 24.578125 49.097656 24.609375 49.027344 24.664062 48.96875 C 24.722656 48.910156 24.792969 48.882812 24.875 48.882812 Z M 24.875 48.882812 " fill-opacity="1" fill-rule="nonzero"/><path fill="#030305" d="M 27.820312 48.882812 L 29.714844 48.882812 C 29.796875 48.882812 29.867188 48.910156 29.925781 48.96875 C 29.980469 49.027344 30.011719 49.097656 30.011719 49.179688 L 30.011719 51.082031 C 30.011719 51.164062 29.980469 51.230469 29.925781 51.289062 C 29.867188 51.347656 29.796875 51.375 29.714844 51.375 L 27.820312 51.375 C 27.738281 51.375 27.671875 51.347656 27.613281 51.289062 C 27.554688 51.230469 27.527344 51.164062 27.527344 51.082031 L 27.527344 49.179688 C 27.527344 49.097656 27.554688 49.027344 27.613281 48.96875 C 27.671875 48.910156 27.738281 48.882812 27.820312 48.882812 Z M 27.820312 48.882812 " fill-opacity="1" fill-rule="nonzero"/><path fill="#030305" d="M 33.71875 48.882812 L 35.613281 48.882812 C 35.695312 48.882812 35.761719 48.910156 35.820312 48.96875 C 35.878906 49.027344 35.90625 49.097656 35.90625 49.179688 L 35.90625 51.082031 C 35.90625 51.164062 35.878906 51.230469 35.820312 51.289062 C 35.761719 51.347656 35.695312 51.375 35.613281 51.375 L 33.71875 51.375 C 33.636719 51.375 33.566406 51.347656 33.511719 51.289062 C 33.453125 51.230469 33.421875 51.164062 33.421875 51.082031 L 33.421875 49.179688 C 33.421875 49.097656 33.453125 49.027344 33.511719 48.96875 C 33.566406 48.910156 33.636719 48.882812 33.71875 48.882812 Z M 33.71875 48.882812 " fill-opacity="1" fill-rule="nonzero"/><path fill="#030305" d="M 36.664062 48.882812 L 38.5625 48.882812 C 38.640625 48.882812 38.710938 48.910156 38.769531 48.96875 C 38.824219 49.027344 38.855469 49.097656 38.855469 49.179688 L 38.855469 51.082031 C 38.855469 51.164062 38.824219 51.230469 38.769531 51.289062 C 38.710938 51.347656 38.640625 51.375 38.5625 51.375 L 36.664062 51.375 C 36.585938 51.375 36.515625 51.347656 36.457031 51.289062 C 36.402344 51.230469 36.371094 51.164062 36.371094 51.082031 L 36.371094 49.179688 C 36.371094 49.097656 36.402344 49.027344 36.457031 48.96875 C 36.515625 48.910156 36.585938 48.882812 36.664062 48.882812 Z M 36.664062 48.882812 " fill-opacity="1" fill-rule="nonzero"/><path fill="#030305" d="M 39.613281 48.882812 L 41.507812 48.882812 C 41.589844 48.882812 41.660156 48.910156 41.714844 48.96875 C 41.773438 49.027344 41.800781 49.097656 41.800781 49.179688 L 41.800781 51.082031 C 41.800781 51.164062 41.773438 51.230469 41.714844 51.289062 C 41.660156 51.347656 41.589844 51.375 41.507812 51.375 L 39.613281 51.375 C 39.53125 51.375 39.464844 51.347656 39.40625 51.289062 C 39.347656 51.230469 39.320312 51.164062 39.320312 51.082031 L 39.320312 49.179688 C 39.320312 49.097656 39.347656 49.027344 39.40625 48.96875 C 39.464844 48.910156 39.53125 48.882812 39.613281 48.882812 Z M 39.613281 48.882812 " fill-opacity="1" fill-rule="nonzero"/><path fill="#030305" d="M 30.769531 48.882812 L 32.664062 48.882812 C 32.746094 48.882812 32.816406 48.910156 32.871094 48.96875 C 32.929688 49.027344 32.957031 49.097656 32.957031 49.179688 L 32.957031 51.082031 C 32.957031 51.164062 32.929688 51.230469 32.871094 51.289062 C 32.816406 51.347656 32.746094 51.375 32.664062 51.375 L 30.769531 51.375 C 30.6875 51.375 30.617188 51.347656 30.5625 51.289062 C 30.503906 51.230469 30.476562 51.164062 30.476562 51.082031 L 30.476562 49.179688 C 30.476562 49.097656 30.503906 49.027344 30.5625 48.96875 C 30.617188 48.910156 30.6875 48.882812 30.769531 48.882812 Z M 30.769531 48.882812 " fill-opacity="1" fill-rule="nonzero"/><g clip-path="url(#20e858d4a5)"><path stroke-linecap="round" transform="matrix(0.123419, 0, 0, 0.123927, 1.466548, 25.464436)" fill="none" stroke-linejoin="round" d="M 474.549619 94.186879 L 563.866544 94.186879 C 565.607307 94.186879 567.284768 94.533606 568.86728 95.195539 C 570.449791 95.857472 571.874051 96.80309 573.108409 98.000873 C 574.311118 99.230177 575.260624 100.648605 575.925279 102.256156 C 576.589934 103.832187 576.906436 105.502779 576.906436 107.236413 L 576.906436 161.325784 " stroke="#030305" stroke-width="5" stroke-opacity="1" stroke-miterlimit="4"/></g><g clip-path="url(#5354b9acc4)"><path stroke-linecap="round" transform="matrix(0.123419, 0, 0, 0.123927, 1.466548, 25.464436)" fill="none" stroke-linejoin="round" d="M 4.607126 224.524611 L 4.607126 258.629914 C 4.607126 260.773316 5.018578 262.853676 5.841484 264.870995 C 6.69604 266.888315 7.867098 268.653469 9.386309 270.166458 C 10.93717 271.710968 12.709582 272.877231 14.703546 273.728287 C 16.69751 274.547823 18.786425 274.957591 20.93864 274.957591 L 116.870462 274.957591 " stroke="#030305" stroke-width="5" stroke-opacity="1" stroke-miterlimit="4"/></g><path fill="#faaf39" d="M 62 40.316406 C 62 40.484375 61.9375 40.628906 61.820312 40.75 C 61.699219 40.867188 61.558594 40.929688 61.390625 40.929688 C 61.21875 40.929688 61.078125 40.867188 60.957031 40.75 C 60.839844 40.628906 60.777344 40.484375 60.777344 40.316406 C 60.777344 40.148438 60.839844 40.003906 60.957031 39.882812 C 61.078125 39.765625 61.21875 39.703125 61.390625 39.703125 C 61.558594 39.703125 61.699219 39.765625 61.820312 39.882812 C 61.9375 40.003906 62 40.148438 62 40.316406 Z M 62 40.316406 " fill-opacity="1" fill-rule="nonzero"/><path fill="#faaf39" d="M 65 40.316406 C 65 40.484375 64.9375 40.628906 64.820312 40.75 C 64.699219 40.867188 64.558594 40.929688 64.386719 40.929688 C 64.21875 40.929688 64.078125 40.867188 63.957031 40.75 C 63.839844 40.628906 63.777344 40.484375 63.777344 40.316406 C 63.777344 40.148438 63.839844 40.003906 63.957031 39.882812 C 64.078125 39.765625 64.21875 39.703125 64.386719 39.703125 C 64.558594 39.703125 64.699219 39.765625 64.820312 39.882812 C 64.9375 40.003906 65 40.148438 65 40.316406 Z M 65 40.316406 " fill-opacity="1" fill-rule="nonzero"/><path fill="#faaf39" d="M 67.996094 40.316406 C 67.996094 40.484375 67.9375 40.628906 67.820312 40.75 C 67.699219 40.867188 67.558594 40.929688 67.386719 40.929688 C 67.21875 40.929688 67.078125 40.867188 66.957031 40.75 C 66.839844 40.628906 66.777344 40.484375 66.777344 40.316406 C 66.777344 40.148438 66.839844 40.003906 66.957031 39.882812 C 67.078125 39.765625 67.21875 39.703125 67.386719 39.703125 C 67.558594 39.703125 67.699219 39.765625 67.820312 39.882812 C 67.9375 40.003906 67.996094 40.148438 67.996094 40.316406 Z M 67.996094 40.316406 " fill-opacity="1" fill-rule="nonzero"/><g fill="#fffffa" fill-opacity="1"><g transform="translate(17.20459, 22.824671)"><g><path d="M 0.421875 0 L 0.421875 -9.578125 L 2.328125 -9.578125 L 2.328125 -5.75 L 3.21875 -9.578125 L 5.140625 -9.578125 L 4.078125 -5.203125 L 5.359375 0 L 3.375 0 L 2.328125 -4.640625 L 2.328125 0 Z M 0.421875 0 "/></g></g></g><g fill="#fffffa" fill-opacity="1"><g transform="translate(22.467917, 22.824671)"><g><path d="M 0.421875 0 L 0.421875 -9.578125 L 4.265625 -9.578125 L 4.265625 -7.734375 L 2.375 -7.734375 L 2.375 -5.875 L 4.1875 -5.875 L 4.1875 -4.0625 L 2.375 -4.0625 L 2.375 -1.859375 L 4.390625 -1.859375 L 4.390625 0 Z M 0.421875 0 "/></g></g></g><g fill="#fffffa" fill-opacity="1"><g transform="translate(27.062176, 22.824671)"><g><path d="M 1.578125 0 L 1.578125 -3.15625 L 0.0625 -9.578125 L 1.953125 -9.578125 L 2.484375 -6.34375 L 3.015625 -9.578125 L 4.921875 -9.578125 L 3.390625 -3.15625 L 3.390625 0 Z M 1.578125 0 "/></g></g></g><g fill="#ff3131" fill-opacity="1"><g transform="translate(32.036132, 22.824671)"><g><path d="M 2.703125 0.09375 C 1.828125 0.09375 1.195312 -0.117188 0.8125 -0.546875 C 0.425781 -0.984375 0.234375 -1.679688 0.234375 -2.640625 L 0.234375 -3.578125 L 2.125 -3.578125 L 2.125 -2.390625 C 2.125 -1.910156 2.273438 -1.671875 2.578125 -1.671875 C 2.742188 -1.671875 2.859375 -1.71875 2.921875 -1.8125 C 2.992188 -1.914062 3.03125 -2.085938 3.03125 -2.328125 C 3.03125 -2.640625 2.992188 -2.894531 2.921875 -3.09375 C 2.847656 -3.300781 2.753906 -3.472656 2.640625 -3.609375 C 2.523438 -3.753906 2.316406 -3.972656 2.015625 -4.265625 L 1.1875 -5.09375 C 0.550781 -5.71875 0.234375 -6.40625 0.234375 -7.15625 C 0.234375 -7.976562 0.421875 -8.601562 0.796875 -9.03125 C 1.171875 -9.457031 1.71875 -9.671875 2.4375 -9.671875 C 3.300781 -9.671875 3.921875 -9.441406 4.296875 -8.984375 C 4.679688 -8.523438 4.875 -7.8125 4.875 -6.84375 L 2.921875 -6.84375 L 2.90625 -7.5 C 2.90625 -7.625 2.867188 -7.722656 2.796875 -7.796875 C 2.734375 -7.867188 2.640625 -7.90625 2.515625 -7.90625 C 2.359375 -7.90625 2.242188 -7.863281 2.171875 -7.78125 C 2.097656 -7.707031 2.0625 -7.597656 2.0625 -7.453125 C 2.0625 -7.140625 2.238281 -6.816406 2.59375 -6.484375 L 3.71875 -5.40625 C 3.976562 -5.15625 4.191406 -4.914062 4.359375 -4.6875 C 4.535156 -4.457031 4.675781 -4.1875 4.78125 -3.875 C 4.882812 -3.570312 4.9375 -3.210938 4.9375 -2.796875 C 4.9375 -1.847656 4.757812 -1.128906 4.40625 -0.640625 C 4.0625 -0.148438 3.492188 0.09375 2.703125 0.09375 Z M 2.703125 0.09375 "/></g></g></g><g fill="#ff3131" fill-opacity="1"><g transform="translate(37.176796, 22.824671)"><g><path d="M 1.25 0 L 1.25 -7.75 L 0.109375 -7.75 L 0.109375 -9.578125 L 4.3125 -9.578125 L 4.3125 -7.75 L 3.171875 -7.75 L 3.171875 0 Z M 1.25 0 "/></g></g></g><g fill="#ff3131" fill-opacity="1"><g transform="translate(41.592638, 22.824671)"><g><path d="M 0.171875 0 L 1.09375 -9.578125 L 4.34375 -9.578125 L 5.25 0 L 3.4375 0 L 3.296875 -1.546875 L 2.140625 -1.546875 L 2.03125 0 Z M 2.28125 -3.078125 L 3.15625 -3.078125 L 2.734375 -7.953125 L 2.640625 -7.953125 Z M 2.28125 -3.078125 "/></g></g></g><g fill="#ff3131" fill-opacity="1"><g transform="translate(47.000929, 22.824671)"><g><path d="M 0.140625 0 L 1.171875 -5.09375 L 0.359375 -9.59375 L 2.234375 -9.59375 L 2.734375 -6.296875 L 3.171875 -9.59375 L 5.046875 -9.59375 L 4.234375 -5.09375 L 5.25 0 L 3.3125 0 L 2.71875 -3.75 L 2.09375 0 Z M 0.140625 0 "/></g></g></g><g fill="#ff3131" fill-opacity="1"><g transform="translate(52.39807, 22.824671)"><g><path d="M 0.140625 0 L 1.171875 -5.09375 L 0.359375 -9.59375 L 2.234375 -9.59375 L 2.734375 -6.296875 L 3.171875 -9.59375 L 5.046875 -9.59375 L 4.234375 -5.09375 L 5.25 0 L 3.3125 0 L 2.71875 -3.75 L 2.09375 0 Z M 0.140625 0 "/></g></g></g></svg>